<svg xmlns="http://www.w3.org/2000/svg" fill="none" viewBox="0 0 109 36"><path fill="#000" d="M88.02 34.14V1.86h7.41v25.721h12.978v6.547H88.02v.012ZM28.686 14.023 46.758 0c1.704 1.395 3.396 2.802 5.1 4.203L34.714 17.296l3.706 3.274L55.563 7.012c1.704 1.395 3.396 2.802 5.1 4.209A1797.623 1797.623 0 0 1 43.52 24.779l3.699 3.28L64.38 14.016l-.006-12.15h7.417v25.72H85.23v6.547H64.842V21.977C58.808 26.645 52.792 31.332 46.764 36L28.686 21.977c-.873 4.46-3.96 8.32-7.956 10.364a15.97 15.97 0 0 1-5.549 1.689c-1.11.134-2.226.104-3.341.104H.407V1.866h13.184a15.344 15.344 0 0 1 9.479 3.408c2.753 2.203 4.718 5.335 5.621 8.75M7.37 8.412v19.64l5.78-.007a8.29 8.29 0 0 0 3.491-.9 8.368 8.368 0 0 0 2.791-2.3 10.726 10.726 0 0 0 1.104-11.557 9.123 9.123 0 0 0-2.455-2.993 9.028 9.028 0 0 0-3.464-1.694c-1.007-.244-2.05-.183-3.075-.195H7.37v.006Z"/></svg>