<svg xmlns="http://www.w3.org/2000/svg" fill="none" viewBox="0 0 119 40"><mask id="a" width="119" height="40" x="0" y="0" maskUnits="userSpaceOnUse" style="mask-type:luminance"><path fill="#fff" d="M119 0H0v39.214h119V0Z"/></mask><g mask="url(#a)"><path fill="#263238" d="M63.06 21.406c-.403-3.773-3.547-6.565-7.597-6.565-3.95 0-7.194 3.295-7.596 6.565h15.192Zm4.225 11.319c.176.1.277.301.302.477a.72.72 0 0 1-.151.554c-2.59 3.27-6.238 5.358-11.52 5.358-8.628 0-14.79-6.138-14.79-14.891 0-8.527 6.212-14.89 14.438-14.89 8.3 0 14.136 6.438 14.136 14.89 0 .277 0 .83-.026 1.308 0 .402-.352.73-.754.73H47.79c.302 4.124 3.95 7.193 8.175 7.193 3.119 0 4.855-1.132 6.339-3.044a.78.78 0 0 1 1.006-.176c.98.68 2.943 1.811 3.974 2.49Zm19.142-.202c-3.145 0-4.578-1.459-4.578-4.703V15.897h3.27a.757.757 0 0 0 .754-.755v-4.426a.757.757 0 0 0-.754-.755h-3.27V2.868a.724.724 0 0 0-.227-.529.724.724 0 0 0-.528-.226H76.09a.757.757 0 0 0-.755.755V9.96h-3.119a.757.757 0 0 0-.755.755v4.426c0 .202.076.378.227.529.15.15.327.226.528.226h3.119v13.18c0 6.163 3.572 9.835 9.483 9.835 1.031 0 1.76-.126 2.565-.402.503-.201.856-.68.856-1.233l-.026-4.1a.72.72 0 0 0-.251-.553.796.796 0 0 0-.579-.176c-.352.025-.654.05-.956.075Zm17.808 0c-3.144 0-4.578-1.459-4.578-4.703V15.897h3.27a.724.724 0 0 0 .528-.226.724.724 0 0 0 .227-.529v-4.426a.757.757 0 0 0-.755-.755h-3.27V2.868a.757.757 0 0 0-.754-.755h-5.006a.724.724 0 0 0-.528.226.724.724 0 0 0-.227.529V9.96h-3.118a.757.757 0 0 0-.755.755v4.426c0 .202.075.378.226.529.151.15.327.226.528.226h3.12v13.18c0 6.163 3.571 9.835 9.482 9.835 1.032 0 1.761-.126 2.566-.402.503-.201.855-.68.855-1.233l-.025-4.1a.72.72 0 0 0-.252-.553.699.699 0 0 0-.578-.176c-.352.025-.654.05-.956.075ZM18.588 18.74v4.251c0 .202.076.378.227.529.15.15.327.226.528.226h11.57c-.855 5.458-5.357 9.357-11.344 9.357-7.294 0-12.979-6.062-12.979-13.457 0-7.47 5.735-13.482 12.929-13.482 4.024 0 7.445 1.635 9.71 4.578a.742.742 0 0 0 .98.176l4.352-2.641c.15-.101.276-.252.301-.453.026-.176 0-.377-.125-.528-3.195-4.402-8.678-7.32-15.168-7.32C8.804-.025 0 8.804 0 19.62c0 10.816 8.653 19.594 19.519 19.594 10.766 0 18.11-8.175 18.11-18.714v-1.685a.724.724 0 0 0-.226-.528.724.724 0 0 0-.528-.227H19.267c-.377.025-.679.327-.679.68Z"/></g><mask id="b" width="119" height="40" x="0" y="0" maskUnits="userSpaceOnUse" style="mask-type:luminance"><path fill="#fff" d="M119 0H0v39.214h119V0Z"/></mask><g mask="url(#b)"><path fill="#FF9D00" d="M115.051 30.813c-1.66 0-2.691.251-3.295.98-.503.604-.704 1.585-.704 3.02 0 1.508.201 2.49.78 3.118.603.629 1.609.88 3.194.88 1.811 0 2.867-.301 3.421-1.157.402-.628.553-1.509.553-2.817 0-1.534-.226-2.515-.805-3.144-.578-.654-1.584-.88-3.144-.88Z"/></g></svg>