<svg xmlns="http://www.w3.org/2000/svg" fill="none" viewBox="0 0 101 40"><path fill="#000" d="M.592 37.216h19.446v2.776H.592v-2.776Zm0-5.326h19.446v2.783H.592V31.89Zm5.541-5.315h8.346v2.788H6.133v-2.788Zm0-5.31h8.346v2.784H6.133v-2.784Zm0-5.318h8.346v2.788H6.133v-2.788Zm0-5.323h8.346v2.788H6.133v-2.788ZM.592 5.314h19.446v2.784H.592V5.314ZM.592 0h19.446v2.784H.592V0Zm22.216 34.673h29.905c.5-.856.883-1.799 1.112-2.784H22.813v2.784h-.005Zm27.575-13.408H28.371v2.784h24.346a11.101 11.101 0 0 0-2.325-2.784h-.009Zm-22.016-5.318v2.788h22.02a10.54 10.54 0 0 0 2.33-2.788h-24.35ZM52.713 5.314H22.808v2.784h31.013a11.994 11.994 0 0 0-1.108-2.784ZM43.52 0H22.808v2.784h27.855A10.524 10.524 0 0 0 43.52 0ZM28.367 10.624H36.7v2.788h-8.333v-2.788Zm16.67 2.788h8.717c.246-.889.375-1.828.375-2.788h-9.091v2.788Zm-16.67 13.163h8.329v2.788h-8.333l.004-2.788Zm16.67 0v2.788h9.092c0-.955-.129-1.899-.375-2.788h-8.716ZM22.809 39.971 43.517 40c2.779 0 5.283-1.068 7.154-2.784H22.808v2.755Zm33.342-2.755h13.884v2.776H56.15v-2.776Zm0-5.326h13.884v2.783H56.15V31.89Zm5.546-5.315h8.333v2.788h-8.333v-2.788Zm0-5.31h8.333v2.784h-8.333v-2.784ZM73.9 5.315H56.15v2.783H74.86L73.9 5.314ZM72.058 0H56.15v2.78h16.867L72.058 0Zm14.638 37.216h13.896v2.776H86.696v-2.776Zm0-5.326h13.896v2.783H86.696V31.89Zm0-5.315h8.333v2.788h-8.333v-2.788Zm0-5.31h8.333v2.784h-8.333v-2.784Zm0-2.53h8.333v-2.788H79.15l-.783 2.252-.784-2.252H61.697v2.788h8.333v-2.56l.888 2.56h14.896l.883-2.56v2.56Zm8.338-8.11H80.992l-.959 2.787h15v-2.788ZM84.688 0l-.963 2.78h16.867V0H84.688Zm-6.321 39.97.958-2.754h-1.92l.962 2.755Zm-1.842-5.297h3.683l.992-2.784h-5.654l.98 2.784Zm-1.87-5.31h7.424l.98-2.788H73.67l.983 2.788Zm-1.867-5.314H83.95l.954-2.784H71.83l.959 2.784ZM61.696 13.412h15.008l-.962-2.788H61.696v2.788Zm20.188-5.314h18.708V5.314H82.834l-.95 2.784Z"/></svg>