<svg xmlns="http://www.w3.org/2000/svg" fill="none" viewBox="0 0 117 39"><path fill="#00C7FD" d="M16.516 0h-7.21v7.21h7.21V0Z"/><path fill="#000" d="M16.244 38.101v-25.99h-6.85v25.965h6.85v.025Zm45.362.257v-6.363c-1 0-1.847-.051-2.463-.154-.718-.103-1.257-.36-1.616-.719-.36-.359-.59-.872-.718-1.565-.103-.641-.154-1.488-.154-2.514v-9.057h4.951V12.11h-4.951V2.001h-6.85V27.12c0 2.13.179 3.925.538 5.362.36 1.412.975 2.566 1.822 3.438.846.873 1.975 1.489 3.335 1.873 1.386.385 3.13.565 5.209.565h.897Zm39.205-.257V0h-6.85v38.101h6.85Zm-57.6-23.425c-1.9-2.053-4.568-3.079-7.955-3.079-1.642 0-3.156.334-4.49 1a9.694 9.694 0 0 0-3.412 2.772l-.36.487V12.11h-6.747v25.966h6.799v-13.83.95-.462c.077-2.438.667-4.234 1.796-5.388 1.206-1.232 2.668-1.848 4.336-1.848 1.976 0 3.49.616 4.49 1.796.975 1.18 1.488 2.848 1.488 4.978v13.804h6.902V23.348c.026-3.694-.95-6.62-2.848-8.672ZM90.42 25.067c0-1.873-.334-3.617-.975-5.26a14.079 14.079 0 0 0-2.745-4.284c-1.18-1.232-2.592-2.181-4.234-2.874-1.642-.693-3.464-1.026-5.44-1.026-1.872 0-3.643.359-5.285 1.052-1.642.718-3.079 1.667-4.285 2.873a13.382 13.382 0 0 0-2.873 4.285c-.719 1.642-1.052 3.413-1.052 5.286 0 1.873.333 3.643 1 5.285a13.186 13.186 0 0 0 2.797 4.285c1.18 1.206 2.643 2.18 4.336 2.873 1.694.719 3.567 1.078 5.568 1.078 5.799 0 9.39-2.643 11.546-5.106l-4.927-3.746c-1.026 1.232-3.489 2.9-6.568 2.9-1.924 0-3.515-.437-4.72-1.335-1.207-.872-2.028-2.104-2.464-3.617l-.077-.231H90.42v-2.438Zm-20.347-2.386c0-1.898 2.181-5.208 6.877-5.234 4.695 0 6.901 3.31 6.901 5.209l-13.778.025Zm38.538 12.136a2.42 2.42 0 0 0-.539-.795 2.423 2.423 0 0 0-.795-.539 2.556 2.556 0 0 0-.975-.205c-.359 0-.667.077-.975.205a2.428 2.428 0 0 0-.796.539c-.23.23-.41.487-.538.795a2.541 2.541 0 0 0-.206.975c0 .36.077.667.206.975.128.308.308.565.538.795a2.553 2.553 0 0 0 1.771.744c.359 0 .667-.076.975-.205a2.42 2.42 0 0 0 .795-.538 2.42 2.42 0 0 0 .539-.796 2.56 2.56 0 0 0 .205-.975c0-.333-.077-.667-.205-.975Zm-.411 1.796a1.99 1.99 0 0 1-.436.667c-.179.18-.41.334-.667.437a2.125 2.125 0 0 1-.821.153c-.282 0-.564-.05-.821-.153a2.016 2.016 0 0 1-.667-.437 1.99 1.99 0 0 1-.436-.667 2.12 2.12 0 0 1-.154-.82c0-.283.051-.565.154-.822.102-.256.256-.487.436-.667.18-.18.411-.334.667-.436.257-.103.513-.154.821-.154.282 0 .565.051.821.154.257.102.488.256.667.436.18.18.334.41.436.667.103.257.154.513.154.821 0 .308-.051.565-.154.821Zm-1.436-.59a.793.793 0 0 0 .487-.23c.128-.13.205-.309.205-.565 0-.282-.077-.488-.256-.642-.154-.154-.436-.23-.77-.23h-1.129v2.899h.539v-1.18h.385l.718 1.18h.565l-.744-1.232Zm-.283-.436h-.641v-.821h.641c.077 0 .154.026.231.051a.26.26 0 0 1 .154.129c.052.05.052.128.052.23 0 .103-.026.18-.052.231-.051.052-.102.103-.154.129a.748.748 0 0 1-.231.05Z"/></svg>