<svg xmlns="http://www.w3.org/2000/svg" fill="none" viewBox="0 0 118 52"><path fill="#000" d="M107.384 10.352c-5.028.894-7.71 4.693-7.71 11.286 0 6.705 3.576 11.174 8.827 11.174 2.571 0 4.805-.893 9.499-3.24v5.475c-5.699 2.682-9.052 3.353-13.521 3.353-5.029 0-8.604-1.23-11.398-4.247-2.905-2.905-4.47-6.704-4.47-11.062C88.611 13.593 95.763 7 106.155 7c6.816 0 11.621 3.24 11.621 7.822 0 3.017-2.235 5.14-5.475 5.14-1.676 0-3.017-.559-4.917-1.564M82.243 23.09c4.581-5.698 6.257-8.045 6.257-10.838C88.5 9.458 86.266 7 83.137 7c-1.788 0-3.464 1.006-4.246 1.9v11.733l-7.487 10.056V7.894h-7.152L52.408 27.449V7.894h-4.023l-10.84 2.458v2.794l5.923.558v24.249h7.487L62.353 19.18v18.773h8.38M14.862 34.153h1.676c6.034 0 9.386-3.687 9.386-11.062 0-6.146-2.682-9.498-7.71-9.498-.67 0-1.676.112-3.352.447v20.113Zm0 13.186 4.916 1.117v2.794H.447v-2.794l4.47-1.117V13.593H0v-2.794l11.733-3.575h3.129v4.022c5.475-3.352 7.375-3.91 10.28-3.91 6.481 0 11.398 6.033 11.398 14.414 0 9.61-6.593 16.203-16.65 16.203-1.117 0-3.017-.112-5.028-.224"/></svg>