<svg width="317" height="253" fill="none" xmlns="http://www.w3.org/2000/svg"><path d="M38.379 7.695l6.531.43c1.604 7.104 4.899 17.159 9.883 30.164 4.984 12.948 8.279 22.63 9.883 29.047 0 1.661-.287 2.893-.86 3.695-.573.86-1.289 1.29-2.148 1.29-.745 0-1.461-.316-2.148-.946-.63-.573-1.06-1.404-1.29-2.492-.515-2.521-2.177-7.563-4.984-15.125-11.802-1.49-19.221-2.406-22.258-2.75-.744 2.062-1.661 5.414-2.75 10.054-1.088 4.641-1.948 7.85-2.578 9.626-.86 1.03-1.833 1.546-2.922 1.546-1.203 0-2.234-.544-3.093-1.632-.86-1.032-1.29-2.32-1.29-3.868 1.834-6.703 5.157-16.557 9.97-29.562 4.812-13.005 8.163-22.83 10.054-29.477zm3.008 8.68c-1.146 6.932-4.326 17.102-9.54 30.508h9.626c4.354 0 7.992.143 10.914.43-5.901-12.662-9.568-22.975-11-30.938zm41.645 9.54c2.464-.23 6.188-.602 11.172-1.118 4.984-.573 8.508-.945 10.57-1.117 1.433.057 2.636.601 3.61 1.633 1.031.974 1.546 2.033 1.546 3.18 0 1.718-1.145 2.692-3.437 2.921-2.12-.172-5.328-.458-9.625-.86a653.63 653.63 0 00-9.797-.859c.057 3.495.401 9.167 1.031 17.016.63 7.849.946 13.836.946 17.96 0 3.553-1.404 5.329-4.211 5.329-2.35 0-3.524-1.604-3.524-4.813 0-3.78.086-7.82.258-12.117.172-4.354.43-9.31.773-14.867.344-5.614.573-9.71.688-12.289zm69.231.515l3.867.86 1.977 41.679c-.516 1.719-1.518 2.578-3.008 2.578-1.031 0-2.034-.43-3.008-1.29-.974-.801-1.575-1.804-1.804-3.007 0-.172.258-5.013.773-14.523v-.688c-1.604-.114-3.982-.172-7.133-.172-4.755 0-8.336-.143-10.742-.43.287 3.323.659 8.68 1.117 16.07-.515 1.777-1.518 2.665-3.007 2.665-1.032 0-2.034-.401-3.008-1.203-.917-.86-1.49-1.89-1.719-3.094.172-2.865.258-5.73.258-8.594 0-1.833-.029-4.583-.086-8.25a581.118 581.118 0 01-.086-8.164c0-5.5.172-10.112.516-13.836l3.867.946c1.146 12.432 1.747 18.82 1.804 19.164 9.797.515 14.839.773 15.125.773 2.349 0 3.524-.143 3.524-.43 0-1.145.114-4.784.344-10.914.229-6.13.372-9.51.429-10.14zm60.638 35.234l.859 3.781c-2.521.917-6.273 1.948-11.258 3.094-4.927 1.089-8.593 1.633-11 1.633-2.463 0-4.612-.802-6.445-2.406-1.833-1.662-3.208-3.753-4.125-6.274-.917-2.578-1.604-5.099-2.062-7.562a46.893 46.893 0 01-.602-7.39c0-14.324 6.474-21.485 19.422-21.485 3.094 0 5.815 1.002 8.164 3.008 2.349 1.947 3.523 4.497 3.523 7.648 0 1.719-.487 3.237-1.461 4.555a10.718 10.718 0 01-3.437 3.18c-1.318.744-3.037 1.432-5.156 2.062-2.063.63-3.896 1.088-5.5 1.375-1.605.286-3.524.601-5.758.945-2.235.344-3.781.602-4.641.774.058 1.661.143 3.122.258 4.382.172 1.26.458 2.636.859 4.125.459 1.433 1.032 2.636 1.719 3.61.745.916 1.748 1.69 3.008 2.32 1.26.63 2.75.945 4.469.945 2.062 0 4.583-.172 7.562-.515a205.12 205.12 0 007.906-1.203c2.349-.401 3.581-.602 3.696-.602zm-29.133-18.39c7.792-2.235 14.18-4.584 19.164-7.047-.401-1.891-.945-3.266-1.633-4.125-.687-.86-1.719-1.29-3.094-1.29-3.494 0-6.674 1.204-9.539 3.61-2.807 2.406-4.44 5.357-4.898 8.851zm43.88-12.72l-.774-3.78c7.677-.459 19.766-1.09 36.266-1.891 1.375.057 2.549.573 3.523 1.547.974.974 1.461 2.005 1.461 3.093 0 1.72-1.146 2.693-3.437 2.922l-16.071-.773c.287 4.297.43 10.57.43 18.82.057 8.193.172 14.18.344 17.961-.516 1.662-1.518 2.492-3.008 2.492-.974 0-1.919-.4-2.836-1.203-.917-.802-1.489-1.776-1.719-2.922.802-14.093 1.633-25.924 2.493-35.492l-16.672-.773zm60.293 2.321l-1.718-4.383c1.489-1.49 3.38-2.664 5.672-3.523 2.291-.917 4.554-1.375 6.789-1.375 9.682 0 14.523 8.364 14.523 25.093 0 2.292-.143 5.672-.43 10.141-.229 4.469-.343 7.82-.343 10.055-.459 1.776-1.347 2.664-2.664 2.664-1.032 0-1.977-.516-2.836-1.547-.86-1.031-1.289-2.177-1.289-3.438 0-.4.028-.687.085-.859-3.552 3.438-7.333 5.156-11.343 5.156-3.037 0-5.701-1.088-7.992-3.265-2.235-2.235-3.352-4.927-3.352-8.078 0-5.328 2.062-10.141 6.187-14.438 4.183-4.297 8.909-6.445 14.18-6.445.229 0 .458.028.688.086.229 0 .487.028.773.086.344.057.602.086.774.086-.459-6.703-3.123-10.055-7.993-10.055-2.864 0-6.101 1.346-9.711 4.039zm17.961 26.898c.115-4.01.172-7.046.172-9.109 0-1.719-.057-4.125-.172-7.219h-.687c-4.068.058-7.792 1.576-11.172 4.555-3.323 2.98-4.984 6.589-4.984 10.828 0 1.833.544 3.294 1.632 4.383 1.146 1.088 2.521 1.633 4.125 1.633 2.521 0 6.217-1.69 11.086-5.07zM120.771 95.014c-.291 1.991.65 3.519 2.071 3.36 2.225-.084 3.346-2.577 5.058-4.727 2.14-2.687 4.468-5.069 6.984-7.145 2.089-1.539.472-6.011-1.591-5.047-2.277 1.233-4.579 3.04-6.693 5.154-2.328 2.382-5.247 4.422-5.829 8.405zM111.596 105.998c-.907 2.224-1.789 3.872-2.884 5.791-.642.806-1.472 1.307-1.926 2.419-.454 1.112-.882 1.649-1.148 3.066-.479 1.686.838 3.824 2.071 3.36 2.063-.964 3.133-2.308 4.254-4.8 1.121-2.492 2.217-4.41 2.962-7.513.531-2.835-2.208-4.816-3.329-2.323zM86.592 141.191c-.266 1.417.675 2.944 1.882 3.055 1.823-.122 2.49-1.502 3.775-3.115 1.284-1.612 2.165-3.262 3.45-4.874 1.523-2.455-.548-5.816-2.26-3.666-1.07 1.344-2.328 2.382-3.398 3.726-1.66 1.001-3.107 1.733-3.45 4.874zM76.775 152.977c-1.601 4.178-4.332 6.523-6.12 10.396-.908 2.223.786 4.973 2.446 3.971 3.321-2.003 5.564-6.987 6.6-12.082.72-2.528-2.019-4.509-2.926-2.285zM50.701 189.513c-.051 1.148.702 2.37 1.506 2.444 2.413.22 3.749-2.541 5.46-4.69 1.499-1.882 3.21-4.031 4.52-6.218 1.096-1.918-.786-4.973-2.258-3.666-1.687 1.575-2.97 3.188-4.469 5.069-2.088 1.539-4.39 3.347-4.759 7.061zM34.181 215.682c1.13 1.833 3.167 1.443 3.86-.512 1.336-2.761 3.476-5.448 5-7.904.88-1.649-.813-4.398-2.072-3.36-2.114 2.113-3.851 4.837-6.128 6.071-1.258 1.038-1.79 3.872-.66 5.705z" fill="#F93E3E"/><path d="M15.443 187.733c-1.02 13.745-1.665 28.101.747 41.872.325 1.759 1.266 3.287 2.687 3.128 9.303-.303 18.306-2.939 27.583-2.668 3.218.294 3.339-6.902.31-6.891-8.473-.198-16.86 2.207-25.333 2.009-1.47-12.243.063-23.923.227-36.593.07-6.048-5.776-6.294-6.222-.857z" fill="#F93E3E"/></svg>