<svg width="82" height="76" viewBox="0 0 82 76" fill="none" xmlns="http://www.w3.org/2000/svg">
<path d="M34.4056 52.9143C35.3491 42.356 34.0353 29.4 33.4867 18.054C33.4228 13.9998 30.834 14.0406 30.8979 18.0948C30.7068 29.4524 29.7888 41.6325 31.0771 52.9668C31.5107 57.0138 34.0995 56.973 34.4056 52.9143Z" fill="#F93E3E"/>
<path d="M42.5848 18.1039C41.9191 28.3984 43.4997 40.9725 44.3 51.9982C44.4577 55.941 46.9681 55.8406 46.8104 51.8977C46.7274 40.8434 47.3301 28.9718 45.8125 17.9748C45.2962 14.0476 42.7858 14.148 42.5848 18.1039Z" fill="#F93E3E"/>
<path d="M42.8051 0.00240724C47.2559 0.125018 51.6944 0.411109 56.0348 1.486C56.833 1.65237 57.6142 1.89178 58.3685 2.20123C66.1668 5.81936 72.7782 11.5762 77.4345 18.8027C78.5455 20.5964 79.3223 22.5765 79.7273 24.6472C81.1823 31.1087 81.3008 37.6398 80.8757 44.1913C80.6313 48.6536 79.2513 52.9795 76.8664 56.7589C76.1797 57.8379 75.6403 59.019 75.0395 60.147C73.4618 63.0415 71.0041 65.3589 68.022 66.7639C60.859 70.24 53.2655 72.7483 45.4412 74.2227C40.6349 75.1709 35.755 75.6287 30.7893 74.9094C26.9485 74.3643 23.2931 72.9114 20.1262 70.6711C16.6931 68.2557 13.2723 65.8035 10.2888 62.7791C4.49745 56.9224 1.68149 49.8273 0.868176 41.7922C0.587534 38.9994 0.32324 36.2039 0.0752942 33.4056C-0.280277 29.3431 0.651564 25.5749 2.2782 21.8312C5.61321 14.1762 11.617 9.42299 18.8715 5.95311C21.1929 4.84553 23.6002 3.9096 25.987 2.95324C31.3778 0.770767 37.022 -0.050724 42.8051 0.00240724ZM77.7532 37.8237C77.9985 33.4874 77.0585 29.147 76.2574 24.7698C75.9666 22.9195 75.261 21.159 74.1934 19.6201C70.8176 14.9405 66.9104 10.8044 61.9528 7.7187C58.626 5.6425 55.1479 4.12621 51.1835 3.86056C48.8539 3.70797 46.5243 3.52815 44.1947 3.32107C38.4729 2.83063 33.0249 3.92595 27.769 6.13294C25.8276 6.95035 23.8659 7.71871 21.9531 8.58515C18.856 9.97336 15.9429 11.7402 13.2805 13.8452C9.83102 16.6243 7.48915 20.2046 5.72356 24.2098C4.49745 26.9114 3.62692 29.6864 3.76179 32.67C3.89666 35.6535 4.01518 38.7474 4.40345 41.7554C5.40068 49.484 8.12673 56.4687 14.102 61.7818C16.5276 63.9746 19.081 66.0217 21.7488 67.9124C26.2976 71.0839 31.3655 72.6247 36.977 71.979C37.6718 71.8972 38.3789 71.9095 39.0818 71.885C46.0993 71.6152 52.6508 69.5554 58.9407 66.5718C61.8833 65.1822 64.7443 63.6169 67.6256 62.1006C68.2619 61.8071 68.8437 61.4077 69.3462 60.9195C72.2848 57.7234 74.9291 54.3802 76.2329 50.0848C77.4347 46.1157 77.9489 41.9703 77.7532 37.8278V37.8237Z" fill="#F93E3E"/>
</svg>
