<svg width="82" height="76" viewBox="0 0 82 76" fill="none" xmlns="http://www.w3.org/2000/svg">
<path d="M42.8051 0.00240724C47.2559 0.125018 51.6944 0.411109 56.0348 1.486C56.833 1.65237 57.6142 1.89178 58.3685 2.20123C66.1668 5.81936 72.7782 11.5762 77.4345 18.8027C78.5455 20.5964 79.3223 22.5765 79.7273 24.6472C81.1823 31.1087 81.3008 37.6398 80.8757 44.1913C80.6313 48.6536 79.2513 52.9795 76.8664 56.7589C76.1797 57.8379 75.6403 59.019 75.0395 60.147C73.4618 63.0415 71.0041 65.3589 68.022 66.7639C60.859 70.24 53.2655 72.7483 45.4412 74.2227C40.6349 75.1709 35.755 75.6287 30.7893 74.9094C26.9485 74.3643 23.2931 72.9114 20.1262 70.6711C16.6931 68.2557 13.2723 65.8035 10.2888 62.7791C4.49745 56.9224 1.68149 49.8273 0.868176 41.7922C0.587534 38.9994 0.32324 36.2039 0.0752942 33.4056C-0.280277 29.3431 0.651564 25.5749 2.2782 21.8312C5.61321 14.1762 11.617 9.42299 18.8715 5.95311C21.1929 4.84553 23.6002 3.9096 25.987 2.95324C31.3778 0.770767 37.022 -0.050724 42.8051 0.00240724ZM77.7532 37.8237C77.9985 33.4874 77.0585 29.147 76.2574 24.7698C75.9666 22.9195 75.261 21.159 74.1934 19.6201C70.8176 14.9405 66.9104 10.8044 61.9528 7.7187C58.626 5.6425 55.1479 4.12621 51.1835 3.86056C48.8539 3.70797 46.5243 3.52815 44.1947 3.32107C38.4729 2.83063 33.0249 3.92595 27.769 6.13294C25.8276 6.95035 23.8659 7.71871 21.9531 8.58515C18.856 9.97336 15.9429 11.7402 13.2805 13.8452C9.83102 16.6243 7.48915 20.2046 5.72356 24.2098C4.49745 26.9114 3.62692 29.6864 3.76179 32.67C3.89666 35.6535 4.01518 38.7474 4.40345 41.7554C5.40068 49.484 8.12673 56.4687 14.102 61.7818C16.5276 63.9746 19.081 66.0217 21.7488 67.9124C26.2976 71.0839 31.3655 72.6247 36.977 71.979C37.6718 71.8972 38.3789 71.9095 39.0818 71.885C46.0993 71.6152 52.6508 69.5554 58.9407 66.5718C61.8833 65.1822 64.7443 63.6169 67.6256 62.1006C68.2619 61.8071 68.8437 61.4077 69.3462 60.9195C72.2848 57.7234 74.9291 54.3802 76.2329 50.0848C77.4347 46.1157 77.9489 41.9703 77.7532 37.8278V37.8237Z" fill="#F93E3E"/>
<path d="M24.4746 42.4392C25.0509 35.806 25.6149 29.1728 26.2157 22.5436C26.3157 21.6149 26.5046 20.6979 26.7797 19.8053C27.217 18.3217 28.0875 17.7373 29.6406 17.8803C30.4595 17.9542 31.2665 18.1272 32.0438 18.3953C38.3214 20.5777 44.8484 22.0736 50.7991 25.1797C56.521 28.1592 62.0793 31.3348 66.9469 35.6139C67.3118 35.9037 67.641 36.2357 67.9278 36.603C68.1641 36.9034 68.333 37.2511 68.423 37.6225C68.513 37.994 68.5221 38.3804 68.4496 38.7557C68.3771 39.131 68.2248 39.4862 68.0029 39.7974C67.781 40.1086 67.4947 40.3684 67.1636 40.5592C65.7015 41.5273 64.1655 42.3787 62.5697 43.1054C57.0155 45.5576 51.498 48.1365 45.813 50.274C41.0148 52.0846 36.0286 53.4088 31.0997 54.8188C29.7796 55.1948 28.3246 55.1458 26.9268 55.1989C26.4538 55.2298 25.9856 55.0876 25.6097 54.7989C25.2337 54.5101 24.9755 54.0945 24.8833 53.6295C24.6371 52.8539 24.4996 52.0479 24.4746 51.2345C24.5237 48.3164 24.6626 45.3982 24.7648 42.4801L24.4746 42.4392ZM28.2388 51.7045C28.909 51.8516 29.0562 51.9211 29.1338 51.8925C32.7222 50.834 36.3351 49.849 39.8827 48.6719C43.3199 47.5357 46.7325 46.3055 50.0757 44.9241C53.3167 43.5918 56.4637 42.0264 59.6393 40.5388C60.5987 40.1082 61.5309 39.6196 62.4308 39.0756C62.9821 38.6455 63.4912 38.1637 63.9512 37.637C62.6801 36.5907 61.6256 35.6711 60.5181 34.821C59.7007 34.1794 58.7892 33.6235 57.9228 33.0309C50.2065 27.7546 41.4971 24.6729 32.7467 21.6894C31.5206 21.2807 30.2945 20.9415 28.9295 21.342C28.014 23.6062 28.1775 25.989 28.1488 28.2695C28.0385 36.0757 27.7606 43.8942 28.2388 51.7045Z" fill="#F93E3E"/>
</svg>
