<svg width="419" height="395" fill="none" xmlns="http://www.w3.org/2000/svg"><path d="M262.808 68.766l.43-60.5c.63-2.12 3.093-3.18 7.39-3.18 3.953 0 7.591.544 10.914 1.633 3.323 1.031 6.102 2.807 8.336 5.328 2.292 2.463 3.438 5.443 3.438 8.937 0 2.75-.688 5.414-2.063 7.993-1.318 2.578-2.95 4.24-4.898 4.984 3.666.516 6.617 2.721 8.851 6.617 2.235 3.896 3.352 8.508 3.352 13.836 0 3.61-1.432 6.76-4.297 9.453-2.865 2.636-6.216 4.555-10.055 5.758a39.502 39.502 0 01-11.515 1.719c-4.756 0-8.05-.86-9.883-2.578zm7.047-30.079c0 3.954-.058 11.889-.172 23.805 1.719 1.948 3.924 2.922 6.617 2.922 3.552 0 6.99-1.46 10.313-4.383 3.322-2.979 4.984-6.159 4.984-9.539 0-4.182-1.404-7.448-4.211-9.797-2.807-2.349-6.417-3.523-10.828-3.523-2.922 0-5.156.172-6.703.516zm-.172-6.359l5.328-.086c3.667 0 6.474-1.06 8.422-3.18 2.005-2.177 3.008-4.755 3.008-7.734 0-3.036-1.003-5.643-3.008-7.82-2.005-2.235-4.784-3.352-8.336-3.352-1.604 0-3.495.344-5.672 1.031.115 3.495.172 7.82.172 12.977.057 5.156.086 7.878.086 8.164zm90.2 36.781l.258 3.266c-3.037.917-5.93 1.375-8.68 1.375-2.635 0-4.898-.716-6.789-2.148-1.833-1.375-3.237-3.123-4.211-5.243a234.975 234.975 0 01-2.836-6.875 258.062 258.062 0 00-2.664-6.875c-.802-2.12-2.005-3.867-3.609-5.242-1.605-1.432-3.524-2.148-5.758-2.148l.859 25.265c-.515 1.776-1.518 2.664-3.008 2.664-1.031 0-2.034-.43-3.007-1.289-.917-.859-1.49-1.89-1.719-3.093.057-1.204.258-10.886.601-29.047.344-18.219.602-28.76.774-31.625l3.867.86c.057 2.176.229 6.273.516 12.288.286 5.959.458 9.998.515 12.117 2.464-.057 4.555-.974 6.274-2.75 1.776-1.833 3.208-4.039 4.297-6.617A960.561 960.561 0 01339 16.344c1.146-2.578 2.635-4.756 4.469-6.532 1.89-1.833 4.125-2.75 6.703-2.75 1.948 0 5.242.43 9.883 1.29l-.86 3.437c-3.552-.573-5.586-.86-6.101-.86-2.005 0-3.696.831-5.071 2.493-1.375 1.661-2.52 3.752-3.437 6.273a231.681 231.681 0 01-3.008 7.649c-1.088 2.578-2.693 4.956-4.812 7.133-2.12 2.177-4.727 3.638-7.821 4.382 2.75.63 5.128 1.862 7.133 3.696 2.005 1.833 3.495 3.895 4.469 6.187a130.495 130.495 0 012.836 7.305c.916 2.52 1.719 4.812 2.406 6.875.688 2.062 1.633 3.781 2.836 5.156 1.26 1.375 2.779 2.063 4.555 2.063 1.718 0 3.953-.344 6.703-1.032zm8.903 9.97l-2.492-4.47c3.151-2.12 5.844-4.554 8.078-7.304 2.234-2.808 3.982-5.586 5.242-8.336 1.26-2.808 2.263-5.987 3.008-9.54.745-3.551 1.203-6.817 1.375-9.796.229-3.037.344-6.531.344-10.485 0-2.062.057-5.242.172-9.539.171-4.354.257-7.677.257-9.968 1.662-.287 4.211-.43 7.649-.43 1.432 0 3.609.057 6.531.172 2.922.057 5.128.086 6.617.086 2.75 0 5.271-.115 7.563-.344.687 3.838 1.031 9.854 1.031 18.047 0 2.177-.029 5.614-.086 10.312-.057 4.641-.086 8.164-.086 10.57 0 9.396.401 17.13 1.203 23.204-.515 1.776-1.489 2.664-2.922 2.664-1.031 0-2.034-.43-3.007-1.29-.974-.801-1.576-1.804-1.805-3.007.114-4.469.172-7.878.172-10.227 0-3.323-.086-8.536-.258-15.64-.115-7.104-.172-12.604-.172-16.5 0-5.271.057-9.195.172-11.774-1.375-.114-3.753-.2-7.133-.257-3.38-.058-5.958-.201-7.734-.43-.516 2.979-.946 6.875-1.289 11.687-.287 4.756-.545 8.995-.774 12.72-.172 3.666-.687 7.733-1.547 12.202-.802 4.412-1.919 8.25-3.351 11.516-1.375 3.266-3.495 6.36-6.36 9.281-2.807 2.98-6.273 5.271-10.398 6.875z" fill="#F93E3E"/><g clip-path="url(#prefix__clip0_453_973)" fill="#F93E3E"><path d="M315.083 129.921c7.042-8.655 10.923-21.043 15.817-30.937 1.377-2.386-.801-4.28-2.76-1.594-5.815 9.363-12.118 20.989-15.817 30.937-.489 2.263 1.351 3.326 2.76 1.594zM273.755 182.384c8.149-4.199 15.128-14.162 19.779-22.925 1.102-1.909-.739-2.971-1.84-1.063a104.112 104.112 0 01-9.552 12.294c-3.123 3.285-6.278 5.916-9.401 9.201-1.439 1.077-.732 3.393 1.014 2.493zM220.914 218.66c3.862-.314 8.518-2.714 12.562-5.468 4.074-2.099 8.393-5.33 12.13-8.261 1.439-1.077 1.039-3.216-.401-2.139-4.043 2.754-8.118 4.853-11.917 6.476-4.075 2.1-8.212 2.891-12.287 4.991-2.052.722-2.171 4.469-.087 4.401zM196.392 217.223c2.36-.546 3.062-4.594.701-4.047-2.084.068-4.75.437-6.834.506-2.698-.286-4.569-2.003-7.235-1.634-1.196-.055-2.573 2.331-1.928 3.339 1.996 4.333 10.27 2.75 15.296 1.836zM150.62 207.966c3.067 1.771 6.133 3.542 9.444 4.181 1.809.409 3.462-2.454 1.928-3.339-2.484-2.07-4.938-3.487-7.698-5.081-2.76-1.593-4.97-4.141-8.556-4.303-1.502-.231-3.43 3.108-2.479 4.293 1.902 2.371 4.631 3.311 7.361 4.249zM130.241 180.936c-1.966-3.679-3.931-7.358-5.345-11.99-1.384-3.979-2.216-8.912-5.007-11.16-1.258-1.362-3.493 1.8-3.705 3.585-.057 5.056 2.521 9.09 4.487 12.768 1.69 4.156 3.93 7.357 6.446 10.082 1.565 1.539 4.382-1.924 3.124-3.285zM119.02 145.837c-.494-4.101-1.296-8.38-1.483-12.304-.094-1.962.087-4.402.575-6.664.489-2.262 1.04-3.216.639-5.355-.369-1.486-2.147-1.24-3.28.014-3.092 3.939-2.535 9.349-2.347 13.273.526 4.756 1.908 8.734 3.598 12.89.645 1.009 2.667-.368 2.298-1.854zM132.56 104.681c.15-3.093.882-6.486 2.535-9.348 1.377-2.385 3.336-5.07 3.211-7.687-.063-1.308-.983-1.84-2.147-1.24-5.82 3-7.035 15.02-6.234 19.299.369 1.485 2.422.763 2.635-1.024zM156.625 77.87c2.51-3.64 5.602-7.578 8.725-10.863 3.705-3.585 6.954-4.254 10.785-5.222 2.053-.723 3.399-3.762 1.834-5.301-8.005-5.258-18.903 10.075-23.491 20.147-.52 1.608 1.321 2.67 2.147 1.24zM190.637 65.705c6.803-1.16 10.853 2.45 16.586 3.852 1.502.23 3.154-2.631 2.203-3.816-4.387-4.441-11.285-5.243-18.332-2.952-1.471.423-1.96 2.686-.457 2.916zM242.286 98.066c-.256-11.596-6.822-17.931-14.151-21.526-1.226-.709-3.154 2.63-1.928 3.339 6.165 4.195 10.954 10.776 12.586 19.987.126 2.617 3.618.817 3.493-1.8zM248.393 138.486c2.197-10.18.839-19.869-1.345-28.126-.401-2.139-3.555.492-2.879 2.154 1.295 8.38.844 17.66.976 26.64.125 2.617 2.76 1.593 3.248-.668zM249.933 176.897c3.856-6.678 4.582-16.435 3.994-22.499-.125-2.616-3.618-.817-3.493 1.8.157 3.27-.269 6.84-1.002 10.234-.732 3.393-2.046 7.086-2.472 10.657-.213 1.785 2.147 1.239 2.973-.192zM225.909 248.257c2.203-3.816 3.486-8.163 5.383-12.156 2.14-5.125 4.588-10.072 5.84-15.073.763-2.74-1.934-3.025-3.005-.463-1.865 4.647-4.312 9.595-6.484 14.065-1.897 3.993-4.651 8.763-5.045 12.988-.764 2.739 1.934 3.023 3.311.639zM204.465 292.481c4.5-5.67 7.986-13.834 11.535-20.689 1.377-2.385-.769-3.625-2.146-1.24-4.163 6.502-9.214 13.126-12.15 20.335-1.069 2.561 1.077 3.801 2.761 1.594zM177.319 335.959c2.541-2.985 4.162-6.501 6.091-9.841 1.927-3.339 4.131-7.155 5.752-10.672 1.377-2.385-1.076-3.801-2.454-1.416-1.927 3.339-4.131 7.156-6.365 10.317-1.928 3.339-4.162 6.501-5.477 10.195-1.102 1.908.738 2.971 2.453 1.417z"/><path d="M153.541 375.018c7.567-3.899 14.827-7.975 22.056-12.705 5.208-3.354 13.939-7.854 17.213-14.232 1.377-2.385.639-5.356-1.721-4.81-4.719 1.092-10.415 6.707-14.734 9.938-5.483 3.831-11.579 7.307-17.676 10.784 3.055-10.957 5.19-22.445 7.355-33.279.733-3.393-3.742-3.433-5.057.261-4.432 13.342-5.584 26.669-11.211 39.957-1.345 3.039 1.139 5.11 3.775 4.086z"/></g><defs><clipPath id="prefix__clip0_453_973"><path fill="#fff" transform="rotate(120 144.051 154.814)" d="M0 0h331.331v213.022H0z"/></clipPath></defs></svg>