<svg width="40" height="40" viewBox="0 0 40 40" fill="none" xmlns="http://www.w3.org/2000/svg">
<g clip-path="url(#clip0_258_414)">
<rect width="40" height="40" rx="20" fill="#A6FF00" fill-opacity="0.16"/>
<path d="M-11.5798 16.6384L-13.62 18.3307C-16.9952 21.1304 -18.9482 25.2879 -18.9482 29.6732V30.9552C-18.9482 40.6013 -11.1285 48.4211 -1.48239 48.4211H42.6242C49.3133 48.4211 54.736 42.9984 54.736 36.3093V24.3044C54.736 18.8237 48.3497 15.8237 44.1313 19.3228C41.7351 21.3105 38.2632 21.3105 35.8669 19.3228L32.6307 16.6384C28.3578 13.094 22.1668 13.094 17.8939 16.6384C13.6209 20.1828 7.42996 20.1828 3.15702 16.6384C-1.11592 13.094 -7.30689 13.094 -11.5798 16.6384Z" fill="url(#paint0_linear_258_414)"/>
<path fill-rule="evenodd" clip-rule="evenodd" d="M25.3333 2.66667H14.6667C8.03925 2.66667 2.66667 8.03925 2.66667 14.6667V25.3333C2.66667 31.9608 8.03925 37.3333 14.6667 37.3333H25.3333C31.9608 37.3333 37.3333 31.9608 37.3333 25.3333V14.6667C37.3333 8.03925 31.9608 2.66667 25.3333 2.66667ZM14.6667 0C6.56649 0 0 6.56649 0 14.6667V25.3333C0 33.4335 6.56649 40 14.6667 40H25.3333C33.4335 40 40 33.4335 40 25.3333V14.6667C40 6.56649 33.4335 0 25.3333 0H14.6667Z" fill="url(#paint1_linear_258_414)"/>
</g>
<defs>
<linearGradient id="paint0_linear_258_414" x1="13.9997" y1="16" x2="17.8939" y2="48.4211" gradientUnits="userSpaceOnUse">
<stop stop-color="#D9FFA1"/>
<stop offset="0.305696" stop-color="#BBEC53"/>
<stop offset="0.918335" stop-color="#68F90D"/>
</linearGradient>
<linearGradient id="paint1_linear_258_414" x1="16" y1="2.08616e-07" x2="20" y2="40" gradientUnits="userSpaceOnUse">
<stop stop-color="white" stop-opacity="0.16"/>
<stop offset="1" stop-color="#CEFF66"/>
</linearGradient>
<clipPath id="clip0_258_414">
<rect width="40" height="40" rx="14" fill="white"/>
</clipPath>
</defs>
</svg>
