<svg xmlns="http://www.w3.org/2000/svg" fill="none" viewBox="0 0 40 40"><g clip-path="url(#a)"><rect width="40" height="40" fill="#A6FF00" fill-opacity=".16" rx="20"/><path fill="url(#b)" d="m-11.58 16.638-2.04 1.693a14.737 14.737 0 0 0-5.328 11.342v1.282c0 9.646 7.82 17.466 17.466 17.466h44.106c6.69 0 12.112-5.423 12.112-12.112V24.304c0-5.48-6.386-8.48-10.605-4.981a6.472 6.472 0 0 1-8.264 0l-3.236-2.685a11.541 11.541 0 0 0-14.737 0 11.541 11.541 0 0 1-14.737 0 11.541 11.541 0 0 0-14.737 0Z"/><path fill="url(#c)" fill-rule="evenodd" d="M25.333 2.667H14.667c-6.628 0-12 5.372-12 12v10.666c0 6.628 5.372 12 12 12h10.666c6.628 0 12-5.372 12-12V14.667c0-6.628-5.372-12-12-12ZM14.667 0C6.567 0 0 6.566 0 14.667v10.666C0 33.433 6.566 40 14.667 40h10.666C33.433 40 40 33.434 40 25.333V14.667C40 6.567 33.434 0 25.333 0H14.667Z" clip-rule="evenodd"/></g><defs><linearGradient id="b" x1="14" x2="17.894" y1="16" y2="48.421" gradientUnits="userSpaceOnUse"><stop stop-color="#D9FFA1"/><stop offset=".306" stop-color="#BBEC53"/><stop offset=".918" stop-color="#68F90D"/></linearGradient><linearGradient id="c" x1="16" x2="20" y1="0" y2="40" gradientUnits="userSpaceOnUse"><stop stop-color="#fff" stop-opacity=".16"/><stop offset="1" stop-color="#CEFF66"/></linearGradient><clipPath id="a"><rect width="40" height="40" fill="#fff" rx="14"/></clipPath></defs></svg>