<svg xmlns="http://www.w3.org/2000/svg" fill="none" viewBox="0 0 98 32"><path fill="#fff" d="M86.203 25.2c-1.125 0-2.105-.157-2.941-.47-.836-.312-1.485-.765-1.946-1.359-.453-.594-.68-1.316-.68-2.168v-.012c0-.757.204-1.418.61-1.98.406-.563 1.043-1.004 1.91-1.324.867-.32 2.004-.496 3.41-.528l7.23-.14v2.343l-6.374.141c-.68.016-1.176.129-1.488.34-.313.203-.47.484-.47.844v.011c0 .461.216.805.645 1.032.43.218 1 .328 1.711.328.711 0 1.325-.094 1.84-.281.524-.188.926-.454 1.207-.797.29-.352.434-.766.434-1.242v-2.989c0-.586-.235-1.043-.703-1.37-.47-.329-1.145-.493-2.028-.493-.757 0-1.355.117-1.793.351-.437.227-.715.532-.832.915l-.035.093h-4.629l.035-.14a4.54 4.54 0 0 1 1.125-2.274c.602-.664 1.422-1.18 2.461-1.547 1.047-.375 2.313-.562 3.797-.562 1.57 0 2.918.2 4.043.598 1.133.398 2 .976 2.602 1.734.601.75.902 1.656.902 2.719V25h-4.945v-2.004h-.094a4.172 4.172 0 0 1-1.16 1.184 5.738 5.738 0 0 1-1.7.761 8.36 8.36 0 0 1-2.144.258ZM63.598 25V7.973h4.957V25h-4.957Zm10.687 0-4.98-5.684 3.34-2.964 7.5 8.648h-5.86Zm-6.246-3.363-.012-4.57h.61l5.46-4.84h5.708l-7.63 6.726-1.312.352-2.824 2.332ZM45.879 25V7.973h4.957V25h-4.957Zm10.687 0-4.98-5.684 3.34-2.964 7.5 8.648h-5.86Zm-6.246-3.363-.011-4.57h.609l5.46-4.84h5.708l-7.629 6.726-1.313.352-2.824 2.332ZM35.473 25.316c-1.72 0-3.211-.27-4.477-.808-1.265-.54-2.242-1.309-2.93-2.309-.687-1-1.03-2.191-1.03-3.574v-.023c0-1.368.343-2.551 1.03-3.551.696-1 1.676-1.77 2.942-2.309 1.265-.547 2.754-.82 4.465-.82 1.71 0 3.195.273 4.453.82 1.265.54 2.246 1.309 2.941 2.309.696.992 1.043 2.176 1.043 3.55v.024c0 1.383-.347 2.574-1.043 3.574-.687 1-1.664 1.77-2.93 2.309-1.257.539-2.746.808-4.464.808Zm0-3.375c.68 0 1.273-.128 1.78-.386a2.845 2.845 0 0 0 1.196-1.137c.282-.492.422-1.09.422-1.793v-.023c0-.696-.144-1.29-.434-1.782a2.788 2.788 0 0 0-1.183-1.125c-.508-.265-1.102-.398-1.781-.398-.68 0-1.278.133-1.793.398a2.861 2.861 0 0 0-1.196 1.125c-.28.492-.422 1.086-.422 1.782v.023c0 .703.141 1.305.422 1.805.29.492.688.867 1.196 1.125s1.105.386 1.793.386ZM1.477 25V8.09h6.07l5.566 11.414h.094L18.762 8.09h6.082V25H20.19V14.36h-1.91l3.399-3.563L14.836 25h-3.363L4.629 10.797l3.398 3.562H6.13V25H1.477Z"/></svg>