<svg xmlns="http://www.w3.org/2000/svg" viewBox="0 0 154 40"><g clip-path="url(#a)"><rect width="40" height="40" fill="#A6FF00" fill-opacity=".16" rx="20"/><path fill="url(#b)" d="m-11.58 16.638-2.04 1.692a14.737 14.737 0 0 0-5.328 11.343v1.282c0 9.646 7.82 17.466 17.466 17.466h44.106c6.69 0 12.112-5.423 12.112-12.112V24.304c0-5.48-6.386-8.48-10.605-4.981a6.472 6.472 0 0 1-8.264 0l-3.236-2.685a11.541 11.541 0 0 0-14.737 0 11.542 11.542 0 0 1-14.737 0 11.541 11.541 0 0 0-14.737 0Z"/><path fill="url(#c)" fill-rule="evenodd" d="M25.333 2.667H14.667c-6.628 0-12 5.372-12 12v10.666c0 6.628 5.372 12 12 12h10.666c6.628 0 12-5.372 12-12V14.667c0-6.628-5.372-12-12-12ZM14.667 0C6.567 0 0 6.566 0 14.667v10.666C0 33.433 6.566 40 14.667 40h10.666C33.433 40 40 33.434 40 25.333V14.667C40 6.567 33.434 0 25.333 0H14.667Z" clip-rule="evenodd"/></g><path fill="#fff" d="M57.477 29V12.09h6.07l5.566 11.414h.094l5.555-11.414h6.082V29H76.19V18.36h-1.91l3.399-3.563L70.836 29h-3.363l-6.844-14.203 3.398 3.562H62.13V29h-4.652Zm33.996.316c-1.72 0-3.211-.27-4.477-.808-1.265-.54-2.242-1.309-2.93-2.309-.687-1-1.03-2.191-1.03-3.574v-.023c0-1.368.343-2.551 1.03-3.551.696-1 1.676-1.77 2.942-2.309 1.265-.547 2.754-.82 4.465-.82 1.71 0 3.195.273 4.453.82 1.265.54 2.246 1.309 2.941 2.309.695.992 1.043 2.176 1.043 3.55v.024c0 1.383-.347 2.574-1.043 3.574-.687 1-1.664 1.77-2.93 2.309-1.257.539-2.746.808-4.464.808Zm0-3.375c.68 0 1.273-.128 1.78-.386a2.845 2.845 0 0 0 1.196-1.137c.282-.492.422-1.09.422-1.793v-.023c0-.696-.144-1.29-.433-1.782a2.788 2.788 0 0 0-1.184-1.125c-.508-.265-1.102-.398-1.781-.398-.68 0-1.278.133-1.793.398a2.861 2.861 0 0 0-1.196 1.125c-.28.492-.421 1.086-.421 1.782v.023c0 .703.14 1.305.421 1.805.29.492.688.867 1.196 1.125.507.258 1.105.386 1.793.386ZM101.879 29V11.973h4.957V29h-4.957Zm10.687 0-4.98-5.684 3.34-2.964 7.5 8.648h-5.86Zm-6.246-3.363-.011-4.57h.609l5.461-4.84h5.707l-7.629 6.726-1.312.352-2.825 2.332ZM119.598 29V11.973h4.957V29h-4.957Zm10.687 0-4.98-5.684 3.34-2.964 7.5 8.648h-5.86Zm-6.246-3.363-.012-4.57h.61l5.461-4.84h5.707l-7.629 6.726-1.313.352-2.824 2.332Zm18.164 3.562c-1.125 0-2.105-.156-2.941-.469-.836-.312-1.485-.765-1.946-1.359-.453-.594-.679-1.316-.679-2.168v-.012c0-.757.203-1.418.609-1.98.406-.563 1.043-1.004 1.91-1.324.867-.32 2.004-.496 3.41-.528l7.231-.14v2.343l-6.375.141c-.68.016-1.176.129-1.488.34-.313.203-.469.484-.469.844v.011c0 .461.215.805.644 1.032.43.218 1 .328 1.711.328.711 0 1.325-.094 1.84-.281.524-.188.926-.454 1.207-.797.289-.352.434-.766.434-1.242v-2.989c0-.586-.235-1.043-.703-1.37-.469-.329-1.145-.493-2.028-.493-.758 0-1.355.117-1.793.352-.437.226-.715.53-.832.914l-.035.093h-4.629l.035-.14a4.55 4.55 0 0 1 1.125-2.274c.602-.664 1.422-1.18 2.461-1.547 1.047-.375 2.313-.562 3.797-.562 1.571 0 2.918.2 4.043.598 1.133.398 2 .976 2.602 1.734.601.75.902 1.656.902 2.719V29h-4.945v-2.004h-.094a4.176 4.176 0 0 1-1.16 1.184 5.749 5.749 0 0 1-1.699.761 8.368 8.368 0 0 1-2.145.258Z"/><defs><linearGradient id="b" x1="14" x2="17.894" y1="16" y2="48.421" gradientUnits="userSpaceOnUse"><stop stop-color="#D9FFA1"/><stop offset=".306" stop-color="#BBEC53"/><stop offset=".918" stop-color="#68F90D"/></linearGradient><linearGradient id="c" x1="16" x2="20" y1="0" y2="40" gradientUnits="userSpaceOnUse"><stop stop-color="#fff" stop-opacity=".16"/><stop offset="1" stop-color="#CEFF66"/></linearGradient><clipPath id="a"><rect width="40" height="40" fill="#fff" rx="14"/></clipPath></defs></svg>