<svg xmlns="http://www.w3.org/2000/svg" fill="none" viewBox="0 0 201 53"><g clip-path="url(#a)"><path fill="#030650" d="M6.053 5.604H0V1.115h17.607v4.461h-6.003v15.485H6.053V5.604ZM40.294 1.115v19.946H34.73v-7.773h-7.588v7.773H21.58V1.115h5.563v7.506h7.587V1.115h5.564ZM61.901 16.729v4.355H46.109V1.114h15.407v4.372h-9.904v3.346h8.737v4.21h-8.732v3.686h10.284ZM69.148 20.866a11.476 11.476 0 0 1-3.67-1.595l1.827-4.16c.948.623 1.98 1.102 3.065 1.422 1.108.36 2.264.547 3.427.558 2.135 0 3.203-.541 3.203-1.623a1.352 1.352 0 0 0-.255-.783 1.322 1.322 0 0 0-.658-.483 17.009 17.009 0 0 0-2.906-.886 27.696 27.696 0 0 1-3.725-1.049 6.227 6.227 0 0 1-2.553-1.778 4.843 4.843 0 0 1-1.067-3.307 5.77 5.77 0 0 1 .98-3.279 6.55 6.55 0 0 1 2.937-2.32 11.87 11.87 0 0 1 4.793-.858c1.285 0 2.566.149 3.819.44 1.158.263 2.271.7 3.3 1.3L79.95 6.647a11.357 11.357 0 0 0-5.447-1.534 4.516 4.516 0 0 0-2.421.497 1.49 1.49 0 0 0-.548.544 1.515 1.515 0 0 0-.206.75c.006.27.096.53.257.746.16.215.385.373.64.452.942.365 1.917.64 2.91.82 1.264.257 2.51.604 3.726 1.037a6.462 6.462 0 0 1 2.575 1.779 4.757 4.757 0 0 1 1.1 3.29 5.674 5.674 0 0 1-.985 3.245 6.71 6.71 0 0 1-2.949 2.32 11.78 11.78 0 0 1-4.776.87 18.095 18.095 0 0 1-4.677-.597ZM157.367 19.043c-1.625-1.61-2.436-3.898-2.432-6.865V1.115h5.563V11.99c0 3.19 1.245 4.784 3.736 4.784 2.49 0 3.726-1.595 3.708-4.784V1.115h5.502v11.063c0 2.974-.809 5.262-2.426 6.864-1.618 1.603-3.891 2.41-6.817 2.42-2.945 0-5.224-.806-6.834-2.42ZM177.956 1.115h5.563v15.48h9.381v4.46h-14.944V1.115ZM15.506 31.996a6.962 6.962 0 0 1 3.063 2.592 7.1 7.1 0 0 1 1.148 3.873 7.1 7.1 0 0 1-1.148 3.874 6.962 6.962 0 0 1-3.063 2.592 11.098 11.098 0 0 1-4.633.898H7.445v5.208H1.882V31.098h8.99c1.59-.037 3.17.27 4.634.898Zm-2.388 8.632a2.71 2.71 0 0 0 .87-2.152 2.739 2.739 0 0 0-.193-1.182 2.706 2.706 0 0 0-.677-.982 3.817 3.817 0 0 0-2.587-.77H7.445v5.839h3.086a3.853 3.853 0 0 0 2.587-.753ZM26.257 49.009c-1.621-1.61-2.432-3.896-2.432-6.859V31.098h5.563v10.88c0 3.189 1.245 4.784 3.736 4.784 2.49 0 3.727-1.595 3.709-4.785V31.098h5.502V42.15c0 2.974-.81 5.26-2.432 6.859-1.621 1.598-3.9 2.407-6.834 2.425-2.92 0-5.19-.808-6.812-2.425ZM65.72 42.507c.647.883.982 1.962.952 3.061a4.645 4.645 0 0 1-.506 2.31 4.573 4.573 0 0 1-1.574 1.75c-1.387.948-3.39 1.422-6.008 1.422H47.958V31.098h10.059c2.516 0 4.427.47 5.733 1.41a4.44 4.44 0 0 1 1.466 1.646c.345.665.518 1.407.504 2.158a4.8 4.8 0 0 1-.688 2.548 4.83 4.83 0 0 1-1.953 1.779 5.537 5.537 0 0 1 2.641 1.868Zm-12.254-7.333v3.859h3.852c1.87 0 2.806-.645 2.806-1.935s-.935-1.925-2.806-1.907l-3.852-.017Zm7.61 9.764c0-1.334-.981-2.002-2.944-2.002h-4.666v4.043h4.666c1.963-.011 2.944-.691 2.944-2.04ZM71.448 31.098h5.585v15.463h9.353v4.46H71.448V31.099ZM90.47 31.098h5.568v19.935h-5.569V31.098ZM104.154 50.832a11.217 11.217 0 0 1-3.654-1.595l1.843-4.154a11.923 11.923 0 0 0 3.065 1.422c1.109.36 2.264.547 3.428.558 2.135 0 3.202-.541 3.202-1.623a1.346 1.346 0 0 0-.254-.783 1.324 1.324 0 0 0-.659-.483 16.998 16.998 0 0 0-2.938-.87 28.544 28.544 0 0 1-3.709-1.037 6.28 6.28 0 0 1-2.553-1.779 4.842 4.842 0 0 1-1.067-3.306 5.78 5.78 0 0 1 .979-3.29 6.618 6.618 0 0 1 2.938-2.32c1.524-.61 3.155-.9 4.793-.853a16.577 16.577 0 0 1 3.818.44c1.159.261 2.272.697 3.302 1.294l-1.689 4.171a11.31 11.31 0 0 0-5.448-1.539 4.513 4.513 0 0 0-2.421.502 1.49 1.49 0 0 0-.754 1.294c.007.27.097.53.258.746.161.215.385.373.639.453.938.363 1.907.64 2.895.825 1.264.258 2.508.604 3.725 1.037.98.37 1.857.976 2.553 1.768a4.747 4.747 0 0 1 1.1 3.284 5.67 5.67 0 0 1-.985 3.25 6.745 6.745 0 0 1-2.949 2.32 11.778 11.778 0 0 1-4.776.87 17.85 17.85 0 0 1-4.682-.602ZM140.656 31.098v19.935h-5.563V43.26h-7.588v7.773h-5.563V31.098h5.563v7.495h7.588v-7.495h5.563ZM146.472 31.098h5.562v19.935h-5.562V31.098ZM176.592 31.098v19.935h-4.579l-8.682-10.595v10.595h-5.453V31.098h4.578l8.682 10.595V31.098h5.454ZM195.586 40.64h4.919v8.257a12.837 12.837 0 0 1-3.852 1.88 15.318 15.318 0 0 1-4.402.657 11.632 11.632 0 0 1-5.563-1.327 9.87 9.87 0 0 1-3.851-3.685 10.905 10.905 0 0 1 0-10.707 9.802 9.802 0 0 1 3.906-3.691c1.749-.9 3.69-1.355 5.652-1.322 1.697-.03 3.381.291 4.952.943A9.497 9.497 0 0 1 201 34.349l-3.537 3.246a6.254 6.254 0 0 0-2.146-1.65 6.167 6.167 0 0 0-2.631-.58 5.236 5.236 0 0 0-2.207.335 5.284 5.284 0 0 0-1.874 1.226 5.382 5.382 0 0 0-1.211 1.9 5.441 5.441 0 0 0-.331 2.237 6.077 6.077 0 0 0 .704 2.944 5.058 5.058 0 0 0 1.969 2.024 5.69 5.69 0 0 0 2.895.725 7.034 7.034 0 0 0 3.004-.652l-.049-5.465Z"/><path fill="url(#b)" d="M96.29 0h12.711v22.193h-12.71c-2.905 0-5.69-1.169-7.743-3.25a11.173 11.173 0 0 1-3.207-7.847c0-2.942 1.153-5.765 3.207-7.846A10.877 10.877 0 0 1 96.29 0Z"/><path fill="url(#c)" d="M110.162 0h13.64v22.193h-13.64a10.875 10.875 0 0 1-7.742-3.25 11.17 11.17 0 0 1-3.208-7.847 11.17 11.17 0 0 1 3.208-7.846A10.875 10.875 0 0 1 110.162 0Z"/><path fill="url(#d)" d="M139.566 0h-15.533c-2.904 0-5.689 1.17-7.742 3.25a11.171 11.171 0 0 0-3.208 7.847c0 2.943 1.154 5.765 3.208 7.846a10.875 10.875 0 0 0 7.742 3.25h15.533c2.904 0 5.689-1.169 7.743-3.25a11.174 11.174 0 0 0 3.207-7.847c0-2.942-1.154-5.765-3.207-7.846A10.879 10.879 0 0 0 139.566 0Zm3.698 15.714a5.34 5.34 0 0 1-1.785 1.295 5.28 5.28 0 0 1-4.298 0 5.334 5.334 0 0 1-1.786-1.295 6.52 6.52 0 0 1-1.529-4.461 6.505 6.505 0 0 1 1.546-4.461 5.255 5.255 0 0 1 1.77-1.312 5.194 5.194 0 0 1 6.06 1.312 6.456 6.456 0 0 1 1.568 4.46 6.5 6.5 0 0 1-1.546 4.462Z"/></g><defs><linearGradient id="b" x1="85.341" x2="109.001" y1="11.097" y2="11.097" gradientUnits="userSpaceOnUse"><stop stop-color="#BC07E3"/><stop offset="1" stop-color="#2E45B9"/></linearGradient><linearGradient id="c" x1="99.212" x2="123.775" y1="11.097" y2="11.097" gradientUnits="userSpaceOnUse"><stop stop-color="#08DFE2"/><stop offset="1" stop-color="#4D38C3"/></linearGradient><linearGradient id="d" x1="113.083" x2="150.516" y1="11.097" y2="11.097" gradientUnits="userSpaceOnUse"><stop stop-color="#FF01C1"/><stop offset="1" stop-color="#FFB00B"/></linearGradient><clipPath id="a"><path fill="#fff" d="M0 0h201v53H0z"/></clipPath></defs></svg>