<svg xmlns="http://www.w3.org/2000/svg" fill="none" viewBox="0 0 192 182"><path fill="#000" d="M158.74 20.29c.31-15.31-19-23.71-30.2-12.24a16.908 16.908 0 0 0-4.9 12.24c.46 23.29 34.64 23.29 35.1 0Zm-27.89 10a13.748 13.748 0 0 1-4-10c.37-19 28.31-19 28.69 0 .24 12.52-15.54 19.38-24.69 10Z"/><path fill="#000" d="M141.141 9.1a.909.909 0 0 0 .94-.94.955.955 0 0 0-.582-.886.95.95 0 1 0-.358 1.826Zm0 20.9a.91.91 0 0 0-.94.94.954.954 0 0 0 .581.886.95.95 0 1 0 .359-1.826Zm-12.02-11.46a.995.995 0 0 0-.688.95.997.997 0 0 0 .688.95.996.996 0 0 0 .687-.95.997.997 0 0 0-.687-.95Zm24 1.9a.947.947 0 0 0 .878-.569.944.944 0 0 0-.178-1.032.948.948 0 0 0-1.64.601.914.914 0 0 0 .94 1Zm-6.27 5.03c-.85-.44-3.7-2.07-4.23-2.37a1.462 1.462 0 0 0-.318-1.159 1.453 1.453 0 0 0-1.082-.521c0-1.26-.06-8.62.05-10.44a.293.293 0 0 0-.285-.236.287.287 0 0 0-.285.236c-.2 1.91-.33 9.54-.3 10.64-.23.13-.421.32-.552.548a1.498 1.498 0 0 0 1.705 2.186c.297-.083.561-.256.757-.494 4.62 2.28 4.32 2.15 4.41 2.15a.28.28 0 0 0 .13-.54Zm-13.85-14.14c-.24-.29-.73.08-.49.39a25.38 25.38 0 0 0 2 2.59.388.388 0 0 0 .55-.219.387.387 0 0 0 .01-.221 24.751 24.751 0 0 0-2.07-2.54Zm16.25 15.31a.38.38 0 0 0-.55.44 13.717 13.717 0 0 0 1.66 2.05c.45.51.47.59.65.59a.318.318 0 0 0 .328-.326.325.325 0 0 0-.048-.164 24.91 24.91 0 0 0-2.04-2.59Zm.93-15.27a.321.321 0 0 0-.347-.44.317.317 0 0 0-.193.11 24.712 24.712 0 0 0-1.78 2.71.395.395 0 0 0 .208.425c.05.026.105.042.162.045.38 0 .77-.89 1.95-2.85Zm-15.82 16.15a25.047 25.047 0 0 0-1.73 2.81.316.316 0 0 0-.01.222.318.318 0 0 0 .55.108 27.853 27.853 0 0 0 1.76-2.73.384.384 0 0 0-.148-.395.38.38 0 0 0-.422-.015Zm-115.99-7.04a.15.15 0 0 0 .22.08l2.07-1.24c.16-.1.23.19-2.35-5.89-.08-.19-.09-.13-1.93.66-.19.08-.23-.34 1.99 6.39Zm3.19-1.4c2-.82 2-.78 2-1-1.06-3-1-3-1.23-2.95-1.91.81-1.91.75-1.85.92.89 2.95.86 3.12 1.08 3.03Zm3.1-.98c1.81-.48 1.87-.45 1.85-.63l-.46-3.16a.16.16 0 0 0-.22-.11c-2.08 1-2.11 1-2.06 1.13.73 2.76.68 2.82.89 2.77ZM27 15.33c.48 1.73.44 1.83.65 1.77 1.43-.41 1.49-.4 1.54-.5.05-.1 0-.11-.56-1.75-.06-.18-.12-.11-1.53.3a.15.15 0 0 0-.1.18Z"/><path fill="#000" d="M31.52 17.82c0-.11-.73-11-.83-12.06a.43.43 0 0 0-.55-.58C27.73 6.25 12.83 11.63 11.49 12a.349.349 0 0 0-.21.51c.05.09 5.22 9.42 5.5 11.75a.34.34 0 0 0 .4.36A74.201 74.201 0 0 0 30.94 20a2.151 2.151 0 0 0 .58-2.18ZM30 6.11c.09 2.08.86 12.41.72 13-.11.27-.35.42-.89.68-.36.18-10.09 3.62-12.5 4.21-.43-2.23-4.17-9.22-5.26-11.36C17 11.23 28.08 6.92 30 6.11Zm1.57 18.01a.33.33 0 0 0-.17-.63c-1.12.18-10.79 3.07-13 3.77a.27.27 0 0 0 .16.51c1.06-.32 12.44-3.45 13.01-3.65Zm-.38 2.73a.32.32 0 0 0-.1-.63A39.635 39.635 0 0 0 26 27.47a.26.26 0 0 0 .07.51c.07.02 4.55-.91 5.12-1.13ZM27.61 30a.29.29 0 0 0 .08.56 39.087 39.087 0 0 0 4.89-1.19c.4-.2.14-.76-.26-.69-.82.15-3.91 1.16-4.71 1.32Z"/><path fill="#000" d="M19 21.63a.3.3 0 0 0 .16.57c.67-.19 11.18-3.26 11.13-4 0-.16-.23-.23-.33-.21-.96.19-9.13 3.12-10.96 3.64Zm-.59-8.7c1.45.12 8.79.36 8.43.36a.28.28 0 0 0 0-.56l-8.43-.56a.38.38 0 1 0 0 .76Zm6.47 116.13c-.72 1.51.41 4.08 2 4.08 1 0 2-1.13 1.35-3-.65-1.87-2.61-2.61-3.35-1.08Zm13.44 36.51c-1.1-.1-5.77-.08-7 0a.368.368 0 0 0-.31.365.37.37 0 0 0 .31.365c1.76.09 6.78 0 7.47.14.69.14 1.64.55 1.21 1.05-1.05 1-2.74 1-4.17 1.05-1 .06-3.38 0-4.12-.46.15-.59 3.73-.49 4.56-.37.39 0 .49-.52.12-.57-.67-.09-4.72-.33-5.3.37-.58.7-.11.91.52 1.21 1.83.86 3.71.59 5.76.44a5.707 5.707 0 0 0 2.54-.67c1-.56 1-1.13.94-1.49-.22-.83-1.48-1.4-2.53-1.43Zm88.04-31.93c-2.42 1.15-2.82 8.28-.25 8.28 1.15 0 1.28-2.09 1.34-3.23.11-2-.58-2.11-.8-2.14-.78-.07-.87 1.27-1 2 0 .41.57.4.6 0a4.47 4.47 0 0 1 .34-1.36c.14 0 .27.57.26.79a26.96 26.96 0 0 1-.33 2.89c-.09.58-.86.5-1.08 0a7.01 7.01 0 0 1 .88-6.22c.33-.38.89-.51 1 .07.11.58.11 1.38.21 2.08a.302.302 0 0 0 .29.223.302.302 0 0 0 .29-.223c.06-.856.01-1.717-.15-2.56a1.214 1.214 0 0 0-1.6-.6Zm29.64 2.11c.19 0-.52.29 5.85-3.9 1.51-1 3-1.93 3.56-2.37.28-.21 0-.66-.29-.46-1.55 1-7.93 5-9.3 6.31a.243.243 0 0 0-.063.276.24.24 0 0 0 .243.144Zm3.21 2.25c-.3.24 0 .71.38.52 3.28-1.92 6.26-4.32 9.4-6.41.29-.2 0-.66-.29-.46-3.14 2.16-6.49 4.03-9.49 6.35Zm4.57 2.68c1.53-1 7.59-5.25 9.19-6.15a.252.252 0 0 0-.058-.464.253.253 0 0 0-.192.024c-1.62.84-7.95 4.8-9.3 6.14a.293.293 0 0 0-.021.386.29.29 0 0 0 .179.104.287.287 0 0 0 .202-.04Zm3.22 2.8a.31.31 0 0 0 .43.43c1.15-.88 8.44-6.27 10.42-7.41a.262.262 0 0 0 .086-.154.259.259 0 0 0-.346-.286c-.83.45-9.91 6.53-10.59 7.42Zm-82.25-6.92c1.72 0 2.75-1.41 3.21-3.1.2-.74.42-1.44 1.11-1.11.69.33.43 1.23.73 2a1.085 1.085 0 0 0 .635.677 1.09 1.09 0 0 0 .925-.057c.23-.148.428-.342.58-.57.55-.7.63-.57.89-.13.67 1.14 1.19.48 2.1.88 1.13.41 1.18 1 1.48.77a.219.219 0 0 0 .06-.3 3.175 3.175 0 0 0-2.8-1.35c-.2-.12-.31-.48-.51-.69a.906.906 0 0 0-1.011-.248.907.907 0 0 0-.309.198c-.31.27-.59.88-1 .93-.41.05-.47-.39-.52-.63a6.164 6.164 0 0 0-.24-1.24 1.654 1.654 0 0 0-1.5-1c-1.48.08-1.14 2.19-2.13 3.44-1.26 1.61-3.4.9-2.6-.45a.286.286 0 0 0-.315-.421.305.305 0 0 0-.1.048.295.295 0 0 0-.075.083 1.47 1.47 0 0 0 1.39 2.27Zm22.89 13.28c-3.75 0-30.81.18-30.81.18a.292.292 0 0 0-.29.29.289.289 0 0 0 .29.29c1.58.05 29.37 0 30.82 0a.377.377 0 0 0 .375-.385.378.378 0 0 0-.385-.375ZM79.08 147a.24.24 0 1 0 0 .48c8.54 0 20.42 0 28.87-1.15a.148.148 0 0 0 .081-.236.145.145 0 0 0-.081-.054c-.41-.04-27.6.84-28.87.96Zm-.49-4c4.357.425 8.733.625 13.11.6 5.66 0 11.71-.35 15-1.57a.203.203 0 1 0-.11-.39c-7.19 1.72-26 1.06-27.92.8-.32-.04-.46.56-.08.56Zm1.47-3.06c2.69.55 20.08-.06 21.87-.34a.261.261 0 1 0-.05-.52c-1.32 0-20.13.57-21.67.26-.4-.08-.54.52-.15.6Zm20.94-5.55a.252.252 0 0 0-.25.25.252.252 0 0 0 .25.25c.89.05 4.53.3 5.34-.08a.314.314 0 0 0 .197-.285.308.308 0 0 0-.088-.222.307.307 0 0 0-.339-.073 47.618 47.618 0 0 1-5.11.16Zm-.26-1.39h4.83a.372.372 0 0 0 .37-.37.372.372 0 0 0-.37-.37c-1.36-.06-2.11.11-4.84.22a.286.286 0 0 0-.126.105.285.285 0 0 0 .006.315c.033.045.078.08.13.1Zm2.26 22.92a.08.08 0 0 0-.04-.011.08.08 0 0 0-.04.011c-1.49.24-19.31.38-19.41.39a.259.259 0 0 0-.26.26.26.26 0 0 0 .26.26c2.43-.07 22.76.47 19.49-.91Zm-7.26-1.74a.342.342 0 0 0 .257-.381.342.342 0 0 0-.357-.289c-1.28.16-6.63.4-8 .36a.25.25 0 1 0 0 .5c2.702.108 5.407.045 8.1-.19ZM84.45 56.82a.36.36 0 0 0-.66.17 5.54 5.54 0 0 0 2.64 5 .28.28 0 0 0 .29-.47 5.22 5.22 0 0 1-2.12-3.22c.86 1.12 2.7 3 6.69 3a.18.18 0 0 0 0-.36 8.71 8.71 0 0 1-6.84-4.12Zm8.12-.1c.08 0 .07 0 .48-.17.77-.3 1.66-.66 1.45-1.51-.06-.2-.77-1.36-1.52-2.61a.32.32 0 0 0-.55.32c.505.834.943 1.707 1.31 2.61-.416.322-.854.617-1.31.88a.26.26 0 0 0 .14.48Zm-7.67-7.99c-.06.39-.22 1.85-.24 2.24a.6.6 0 1 0 1.18-.14 16.158 16.158 0 0 1 0-2 .48.48 0 0 0-.94-.1Zm13.58 2.38a14.232 14.232 0 0 1 0-2 .504.504 0 0 0-1-.13c0 .36-.21 1.82-.24 2.23a.621.621 0 1 0 1.24-.1ZM84 47.92a3.48 3.48 0 0 1 2.33-1.11c.6.1.69-.82.14-1-1.51-.49-3 1.3-3.18 1.68a.42.42 0 0 0 .71.43Zm101 15.6c.39-.23 0-.85-.42-.62l-.5.33a10.46 10.46 0 0 0-9.7.14c-.2-.12-.4-.26-.59-.4-.19-.14-.6.22-.34.43 2.55 2.09 7.32 2.6 11.55.12Zm-6.77 7.68a.377.377 0 0 0 .259-.407.38.38 0 0 0-.349-.333c-.334.01-.668.036-1 .08.06-.35.13-.7.2-1.05a.277.277 0 0 0-.213-.302.28.28 0 0 0-.327.172c-.09.42-.18.84-.26 1.26l-1.07.14v-.66a.259.259 0 0 0-.26-.26.26.26 0 0 0-.26.26c0 .18-.09.76-.09.76l-1.15.12a.26.26 0 0 0-.15.42.259.259 0 0 0 .15.09h1.08c0 .26-.09.72-.13 1h-.75a.281.281 0 0 0-.28.28.282.282 0 0 0 .28.28l.7.08c-.01.163-.01.327 0 .49a.352.352 0 0 0 .55.284.349.349 0 0 0 .14-.204c0-.15 0-.31.07-.5l.71.06c-.053.33-.077.665-.07 1a.329.329 0 0 0 .288.298.33.33 0 0 0 .352-.218c.081-.356.141-.717.18-1.08.36 0 .82-.06.8-.43-.02-.37-.36-.42-.72-.4 0-.28.09-.75.12-1a10.97 10.97 0 0 0 1.2-.23Zm-1.8.15c-.05.29-.15.76-.2 1h-.81c0-.28 0-.76.05-1h.96Zm6.99 3.65c-.53.06-1.09.12-1.8.16.305-2.42.79-4.813 1.45-7.16.16-.38-.53-.61-.59-.2-.12.83-1.58 2.25-2.59 2.7-.35.15-.08.67.26.52a5.678 5.678 0 0 0 1.52-1 42.452 42.452 0 0 0-.78 5.25c-.67 0-1.31.05-1.91.1a.358.358 0 0 0-.36.36.359.359 0 0 0 .36.36c1.517.04 3.035-.071 4.53-.33a.383.383 0 1 0-.09-.76Zm-9.63-19.88c.75.56 1.63.48 2.33 1a1.681 1.681 0 0 1 .6 2c-.14.4.46.59.62.19.22-.71.78-1.34 1-2.08 1-3.36-3.5-2.91-3.28-5.2 0-.25-.58-.56-.67-.21-.19.82-.91 1.46-1.22 2.29a1.704 1.704 0 0 0 .62 2.01Zm3.62 1.7a2.853 2.853 0 0 0-2.41-1.9 1.727 1.727 0 0 1-1.18-.75c-.4-.73.29-1.6.72-2.29.43 1.09 1.77 1.44 2.61 2a1.998 1.998 0 0 1 .26 2.94Z"/><path fill="#000" d="M180.7 52.76a5.395 5.395 0 0 1-.37 5 .356.356 0 0 0 .195.427.356.356 0 0 0 .165.033c.7 0 0-1 2.54-3.6 3.12-3.17 2.22-5.19-1.44-7.2-1.39-.76-2.83-1.55-3-3.15a7.108 7.108 0 0 1 4-5.77.396.396 0 0 0 .163-.198.395.395 0 0 0-.138-.465.4.4 0 0 0-.245-.077c-2.73.46-10.37 6.69-6.8 10.23 1.42 1.43 3.33 1.12 4.93 4.77Zm-2.12-7.06c1.32 2.43 5.66 2.73 5.92 5.49 0 1.41-1.78 3.14-2.72 4.18a7.128 7.128 0 0 0-3.91-6.9 3.382 3.382 0 0 1-2.15-2.22c-.49-2.34 2.83-5.44 4.77-6.77-2.94 3.52-2.57 5.01-1.91 6.22ZM75.62 179.05c-.39-.26-3.24-2.43-3.14-2.37-1.31-.83-23.57-6.59-23.71-6.56a2.287 2.287 0 0 0-1.42 1.165 2.282 2.282 0 0 0-.1 1.835c0 .1-1.68-.4 23.88 6.55 1.146.136 2.304.136 3.45 0 1.06-.06 1.17-.17 1.2-.31a.375.375 0 0 0-.16-.31Zm-3.86.08.71-1.72c.47.42 1.47 1.26 2.06 1.72h-2.77Zm76.83-7.45c.47.09 12.24-.19 13.82-.23a.333.333 0 0 0 .206-.068.331.331 0 0 0 .123-.179.34.34 0 0 0-.149-.383c-3.25-2.43-3.62-3.36-4.84-3.36-.81 0-11.5.53-12.72.73a.315.315 0 0 0-.237.195.324.324 0 0 0 .037.305c.17.31 2.94 2.84 3.76 2.99Zm-2.81-2.92c2.09-.17 11.84-.61 12.18-.61a39.923 39.923 0 0 1 3.47 2.63c-2.28 0-12.56.27-12.9.21a22.462 22.462 0 0 1-2.75-2.23Zm4.15-9.38a2.34 2.34 0 0 0-1.23-.6c-.59-.05-9.69.85-11.84 1.27a.345.345 0 0 0-.255.255.35.35 0 0 0 .105.345c2.29 1.86 6.77 6.42 7.07 6.58.292.122.617.139.92.05 1.59-.28 9.08-1.25 12.19-1.31a.308.308 0 0 0 .28-.196.307.307 0 0 0-.07-.334c-1.25-1.09-7.1-6.04-7.17-6.06Zm-7.82 2.62a16.75 16.75 0 0 0-2.49.38c-.69-.67-1.3-1.23-1.88-1.73.89-.14 1.79-.23 2.83-.32.52.54 1.03 1.1 1.54 1.67Zm.8-.11c-.59-.61-1.08-1.14-1.54-1.63l3.91-.39c.58.49 1.15 1 1.72 1.5l-4.09.52Zm.59.61 4.16-.54 1.74 1.56c-1.33.15-3.8.5-4.33.57-.33-.35-1.15-1.18-1.57-1.62v.03Zm4.41-1.24c-.56-.5-1.12-1-1.69-1.49 3.11-.31 2.28-.56 4.38 1.19l-2.69.3Zm-5.28 1.37c.12 0-.14-.19 1.67 1.58-.91.15-1.67.29-2.36.44l-1.7-1.66c.76-.12 1.97-.32 2.39-.39v.03Zm2.3 2.18c.73.69 1.29 1.2 1.67 1.51-.26 0-2.19.33-2.4.31a15.528 15.528 0 0 1-1.74-1.49l2.47-.33Zm5.19-.64 1.6 1.52c-1.26.14-3.46.41-4.44.54-.38-.44-1.16-1.15-1.57-1.52 1.78-.26 3.98-.51 4.41-.57v.03Zm-1.59-2.33 2.71-.37c.66.53 3.57 2.87 4.86 4l-3.68.19c-.58-.66-3.09-3.09-3.89-3.85v.03Zm6.47.16a11.115 11.115 0 0 0 4 2.09 1.995 1.995 0 0 0 2.15-.51c.58-.79-.12-1.73-.42-2.13a7.793 7.793 0 0 0-3.4-2.58c-3.21-1.28-5.45.54-2.33 3.13Zm-.59-2.8c.47-.166.971-.227 1.468-.177.496.051.975.21 1.402.467 6.06 3.33 3.48 6.38-1.86 2.12-.82-.69-1.96-1.93-.97-2.41h-.04Zm9.14 9.21c1.92.72 3.37 2.5 3.7 2.49.33-.01 1.49-.25 2.73-.51.29-.06.82-.1.69-.47a7.546 7.546 0 0 0-4.46-4.16c-1.74-.68-2.64.58-3.29 1.9-.19.4.25.61.63.75Zm1-2.13a1.404 1.404 0 0 1 1.4-.07c2.68 1.2 3.61 2.59 4 3.58l-2.57.53a16.43 16.43 0 0 0-4-2.57 8.512 8.512 0 0 1 1.15-1.47h.02Zm-111.1-25.55 3.27.69 2.47-2.25-3.31-.7-2.43 2.26Zm5.71-5.28-2.56 2.36 3.32.69 2.58-2.35-3.34-.7Zm-3.51 2.16 2.55-2.36-4-.84-2.55 2.36 4 .84Zm-5.37 6.04 3.24.68 2.47-2.25-3.27-.68-2.44 2.25Zm-1.11-3.82 3.31.7 2.44-2.26-3.99-.83-1.81 1.67.05.72Zm.39 4.49-.03.03.27 3.37 2.99-2.72-3.23-.68Zm1.13-7.75 2.55-2.36-4.59-.97.23 2.95 1.81.38Zm-1.45 4.09.21 2.68 2.31-2.15-2.52-.53Z"/><path fill="#000" d="M190.88 146.39c-.76-.51-6.64-4.31-8.74-5.79l5.77-3.61c.21-.11.16-.53 0-.62l-16.68-8.59c1.15-1.27 1-2.61.72-4.19a5.437 5.437 0 0 0-2.12-3.32 6.564 6.564 0 0 0 0-3.3c1.63 0 14.35.16 15.88-.12a.15.15 0 0 0 0-.3c-2.14-.06-8.8-.17-16.12-.29-1.17-2.52-4.15-2.05-4.54-.08l-9.85-.18c2.86-4.89 1-10.73-2.12-14.21a3.839 3.839 0 0 0-3.05-1.65 12.755 12.755 0 0 0-1.5-4.78c5.47-4.64 11.07-9.91 13.34-16.65a1.892 1.892 0 0 0-.18-.8c.42-.36 2.17-2 2.67-2.51h.1c-.45 4 3.91 4.17 7.7 3 3.07 3.76 9.44 3.35 13 .11 1.31-1.2 1.46-3 1.51-4.59.05-1.85.19-9.42.18-10-.05-2.82-1.26-3.51-3.79-3.89a23.79 23.79 0 0 0-9 .36c-1.49.35-3.05 1.32-3.05 3a5.84 5.84 0 0 0-5.11 2.69 6.308 6.308 0 0 0-5.24-.78c-.63.27-1.176.706-1.58 1.26a38.853 38.853 0 0 0-2.32 4.2c-.15-.07-.41-.16-.54 0-.65.31-6.66 3.91-7 4.13 3.08-4.4 1.63-10.72-1.65-14.28-7.26-7.9-21.54-6.8-32-6.13-.15-.21-.58-.79-.92-.85a1.492 1.492 0 0 0-1.33.67 8.737 8.737 0 0 0-1-.51 6.13 6.13 0 0 0-1-5.5 12.083 12.083 0 0 0 .73-6.25 10.477 10.477 0 0 1 .26-4.4c1.22-5.37-2.26-3.18-1.88-9a4.483 4.483 0 0 0-.14-2c-.24-.72-1-1-1.42-1.4-.42-.4-.72-1.12-1.29-1.58-1.15-.9-2.62-.78-3.89-1.25a9.877 9.877 0 0 1-4.81-3.59c-2.38-5.27-6.61-3.23-9.48-3.14-3.66-1.65-7.15 0-9.77 1.54-3.36 1.73-1.47 2.75-5.23 8.9a1.42 1.42 0 0 0-.91 1.46c.09.6.53.76-.17 1.62-1.48 1.63-2.84 5-1 7a2.16 2.16 0 0 1 .68 1.55c-1 1.46-2.14 2.88-2.47 4.64-.8 4.25 3.58 11.45 7.47 13.78.62 5.93 4 4.35 3.72 9.25C75.5 63.89 50.85 61 49.88 60.8a4.79 4.79 0 0 1-2.28-1.11c-.33-.28-18.07-17.17-18.49-17.53a13.25 13.25 0 0 0-.56-6.5c1.05-.21 5.48-1.45 6.52-1.81a.37.37 0 0 0 .2-.19c.19-.43-2.13-31.19-2.37-32.52a.33.33 0 0 0-.43-.37l-3.21 1c-.13-.39-.28-.86-.39-1.21a.37.37 0 0 0-.45-.25c-1.83.48-24 7.62-24 7.62a.38.38 0 0 0-.34.54c.55 1.23 4.55 10.75 4.83 11.39 3.71 8.67 3.67 10.56 4.61 18.34a.35.35 0 0 0 .34.32 10.996 10.996 0 0 0 2.35-.95c.08 1.14 0 1.11.15 1.27.15.16.42.07.66 0a14.82 14.82 0 0 0 5.56 7.71c-.56.3-2.29 1.22-2.61 1.45a.38.38 0 0 0 0 .58c2.89 6.69 9.31 20.65 13.07 25.86A9.6 9.6 0 0 0 35.92 77a40.144 40.144 0 0 0 7.35 3 47.61 47.61 0 0 0-17 36.1c-11.3-3-11.15-3-11.25-3-5.44 1.38-5.47 1.46-5.5 1.55-.03.09 0 .07.06.55-1.41 0-7.13.29-8.47.33a.282.282 0 0 0-.28.28.281.281 0 0 0 .28.28c.1 0 7.4-.05 8.57-.13.77 5.37 3.86 26.76 3.86 26.76a1.997 1.997 0 0 0 .68 1.46c.27.21 31.7 12.36 32 12.48.3.12 2-.06 2.19-.07.19-.01.22 1-1.58-26.18 1.53.35 20 4.29 20.78 4.47-18.3 18.06-17.13 16.86-17.12 17l.21 3.24a.15.15 0 0 0 .25.09c18.57-17.89 17.35-16.64 17.35-16.74.06-4 0-4-.19-4.07-1-.21-20-4.49-21.33-4.74-.31-6.45-.26-6-.37-6.07-.11-.07 0-.11-2.84 1.65-.12.08-.26-2 2.53 30.51-3.65-1.44-31.18-12-31.26-12.06-.62-.31-.47.73-4.7-28.65 34 9.08 32.56 8.73 32.66 8.66 3.43-2.21 3.25-2 3.23-2.18-.02-.18.56.06-7.64-2.14.32-.55.73-1.23 1.19-2h10.48c3.087 2.8 7.557 5.013 13.41 6.64a4.766 4.766 0 0 0 4.37-1 43.477 43.477 0 0 0 3.81 3.43 6.443 6.443 0 0 0 2.54 1.46 2.207 2.207 0 0 0 2-.35c1 .73 2.53.81 2.88-.37.18.64.37 1.37.54 2-1.56 0-1.85 0-2 .33-.06.1-.17.76-1.32 5.68-2.87 3.69-17.53 23-18.13 23.8a.353.353 0 0 0-.085.292.348.348 0 0 0 .175.248c4.8 2.23 31.58 10.75 32.46 10.29a20.594 20.594 0 0 0 1.93-1.95c3.685.482 7.431.196 11-.84 2.3 1.65 3.45 2.63 4.62 2.64 4.77-.49 17.94-14.88 18.07-15a.372.372 0 0 0 0-.52c-1.76-2.17-9.87-10.7-14.74-14.43v-.24c.39-1.43 1.54-6.52 1.79-8.43.2-1.6.29-2.62-1.18-3.06-.73-.22-21.31-5-21.31-5a5.668 5.668 0 0 0-3.85.22c-1.48.84-2.77 5.89-3.18 5.9-.14-.38-.57-1.45-1.87-4.59.9-3.21.19-4.6-2.47-6-.32-.77-.6-1.45-.83-2h1.07c.23.59.47 1.25.59 1.61.12.36.53.18.46-.1-.12-.45-.27-1-.42-1.5 13 .17 42.05.46 42.19.46 5.24 4.9 12.343 8.93 21.31 12.09a34.419 34.419 0 0 0 6.32 1.67c.166.097.34.181.52.25-3.95 2.36-3.67 2.21-3.71 2.33-.09.32-.05.23 2.42 2a33.628 33.628 0 0 0-12.63 5.48c-5.05 3.79-8.43 10.92-5.24 17.31l-2.81.31a.14.14 0 0 0-.099.03.142.142 0 0 0-.051.09 37.74 37.74 0 0 0-.24 5.25c.07.78 14.08 14.42 17.17 16.55a.143.143 0 0 0 .072.023.146.146 0 0 0 .131-.063.147.147 0 0 0 .027-.07c.67-8.22.67-7.77.55-7.84-2-1.39-13.32-10.19-16.82-13.34 3.33-.29 24-2.18 25.74-2 6.08.7 15.95 9.91 20.81 14.07-4.52.75-23.47 2.1-27.88 1.84a.149.149 0 0 0-.16.13c-.76 9-.79 8.49-.56 8.48 4.88 0 29-3.16 29.09-3.78.38-5.43.54-6.81.37-6.95-5.4-4.52-10.21-9-15.56-12.12-3.9-2.31-5.91-2.6-9.67-2.37-1.81.12-16.47 1.41-19.36 1.68-3.7-8.4 1.83-16.06 10.16-19.72a57.765 57.765 0 0 1 7.55-2.58l1.42 1c-1.61.72-6.76 3-7.3 3.34a.307.307 0 0 0-.271.217.314.314 0 0 0-.001.182c.019.06.054.112.102.151 2.72 2.28 18 14.88 19.64 16.07a.363.363 0 0 0 .39.17c7.5-1.77 25.37-9 27.08-10a.314.314 0 0 0-.063-.43.317.317 0 0 0-.147-.06Zm-22.18-30.15h-2.94c.39-1.17 2.03-1.24 2.94 0Zm.37.73c.302.949.337 1.963.1 2.93a2.913 2.913 0 0 0-2.43 0 1.354 1.354 0 0 0-.774 1.125 1.357 1.357 0 0 0 .604 1.225c.93.57 2.28.21 3-1.22a4.52 4.52 0 0 1 1.69 2.8c.3 1.61.44 2.68-.62 3.62-5.37-2.74-7.82-4-8-4a9.953 9.953 0 0 0-2.44 1.56c-2-2.87-1.89-2.05-6.34-2.32.14-.63.28-1.36-.13-1.65-2-1.48-4.11-3-6.14-4.48 6.41.21 16.12.35 21.48.44v-.03Zm-.17 3.72a1.664 1.664 0 0 1-1.54 1.09c-.33 0-.7-.36-.63-.68.27-.79 1.43-.73 2.17-.41Zm-20.47-18c-1.11 0-.49-1.28.95-1.7.01.74-.21 1.7-.95 1.7Zm.9-2.44c-.91.23-2.16.93-2.2 2.1a1.223 1.223 0 0 0 1.34 1.07c1.29 0 1.63-1.25 1.61-2.54 1.55 0 2.6 1.47 3.46 2.72 3 4.4 2.89 9.25 1 12.41l-7.9-.14c-12.12-8.87-12.54-8.76-13.44-10.26-.35-.59-2-4.53-2.48-5.65a13.85 13.85 0 0 0 11.91-.22 40.697 40.697 0 0 0 5.37-3.88 12.468 12.468 0 0 1 1.33 4.39Zm-19.16-1.41c-.89-1.91-5.19-9.77-7.76-14 8.4 1.43 20 1.72 25.18 10.43-1.88 1.55-4.65 3.71-6.78 4.47a13.85 13.85 0 0 1-10.64-.9Zm37.69-29.72a2.58 2.58 0 0 1 1.27 0c.3.11.69.44.61.82-.21 1-1.86.76-5.17.76-.78 0-1.14 0-.64-.59.269-.3.615-.522 1-.64 1.52.77 2.07 1.25 2.6.72a1.397 1.397 0 0 0 .33-1.07Zm1.34 4.09a1.538 1.538 0 0 0 .49-2.06c1.43-.85.89-2.68-.88-2.74.52-1 1.44-.6 2.25-.68 0 2.74.14 5.43.27 7.5-.895.183-1.8.316-2.71.4-.45 0-.59-.6-.53-1l.46-.18c.59-.23.92-.69.65-1.24Zm-.22-.65c-.87.88-2.7.52-4.09.06-.56-.19-.73-.55-.15-1.24 1.43-.07 2.88.17 4.32 0a.9.9 0 0 1-.06 1.18h-.02Zm-4.25.67a7.45 7.45 0 0 0 3.93.24c.011.024.017.05.018.077a.19.19 0 0 1-.128.183c-1 .39-1.93.72-2.86 1-1.53.47-1.86-.99-.96-1.5Zm6.35 4.86c-1.67.36-4.62.74-5.66-.71a2.679 2.679 0 0 1-.33-1.83 7.2 7.2 0 0 0 2.46-.75c0 .76.42 1.49 1.17 1.38.35 0 3.72-.58 4-.47a.997.997 0 0 1 .47.73c.2 1.02-.96 1.41-2.11 1.65Zm3.35-17a21.001 21.001 0 0 1 10.06.09c1 .29 1.5 1.11 1.55 2.57 0 .21-.15 10.12-.23 11.42a4.59 4.59 0 0 1-.62 2.2c-1.86 2.9-8.48 4.71-12.34.86 1.83-1 1-3.56-.95-3.09-.16-2.2-.23-4.6-.21-7.52 1.19-.52 1.9-3.24 0-4-.11-1.79 1.87-2.4 2.74-2.62v.09Zm-3.77 3.13c1 0 1.65.46 1.55 1.46a1.768 1.768 0 0 1-.56 1.26 1.41 1.41 0 0 1-1 .14c-1.51-.14-2.33.52-2.57 1.43a2.484 2.484 0 0 0-.33.06 3.607 3.607 0 0 0-1.38-2.06 5.607 5.607 0 0 1 4.29-2.34v.05Zm-9 1.74c2.21-.31 5.41 1 5.52 3.34 0 .67-.25.59-.93.24-.24-.13-2.24-1-2.66-1.26-.42-.26-.56.32-.25.47l.77.4c-1.18.7-1.61 2.08-.19 2.25a1.202 1.202 0 0 0 .1 1.49 1.61 1.61 0 0 0-.19 2.19 24.782 24.782 0 0 1-2.31 2.28 13.261 13.261 0 0 0-4.26-6.17c1.65-2.48 2.35-4.99 4.38-5.28l.02.05Zm-15.75-5.78c5.57 4.94 5.25 12.27 1.6 15.73-1.92 1-8.74 4.35-10.38 5.06a102.374 102.374 0 0 0-13.26-6.6c-.37-.14-.55.43-.19.58a83.854 83.854 0 0 1 13.13 6.78c.59.21 16.85-8 19.68-10.18 3.13 1.83 4.55 6.58 4.68 7-2.15 6-8.08 12-13 16.19-2.89-4.68-8.53-7.51-13.75-8.69-4.11-.93-8.33-1.32-12.48-2-.28-.46-.54-.86-.75-1.18a.272.272 0 0 0-.46.29c.16.23.32.49.49.76-1.77-.32-5.76-1.19-7.17-2 2.92-.77 3.76-3.21 2.22-3.68a5.88 5.88 0 0 0-1.21-.21 30.163 30.163 0 0 0 2.13-12.73c.59 0 1.18.09 1.77.16a72.536 72.536 0 0 0 16.34 6.09.244.244 0 0 0 .295-.175.241.241 0 0 0-.175-.295c-7.39-2-13.46-4.3-19.17-8.4a8.003 8.003 0 0 0-.3-7.37c9.7-.64 22.53-1.75 29.94 4.82l.02.05Zm-33.36 21.18v.07c-1.88.02-3.747-.32-5.5-1a24.917 24.917 0 0 0 6.57-15.11 29.653 29.653 0 0 1 3-.16A31.665 31.665 0 0 1 114.29 78a2.115 2.115 0 0 0-1.914 1.14 2.108 2.108 0 0 0 .174 2.22Zm-11.39-4.47a2.06 2.06 0 0 0 2.85-2.5 1.75 1.75 0 0 0 1.79-2.63 1.743 1.743 0 0 0 1.655-1.825 1.74 1.74 0 0 0-1.825-1.655 6.72 6.72 0 0 0 3.56-2.18c1.56-.36 3.09-.66 3.61-.76-.72 6.12-3 11.22-6.66 14.8a50.706 50.706 0 0 1-5.07-2.48c.08-.248.111-.51.09-.77ZM114 78.63c-.32.72-.68 1.41-1.06 2.09a1.369 1.369 0 0 1-.05-1.34 1.373 1.373 0 0 1 1.11-.75Zm.8 0c1.48.08 2.15.26 1.15 1.43a4.171 4.171 0 0 1-2.52 1.31c.502-.899.956-1.823 1.36-2.77l.01.03Zm1-15.2c3.23 2.3 2 0-5.81 1.63a9.889 9.889 0 0 0 1.3-2.85c.445.083.897.126 1.35.13.07.82 1.15 2.2 2.08 2.06.53-.1.85-.58 1.1-1l-.02.03Zm-2.89-8.33a3.798 3.798 0 0 1 2.56 3.53c-.41 5.39-8.63 2-7.8.06.47-1.08 2.13-.46 2.78-.44a.25.25 0 0 0 0-.49c-.84 0-3.47-.72-3-1.58.37-.6 1.32.07 1.73.15a4.11 4.11 0 0 0 1.64 0c.32-.06.21-.54-.11-.48-.8.15-4-.86-3.05-1.66.55-.49 2.44-.26 3.51.1.65.17 1.19.53 1.76.78l-.02.03Zm-8.4-31.7c1.69.36 2.65.16 3.55 1.8.231.422.578.769 1 1 1.43.93.36 2.22.76 4.75-3.17-3.73-3-4.17-5.93-3.73a17.143 17.143 0 0 0-3.18-.91 20.74 20.74 0 0 0-.94-5.48 10.063 10.063 0 0 0 4.74 2.57Zm-31.93 12a4.53 4.53 0 0 1-.09-3.46c.62-2 2-2.44 2-3.59a2.85 2.85 0 0 0-.21-.8c-.12-.52.49-.86 1-.83 1 .07 3 1.52 3.72 2.15.27.24.67-.16.39-.42-1-.89-2.68-2.35-4-2.47a19.081 19.081 0 0 0 2-3.73c.47-1.12.58-2.41 1.32-3.33a4.24 4.24 0 0 1 1-.73c3.05-1.83 6.07-3.34 9.47-1.84 1.64.61 3.27 1.39 5.05 1.25.4 0 .38-.64 0-.61a7.1 7.1 0 0 1-3.17-.69c1.75-.2 3.54-.56 5.18.2a4.87 4.87 0 0 1 1.98 2.5 16.87 16.87 0 0 1 1.83 7.18c-4.79-.77-9.6.19-13.69 1.24-1.83.47-3.84.75-5.49 1.81-2.24 1.44-5.65 5.56-7.23 7.7a6.77 6.77 0 0 0-1.06-1.56v.03Zm-1.53 8.1c0-1.86 1.09-3.27 2.17-4.8a45.148 45.148 0 0 1 4-5c1.6-1.82 3.26-3.7 5.52-4.53 6.24-1.69 13.3-3.6 19.84-1.71a61.87 61.87 0 0 0-20.53 7.34.271.271 0 0 0 .27.47 66.26 66.26 0 0 1 22.24-7.42 2.28 2.28 0 0 1 2 .47c.85.89 1.65 1.87 2.41 2.82 2.8 3.46 3.45 3.39 2.51 7.22-.59 3.08.83 5.51-.64 9.41a5.47 5.47 0 0 0-2.44-1.19c-2.16.56-2.33 5-1.74 7.06 0 .11.14.11.24.12-.36.55-.11 1.11.38 1.57-1 .55-.64 1.83.34 2.33a1.602 1.602 0 0 0-.563 1.878c.084.22.215.418.383.582-.61.74-1.279 1.429-2 2.06-.92.72-1-.3-1.35-.16a5.585 5.585 0 0 0-3 5.21.17.17 0 0 0 .07.13 6.53 6.53 0 0 0 3.4 1c1.28 0 .09-.27-.44.9a1.716 1.716 0 0 0 .08 1.63 1.768 1.768 0 0 0-1.55 2.14 2.071 2.071 0 0 0-2.65 2.3 1.74 1.74 0 0 0-1-.12 10.72 10.72 0 0 1 .49-8.66c.5.29.53.34.63.29a.135.135 0 0 0 .059-.053.132.132 0 0 0 .021-.077 6.005 6.005 0 0 1 3.14-5.09.152.152 0 0 0 .044-.056.153.153 0 0 0 .016-.069.152.152 0 0 0-.016-.07.152.152 0 0 0-.044-.055c-.14-.12-.25-.23-.35-.33 1.4-2.08 1.59-4.74 1.44-7.45h1.2a.17.17 0 0 0 .12-.05c.18-.23-.46-.46-.13-4.11.14-1.51.64-2.48 1.49-2.9a.15.15 0 0 0 0-.28c-.3 0-.65-3.34-5.54-6a34.219 34.219 0 0 0-16.84-4 .28.28 0 1 0 0 .56 33.29 33.29 0 0 1 15.92 3.78 11.838 11.838 0 0 1 5.7 5.65c-.25-.02-.5-.02-.75 0a3.343 3.343 0 0 0-1.73 1.33 15.14 15.14 0 0 0-3.74-2.73c-5.41-3.13-15.81-7.7-24.71-3a.233.233 0 1 0 .22.41A16.198 16.198 0 0 1 79.58 41c-2.94 2.48-4.55 6.12-5.91 9.69-1.36-2.25-2.67-4.63-2.62-7.22v.03Zm6.94 12a17.998 17.998 0 0 1-4-4.25c1.56-3.89 3.38-7.89 6.82-10.45a23.378 23.378 0 0 1 4.71-.2A17.13 17.13 0 0 0 78 55.45l-.01.05Zm1.6 10.42c1 .17 1.84.31 2.4.38a.36.36 0 0 0 .39-.41 11.834 11.834 0 0 0-.38-3.18c-.89-2.39-3.34-2.21-3.33-8a16.68 16.68 0 0 1 7.9-14A33.42 33.42 0 0 1 98.94 45a16.335 16.335 0 0 1 4.66 3.38c-.06.43-.08 1.1-.11 2.3 0 2-.06 2.45.42 2.77a11.912 11.912 0 0 1-1.41 7.1c-.8-.62-1.63.4-2.24 1.12-1.08 1.3-2.8 3.8-1.31 4.59a11.291 11.291 0 0 0-.53 9.18 1.84 1.84 0 0 0-1 1.46 1.741 1.741 0 0 0-2.44.91 2.12 2.12 0 0 0-3.43.6 2.11 2.11 0 0 0-3.34-.25 2.13 2.13 0 0 0-2.88-1.52 2.121 2.121 0 0 0-2.69-2.41 2.11 2.11 0 0 0-2-2.92 2.15 2.15 0 0 0-1.1-3.31 1.68 1.68 0 0 0 .05-2.13v.05Zm-1.83-.31a1.63 1.63 0 0 0 .3 2.75A2.07 2.07 0 0 0 79.2 72a2.1 2.1 0 0 0 2.16 3.43 2.07 2.07 0 0 0 .7 2.52 18.709 18.709 0 0 1-10.37-13.47c1 .17 3.58.65 6.07 1.08v.05ZM71 64.37a19 19 0 0 0 13.35 15.2 2.12 2.12 0 0 0 3.42.37 2.1 2.1 0 0 0 4 .44 2.11 2.11 0 0 0 3.82-.67 1.72 1.72 0 0 0 2.76-1.09 1.87 1.87 0 0 0 2.46-.42 30.986 30.986 0 0 0 4.85 2.44C94.3 91.06 71.6 85.25 64.44 63.48c.98.12 5.56.73 6.56.89Zm-7.34-1.09C70.07 85.64 94.51 92.8 106.51 81a17.06 17.06 0 0 0 5.58 1.11A22.555 22.555 0 0 1 96.36 92.3c-.56.09-5.74 16-6.14 17.38-1.72-6.81-4.63-18.49-4.94-18.57-13.85-2.2-25.09-14.39-26.22-28.4 1.45.15 2.94.35 4.58.57h.02ZM14.21 37.79C13.33 26.72 12.34 25.93 5 8.55c2.39-.72 21-6.63 23.34-7.39.08.22.29.86.29.86-7.8 2.55-19.95 6.61-20.83 7a.35.35 0 0 0-.29.48c7 19.07 8.28 22.09 8.76 27.5-.668.31-1.356.573-2.06.79ZM17 38c-.45-7.52-4.28-16.67-8.64-28.42 1-.31 22.53-7.61 23.92-8.06.06 1 2.26 29.49 2.37 31.69-1.26.4-5.37 1.39-6.33 1.66-.27-.72-1.57-4.07-2-4.47-2.32-1.52-2.53 2.7-2.16 5.4A31.818 31.818 0 0 0 17 38Zm.68.54a43.54 43.54 0 0 1 6.39-2.13 14.552 14.552 0 0 0-1.47 1.85 13.742 13.742 0 0 0-1.34 2.43.27.27 0 1 0 .48.25 16.943 16.943 0 0 1 2.76-3.79c.13.48.63.25.55-.06a12.479 12.479 0 0 1-.3-4.09c.019-.614.144-1.22.37-1.79.23-.49.54-.43.77 0 2 4 3 7.08 2.45 11.2a38.365 38.365 0 0 1-5.12 3.74 16.88 16.88 0 0 1-5.56-7.57l.02-.04Zm22.43 78.06c1.92-3.06 4.36-6.8 5.07-7.79a14.748 14.748 0 0 0 4.05 7.69c-3.01.03-5.93.1-9.14.14l.02-.04Zm50.2 52.5c-1.28-.14-27.68-8.55-31.4-10 2.54-3.36 13.37-17.66 17-22.39-5.45 23-6.59 23.16-5.49 23.31 1.1.15 17.18 0 28.69-.48-2.11 2.26-7.85 8.84-8.8 9.56Zm2.89-1.87c1.29-1.4 2.85-3.15 4.19-4.65 1.38 1 3.57 2.59 5.48 4a28.996 28.996 0 0 1-9.67.65Zm32.32-12.83c-1.63 2.07-12.58 12.19-15.15 13.69-.9.53-1.92 1.13-2.93.72-.34-.14-3.58-2.4-9.61-6.73 1-1.15 1.87-2.11 2.29-2.58 7.48-.33 14-.81 16.2-1.49a.43.43 0 0 0 .25-.63c-1-1.42-3-9.27-4.69-16.31 4.815 4.16 9.37 8.612 13.64 13.33Zm-35.64-30.72c1.7.32 21.63 5 22.22 5.22.59.22.47.78.38 1.52-.21 1.77-1 5.84-1.35 7.5-2.14-9-1.91-8.81-2.35-8.93-.12 0-15 0-24 .13 1.87-3.64 1.22-6.12 5.1-5.44Zm-6.4 9.82c0-.11.21-2.32.31-3.49l24.61-.25c.83 3.63 5.34 24.21 7.14 27.58-6.07 1.49-41.23 2-44.55 1.87 1.47-4.54 6.86-27.33 7.28-29.13h1.55c.18.71.16.72.23.78l3.18 2.76c.022.02.05.033.08.037.028.004.058-.001.085-.013a.152.152 0 0 0 .085-.144Zm-.29-3.86v2.05l-.77.46-1.65-1.39a5.876 5.876 0 0 0 2.42-1.12Zm-1.78-6.28c-.43-1-.94-2.26-1.53-3.7 1.88 1.15 1.71 2.19 1.53 3.7ZM81 126.5s-.28.19-1.68-.64c-.8-.76-2.34-2.21-2.75-2.63a.31.31 0 0 0-.536.208.312.312 0 0 0 .086.222c.43.46 2.35 2.08 2.3 3.13 0 .54-.6 1-1.6.29-.41-.31-2.17-1.88-2.64-2.33a.283.283 0 0 0-.185-.05.28.28 0 0 0-.205.44c.49.48 1.46 1.53 1.88 2-.49.33-1.43 0-1.94-.18-2-.93-6.06-5.27-6.84-6.32a17.8 17.8 0 0 1 4.08-4.17c.41-.28 2.53 1.53 3.22 2a3.84 3.84 0 0 0 2.76.68c.29.89.56 1.67.69 2 .01.06 3.81 4.85 3.36 5.35Zm-7.9-10h3l.61 2a2.87 2.87 0 0 1-1.82-.57 5.9 5.9 0 0 1-1.82-1.44l.03.01Zm5.23-.65-.25-.61c1-.27 1.15.19 1.33.62l-1.08-.01Zm36 .45c.16-1.67.38-7.71.45-9.73a33.604 33.604 0 0 0 7.08 9.85l-7.53-.12Zm.48-11.59c0-1.88-.18-9-.27-10.71 0-.33-.53-.34-.51 0 .1 2.78-.41 19.74-.43 22.28-9.53-.14-24.25-.32-33.5-.42-.19-.59-.34-1.08-1-1.35a1.849 1.849 0 0 0-1.33 0 2.536 2.536 0 0 0-.3-.5c-1.16-1.39-2-.42-1.7 1.26 0 .13.09.33.16.59h-3.46c-1-1.21-.93-1.19-4.36-5.71 0-1.06.69-11.38.49-13.73a.34.34 0 0 0-.62-.16 35.237 35.237 0 0 1-5.68 7.29l-.82-.86a.27.27 0 0 0-.38.37c1.42 1.53 9.33 11.57 10 12.41-1.35.51-5.65 5.06-6.51 8-6.82-2.19-12.91-3.86-16.77-10.07-4.21-6.79-.53-14.37 3.26-20.94a123.788 123.788 0 0 1 7.18-11.26c.22-.3-.25-.6-.47-.31-6 7.91-9.69 14.39-12.07 21A15.09 15.09 0 0 0 45 108c-1.3 1.21-6 8.49-7.45 11.21l-10.48-2.81c.51-17.72 10.44-34 25.67-41.92.33-.18 0-.67-.28-.51a49 49 0 0 0-8.4 5.42c-1.35-.08-6-2-7.12-2.6a10.308 10.308 0 0 1-3-2.35c-2.7-3.58-7.45-12.77-13.38-25.88 1.21-.57 6.49-3.77 8.35-5.68 1.53 1.49 18.47 18 19.33 18.38.86.38 9 1.28 10.07 1.39A32.11 32.11 0 0 0 85 91.86c.3 1.16 4.63 18.62 4.88 19.45a.372.372 0 0 0 .36.285.374.374 0 0 0 .36-.285c.22-1.16 5.37-16.76 6.21-18.45a22.149 22.149 0 0 0 15.49-9.68c.88-1.3.62-1.11.88-1.15a12.832 12.832 0 0 0 4.76 1.82c1.22.33 2.48.59 3.76.83 3.61 6.13 9.36 18.35 10.37 20.57a5.925 5.925 0 0 0 1.27 1.87c1.73 1.26 14.6 10.76 19.39 14.11a9.089 9.089 0 0 0-3.19 3c-2.15 2.64-1.93 4.53-1.59 5.45-17.52-5.4-28.68-13.79-33.17-24.98l.03.01ZM68 97.48c0 2.61-.5 9.94-.58 11.71-1.25-1.5-4-4.51-4.65-5.24A33.557 33.557 0 0 0 68 97.48Zm80.83 31.24c-.49-1.34.45-2.83 1.29-4 .54-.72 1.65-2.23 2.76-1.65.79.4 4.59.16 5.4.62a6.515 6.515 0 0 1 1.53 1.9c.013.09.059.173.13.23.29.49.39.68.45.78.06.1.5.73.22.88-.28.15-.59 0-.81-.17-1-.62-1.95-1.35-2.89-2.06-.29-.21-.63.24-.36.47l1.23 1c-1.2.78-4 2.44-6.38 3.87a3.669 3.669 0 0 1-2.62-1.87h.05Zm-.9 4.82c1.66-.93 8.61-5.18 10.35-6.37.37.28.74.56 1.13.81 1.22.81 2.27 0 2-.92a6.973 6.973 0 0 0-.79-1.42 9.878 9.878 0 0 1 2.08-1.35c.15.08 20.89 10.89 24.23 12.42-3.08 1.65-16.54 10.29-18.26 11.52-.75-.5-19.54-13.83-20.79-14.69h.05Zm16 22.69c-1.54-1.36-16.8-13.78-19.14-15.67 1.12-.5 5.84-2.68 7.18-3.32 3 2.19 15.83 11.42 16.56 11.72.14 0 1.6-.82 13-8 1.93 1.38 7.22 4.85 8.63 5.68-2.75 1.2-18.86 7.73-26.27 9.59h.04Z"/></svg>