<svg xmlns="http://www.w3.org/2000/svg" fill="none" viewBox="0 0 184 176"><path fill="#000" d="M113.934 106.08h-54.6a4.391 4.391 0 0 0-3.104 7.494 4.391 4.391 0 0 0 3.104 1.286h54.66a4.39 4.39 0 1 0-.09-8.78h.03Zm.43 8.15c-.25 0-52.62.06-55 0a3.63 3.63 0 0 1-2.6-1.24 3.768 3.768 0 0 1 .602-5.592 3.775 3.775 0 0 1 1.968-.698h54.8a3.77 3.77 0 0 1 2.836 6.365 3.77 3.77 0 0 1-2.636 1.175l.03-.01Zm.28-82.5a1.938 1.938 0 0 0 1.91 0 1.692 1.692 0 0 0 .2-2.71c-1.8-1.68-3.99 1.23-2.11 2.71Zm-.16-1.5c.08-.81 1-1.6 1.8-.91a1.156 1.156 0 0 1 .521.89 1.142 1.142 0 0 1-.401.95c-.83.58-2.07.17-1.92-.93Zm4.31 1.2a1.637 1.637 0 0 0 1.785.329 1.64 1.64 0 0 0 .995-1.519 1.675 1.675 0 0 0-2.08-1.68 1.717 1.717 0 0 0-1.148 2.114c.081.287.236.547.448.756Zm2.22-1.61a1.198 1.198 0 0 1-.42 1.27 1.31 1.31 0 0 1-1.41-.15 1.06 1.06 0 0 1-.325-.89 1.046 1.046 0 0 1 .525-.79 1 1 0 0 1 1.63.56Zm1.71.66a1.678 1.678 0 0 0 2.469.924c.29-.175.521-.435.661-.744a1.913 1.913 0 0 0-.25-1.8c-.9-1.19-3.46-.17-2.88 1.62Zm2.57 0c-.37.93-1.7.68-2-.23-.3-.91 1-1.69 1.73-1.11a1.134 1.134 0 0 1 .31 1.32l-.04.02Zm-46.31 109.9a40.997 40.997 0 0 1-4.06 6.44c-.81 1.07-1.59 2.18-2.45 3.18-.68.84-1.86 1.82-1.83 3a.54.54 0 0 0 .54.54 1.988 1.988 0 0 0 1.43-.82 80.089 80.089 0 0 0 6.44-8.72c.19 5.47-.92 19.57-.61 22.87.07 1 1.71 1 1.64 0-.22-3.75.54-14.63.73-21.77a25.33 25.33 0 0 0-.24-4.44.892.892 0 0 0-1.202-.593.891.891 0 0 0-.388.313Zm-51.11 25.37a4.902 4.902 0 0 0-1.87 0c-.77 0-1.67.11-3.7.07 2.16-2.38 5.83-3.81 5.67-7.55a3.77 3.77 0 0 0-2.79-3.53 2.808 2.808 0 0 0-2.293.604 2.796 2.796 0 0 0-1.007 2.146c.07 1 1.63 1 1.56 0a1.249 1.249 0 0 1 2.11-.88c1 .87.75 2.31.13 3.33-1.57 2.56-4.78 3.56-6.13 6.33a1 1 0 0 0 .86 1.5c1.27 0 2.54.07 3.82 0a14.47 14.47 0 0 0 1.85-.08 4.577 4.577 0 0 0 2-.33.894.894 0 0 0 .402-.871.9.9 0 0 0-.612-.739Zm104.1 2.85a3.001 3.001 0 0 0-1.36-3.23 6.59 6.59 0 0 0-1.68-.68c.59-.63 1.19-1.28 1.74-2a.872.872 0 0 0-.61-1.47 30.725 30.725 0 0 1-3.46-.07.837.837 0 0 0-.84.84.839.839 0 0 0 .84.84h1.43c-.6.61-1.19 1.25-1.78 1.86a.994.994 0 0 0-.167 1.034 1.002 1.002 0 0 0 .847.616 4.995 4.995 0 0 1 2.71.66c.095.081.185.168.27.26.9 1.29-1.81 3.42-4.65 1.91-.83-.44-.8-.8-1.68-.91a.707.707 0 0 0-.554.084.72.72 0 0 0-.326.456 1.532 1.532 0 0 0 .33 1.22c2.8 2.77 7.91 2.18 8.94-1.42Zm10.99-147.74c5.51-3.86 11.37-7.34 16.88-10.76.17-.11 0-.46-.2-.34-5.81 3.24-11.31 6.94-16.92 10.74-.23.15.01.5.24.36Zm13.79.78c.25-.11 0-.49-.17-.4-1.6.61-3.21 1.29-4.76 1.94-2 .82-1.87.75-1.91.87a.22.22 0 0 0 .2.32c.15 0 6.53-2.69 6.64-2.73ZM153.974 46h.05c1.66-.18-1.28 0 17-2.81 6.75-1 6.44-1 6.5-1.1a.208.208 0 0 0 .031-.109.218.218 0 0 0-.029-.108.212.212 0 0 0-.192-.103c-8 1.11-16 2.37-23.38 3.76-.28-.01-.25.47.02.47Zm9.98 9.08c-2.71-.07-5.19 0-8.07 0a.22.22 0 0 0-.19.3c0 .22-.26.12 8.26.09a.147.147 0 0 0 .121-.064.152.152 0 0 0 .019-.136.153.153 0 0 0 .003-.067.156.156 0 0 0-.027-.062.148.148 0 0 0-.116-.06Zm19.6 7.67c-6.3-.35-20.78-.25-30.33-.25a.24.24 0 0 0-.263.193c-.011.06.001.121.032.172a.243.243 0 0 0 .141.105l30.42.22a.22.22 0 0 0 .22-.22.22.22 0 0 0-.22-.22Zm-33.46 28.79c2.58.39 5 .78 7.34 1.07a.212.212 0 0 0 .164-.205.21.21 0 0 0-.164-.205l-7.33-1.11a.233.233 0 0 0-.194.042.24.24 0 0 0-.089.177c0 .034.007.068.021.1a.226.226 0 0 0 .252.132Zm26.56 13.29c-27-4.87-27.58-6.16-27.58-5.35.002.06.028.115.071.156a.227.227 0 0 0 .159.064c10.51 2.58 19.19 4.34 27.33 5.56a.219.219 0 0 0 .141-.348.218.218 0 0 0-.121-.082Zm-26.95.17c4.67 1.16 5.59 1.43 5.84 1.43s.25-.38 0-.41c-1.86-.53-3.83-1-5.75-1.47a.22.22 0 0 0-.24.06.227.227 0 0 0-.05.243.234.234 0 0 0 .078.103.235.235 0 0 0 .122.044Zm-5.13 13.84a166.885 166.885 0 0 0 16.24 8.72.251.251 0 0 0 .31-.17c.12-.55-2.24-.49-16.29-8.93-.2-.12-.45.18-.26.38ZM31.334 14.36c2.5 2.15 5.28 5.4 6.27 6.4.18.19.5 0 .33-.31a62.714 62.714 0 0 0-6.3-6.45c-.3-.25-.61.14-.3.36Zm-10.44 2.8c1.44 1.04 16.44 11.53 16.65 11.53a.22.22 0 0 0 .12-.4c-6.28-4.67-13.61-9.48-16.49-11.56-.27-.2-.56.27-.28.43ZM5.204 48.2a.21.21 0 0 0 .1.06 149.991 149.991 0 0 0 24.61 2.37.22.22 0 0 0 .13-.42 12.48 12.48 0 0 0-1.71-.09c-7.713-.204-15.4-.973-23-2.3a.22.22 0 0 0-.13.38Zm24.36 14.54c-1.95-.12-7.58-.38-8.45-.4a.23.23 0 1 0 0 .46c2.79.06 5.63.29 8.45.37a.22.22 0 0 0 0-.43Zm-16.5 40.52c12.79-2.2 12-2 12.09-2.13.09-.13 0-.41-.24-.36-.24.05-20.71 3.45-23.82 4.07a.208.208 0 0 0-.149.062.208.208 0 0 0 0 .296c.04.04.093.062.149.062 4.03-.56 8.09-1.34 11.97-2Zm3.48 9.33a30.329 30.329 0 0 1 6.52-1.79c.33 0 .26-.54-.09-.49a26.28 26.28 0 0 0-6.64 1.89c-.2.11 0 .48.21.39Zm-.88 20.5a.152.152 0 0 0-.08.13v.06a.15.15 0 0 0 .22.13c5.19-2.58 10.06-5.45 14.53-8.16a.218.218 0 0 0 .107-.131.22.22 0 0 0-.017-.169.221.221 0 0 0-.3-.09c-.11.06-1.79 1.26-14.46 8.23ZM83.544 16.6c0 .1-.81 4.1-.74 4.19 2.43-.47 2.88-.6 3.44-.74-.1-.32 0-.07-2.44-3.33a.25.25 0 0 0-.26-.12Zm-.4.05a.33.33 0 0 0-.31.19c-1.92 2.79-2 3.18-2.1 3.6 1.13.24 1.56.35 1.56.35.04-.18.83-4.04.85-4.14Zm.66 8.1a34.958 34.958 0 0 0 2.31-4.21 22.66 22.66 0 0 1-3.31.63c.09.32.88 3.06 1 3.58Zm-.73-.85c0-.1-.63-2.34-.76-2.81-.69-.11-1.34-.24-1.61-.3.042.234.141.454.29.64 3.11 4.57 2.34 3.57 2.08 2.47Zm.26-8.56a1.54 1.54 0 0 0 1.2-1.8c-.06-1-.87-2.06-1.7-1.58-1.36.94-.71 3.47.5 3.38Zm-.67-2.54c.13-.15.18 0 .14.1a1.58 1.58 0 0 0 .17 1.37.12.12 0 0 1-.12.11c-.28 0-.43-.54-.43-.83a1.002 1.002 0 0 1 .27-.75h-.03Zm11.54 6.31c1-.37 1-2.17.6-3-.4-.83-1.29-.6-1.7.1-.41.7-.24 3.42 1.1 2.9Zm-.48-2.69c.09-.06.2 0 .15.15a1.42 1.42 0 0 0 0 1.3c.14.43-.27.31-.39-.1a1.19 1.19 0 0 1 .24-1.35Zm38.5-9.05a5.663 5.663 0 0 1-.47 3.69.13.13 0 0 0-.011.055.13.13 0 0 0 .011.055.38.38 0 0 0 .69.28 7.246 7.246 0 0 1 2.76-2.57 6.36 6.36 0 0 1 4.3-.31h.1a.341.341 0 0 0 .359-.22.34.34 0 0 0-.129-.4c-2.22-1.34-2.28-4.08-1.38-6.29.15-.17.29-.36.43-.55a.348.348 0 0 0-.131-.421.35.35 0 0 0-.439.041 7.601 7.601 0 0 1-3.28 2.27c-.367.094-.742.15-1.12.17-.332.05-.665.084-1 .1a6.247 6.247 0 0 1-2.12-.58c-.37-.15-.65.34-.39.63a7.154 7.154 0 0 1 1.82 4.05Zm6.24.33a6.55 6.55 0 0 0-5.46 1.86c.15-.783.15-1.587 0-2.37a7.731 7.731 0 0 0-1.2-3.33 5 5 0 0 0 2.46.06 5.88 5.88 0 0 0 3.41-1.38 5.542 5.542 0 0 0 .79 5.16ZM35.754 99.05a8.2 8.2 0 0 1-3.61-4.11c-.24-.46-1-.11-.72.35 1 2.07 2 4.45 1.61 6.47a1.335 1.335 0 0 0 0 .2c-.31 1.11-1.26 3.72-3.34 3.89a.418.418 0 0 0-.27.14.41.41 0 0 0 .36.66c1.739-.23 3.5-.23 5.24 0a6.283 6.283 0 0 1 4.31 2.46.43.43 0 0 0 .73-.44 9.299 9.299 0 0 1 .42-9.46c.254-.241.473-.517.65-.82a.41.41 0 0 0-.64-.5c-.22.227-.42.471-.6.73a4 4 0 0 1-4.14.43Zm2.73 8.15c-2.39-1.66-4.71-1.48-6.71-1.54a7.173 7.173 0 0 0 1.9-7.24 5.22 5.22 0 0 0 5.42 1.46 10.08 10.08 0 0 0-.61 7.32Zm104.16-70.57c.022.003.045 0 .066-.009a.128.128 0 0 0 .054-.041l.2-.21a6.106 6.106 0 0 1 2.47-1.32 4 4 0 0 1 2.7.63c.134.146.281.28.44.4.29.22.61-.2.39-.45a3.86 3.86 0 0 1-.07-5.22l.25-.23c.34-.29-.1-.79-.48-.53a9.768 9.768 0 0 1-2.3 1.69 4.68 4.68 0 0 1-3.09 0 .35.35 0 0 0-.36.57c1.13 1.25.35 3-.62 4.21-.19.23.04.66.35.51Zm1.28-4.39a5.251 5.251 0 0 0 2.66-.23c.285-.14.562-.298.83-.47a4.603 4.603 0 0 0 .11 3.19 4.11 4.11 0 0 0-2.06-.27 6.687 6.687 0 0 0-1.69.61 3.387 3.387 0 0 0 .15-2.83Z"/><path fill="#000" d="M172.504 147.49c-14.22 0-32.59-.16-32.61-.16 0-2.52-.2-22.55-.2-22.67a.158.158 0 0 0-.15-.15h-9.51c.25-.23-.59 2.85.94-59.9.65-27.1.93-40.67.49-40.87-.11-.05 0-.1-2.31 1.49a.308.308 0 0 1-.33.02.317.317 0 0 1-.122-.122.316.316 0 0 1-.038-.168c0-.16 0-.08 2.17-1.56a.15.15 0 0 0 .053-.073c.01-.03.01-.06.001-.09a.149.149 0 0 0-.134-.107c-2.82-.17-14.1-.24-31-.19.67-1.64.41-2.6.43-4.48 0-.26-.74-.82-1.08-1a8.087 8.087 0 0 0-3.07-.56c-.39-1.24-.86-2.67-.86-2.67a1.33 1.33 0 0 0-2.45-.2c-.503.91-.944 1.851-1.32 2.82a6.919 6.919 0 0 0-3 .39 34.99 34.99 0 0 1-1.67-3.24c-.86-1.8-.22-.48-3-5.57a.92.92 0 0 0-1.69.23c-2.27 9.69-2 9.48-2.63 10.44-.22.28-.5.36-1.27-.09a12 12 0 0 1-3.56-3.36.59.59 0 0 0-1.07.38c.053.672.15 1.34.29 2a1.627 1.627 0 0 0 0 .66c.012.354.116.698.3 1 0 0 .17.94.17 1 .15.8.3 1.64.5 2.43-16.21.19-24.67.49-25.15.88a24.167 24.167 0 0 1-2 1.51c-.28.21-.4.32-.42.51 0 2.48-2.41 100.57-2.42 101.31a.31.31 0 0 0 .31.31c3.31 0 12-.19 22.55-.38-18.7 3.13-21.33 3.54-21.91 3.72-.3 0-.24.11-.23 9.24-40.47 9.25-40.22 9.11-40.36 9.28-.14.17 0-.69 0 22.56 0 .24-6.22 0 141.73 3.32a16.1 16.1 0 0 0 2.35-.76c24.11-12.62 22.58-11.75 22.58-11.87.97-15.75 1.04-15.26.7-15.26Zm-96.82-129a1.37 1.37 0 0 0-1.35-1.11 21.7 21.7 0 0 1-.15-1.16 12.64 12.64 0 0 0 3.66 3.32c.39.22 1.42.81 2.13-.09.418-.684.69-1.446.8-2.24.27-.82 1.38-6 1.94-8.43a.28.28 0 0 1 .51-.07l.47.89c1.66 3.19 1.4 2.39 2.48 4.69.7 1.47 2.43 5.42 3.89 5.12 1.11-.24 1.68-1.61 2.14-2.72.328-.803.705-1.584 1.13-2.34a.69.69 0 0 1 1.27.11c0 .05 1.67 5.16 2.24 7.09a.449.449 0 0 0 .32.33c.46.1 1.2-.5 1.72-1 .287-.275.536-.588.74-.93.065.495.065.995 0 1.49a6.15 6.15 0 0 1-2.81 2.17c-4.81 2.16-11.51 2.78-17.48 1.62a6.53 6.53 0 0 1-3.67-1.71c-.44-1.56-.48-2.51-.72-3.44.58.01.94-.87.74-1.63v.04ZM45.334 127c.2-4.68 2.47-96.61 2.5-101.05 2.94-.75 24.7-.66 27.75-.64.147.274.32.532.52.77 1 1.09 3.11 1.51 5.06 1.77 4.448.715 9 .424 13.32-.85a9.621 9.621 0 0 0 3.4-1.45c11.92.11 18.58.19 30.44.06 0 .29 0 .87.06 2 .17 6.71-1.17 97.91-1.17 97.94L45.334 127Zm66.32 31h34.78v16.7l-34.83-.8c.07-4.01.05-9.61.05-15.9ZM94.514 26.29a29.162 29.162 0 0 1-13.19 1c-3.18-.41-4.52-.79-5.32-2.53 2.24 1.43 6.8 1.69 9.44 1.69a29.88 29.88 0 0 0 11.06-2.12 6.28 6.28 0 0 0 2.87-2 5.694 5.694 0 0 1-.79 1.6c-1.03 1.47-2.57 1.93-4.07 2.36ZM5.804 149.92h39.9v3.57c-.15 6.59 0 10.85 0 18.81l-39.9-.91v-21.47Zm40.45 19.72c.32-11.85-.14-16.73 0-24.71.17-9 0-6.75 0-13.4h64.79v42.3s-34.66-.82-64.79-1.51v-2.68Zm65.41-38.86h-61.72l21.54-3.6c56.56-1.1 56.6-1.06 56.7-1.12a3.544 3.544 0 0 0 1.45-1.06l8.29-.08-26.26 5.86Zm59.67 17.15-24.58 9.42h-33.68l26.54-9.42h31.72Zm-31.87-.64-27.68 9.83v-25.3l27.38-6.52c.02 13.35.41 21.96.31 21.99h-.01ZM97.404 21.21c-.31-1-.75-2.43-1.15-3.72 1.154.1 2.285.383 3.35.84a4.12 4.12 0 0 1-2.2 2.88Zm-6.21-3.8c-.33.68-.75 1.29-1.23 1.38-.48.09-.84-.49-1.3-1.19a7.068 7.068 0 0 1 2.53-.19Zm-45.65 131.88c-9.58-.11-25.84-.23-36.83-.18l36.82-8.42c0 2.31.01 5.11.01 8.6Zm103.43 24.62-1.88.62v-16.61l25.13-9.63-.95 14.1-22.3 11.52Zm-74.85-155.6c0-.27.31-.49.31 0v.58a.28.28 0 0 1 .38.08c.14.23-.07.53-.41.3-.34-.23-.29-.69-.28-.96Z"/><path fill="#000" d="M90.334 65.62a19.212 19.212 0 0 1 4.1-1.73c-1.42-1.2-3.77.18-4.1 1.73Zm4.4 5.75c.39.12.63-.14.92-.14.243-.06.497-.06.74 0 1.56.39 1.75.94 2.56.63 1.17-.66.32-2.26-.15-3.5-.47-1.24-1.51-3.68-1.58-3.84a.101.101 0 1 0-.19.07c1 3.26 1.82 5 2 5.92.12.7-.15 1.12-1 .72a6.2 6.2 0 0 0-1.47-.48c-.92-.12-1.36.35-1.62.29a.51.51 0 0 1-.31-.51c.024-.254.102-.5.23-.72.08-.16-.09-.22-.15-.13a1.86 1.86 0 0 0-.37.82.83.83 0 0 0 .39.87Zm-1.62-4.45c-.16-.85-.79-.54-.9-.27-.017.363.02.727.11 1.08a.44.44 0 0 0 .41.31c.6-.04.49-.54.38-1.12Zm6.87-.79c-.15-.51-.19-.69-.37-.79a.47.47 0 0 0-.67.36c.028.325.12.64.27.93.25.49 1.05.37.77-.5Zm-1.25 6.98a6.75 6.75 0 0 1-4.5-.26.23.23 0 0 0-.28 0 .2.2 0 0 0 0 .24 3.45 3.45 0 0 0 4.38 2.09.232.232 0 0 0 .165-.208.23.23 0 0 0-.325-.222 2.93 2.93 0 0 1-3.54-1.26 7 7 0 0 0 4.27.06.236.236 0 0 0-.17-.44Z"/><path fill="#000" d="M88.823 34.59a33.79 33.79 0 0 0-33.49 28.09c0 .33-.18.77-.16 1.07a33.93 33.93 0 0 0 26.79 38 33.254 33.254 0 0 0 30.7-9.27l.1-.12a33.925 33.925 0 0 0 7.203-36.83 33.93 33.93 0 0 0-31.143-20.94Zm-1.95 32.23a7.62 7.62 0 0 1 .1-2.65c.69-2.51 3.68-3.57 5.64-5a8.288 8.288 0 0 0 1.37-1.28c.53.27 4.23 2.36 4.59 2.62a4.82 4.82 0 0 1 1.16 1.22c.055.383.142.761.26 1.13a1.81 1.81 0 0 0-2.33.74c.911-.131 1.84.022 2.66.44l.52 1.92a14.15 14.15 0 0 1 .21 7.31 7.076 7.076 0 0 1-6.67 5.28.37.37 0 0 0-.5.25v1.5a3.46 3.46 0 0 0 .37 2 3.75 3.75 0 0 0 1.5 1.86c-2.29 4.63-9.79 5.57-14.29-.83a17.849 17.849 0 0 0 3.36-6.59c.47-1.35 1.44-4.18.38-4.8a.38.38 0 0 0-.33 0 3 3 0 0 1-3-4.81c.125-.158.282-.288.46-.38a1.15 1.15 0 0 1 1 .17c1.59 1.13 1.22 2.28 3 3.26a.11.11 0 0 0 .13 0 6.08 6.08 0 0 0 .41-3.36Zm-5.77 16.88c4.74 6.83 12.76 5.81 15.26.79.235.119.475.225.72.32-.35.57-.61 1.21-1 1.74-4.25 6-11.92 4.2-15.62-2.23.22-.19.43-.4.64-.62Zm-1 .89c3.73 6.61 11.65 8.54 16.32 2.45a5.369 5.369 0 0 0 1.15-2l.37.12a9.122 9.122 0 0 1-1.14 3.11A8.86 8.86 0 0 1 82.573 90a15.93 15.93 0 0 1-3.24-4.83c.281-.178.552-.371.81-.58h-.04Zm-1.12.8c1.84 4.26 5.32 8 10 8 4.27 0 8.33-3 9.51-8.06.44.11.89.2 1.35.29a2.26 2.26 0 0 0 2.9-1l.16-.22a14.639 14.639 0 0 1 9.46 7.41 33.289 33.289 0 0 1-48.1-.81c.163-.188.31-.389.44-.6a15.539 15.539 0 0 1 6-5.23 3.559 3.559 0 0 0 2.4 1.53 8.93 8.93 0 0 0 5.92-1.31h-.04Zm34 5.79a15.141 15.141 0 0 0-9.59-7.39l1.46-2a7.779 7.779 0 0 0 1.5-2.64c.77-2.43-.92-4.45-1.5-7.55a18.217 18.217 0 0 1 .75-6.84c.6-2.56 1.21-5.2.59-7.8a4.045 4.045 0 0 0-1.11-2 5.603 5.603 0 0 0-1.1-.72 4.548 4.548 0 0 1-2.5-3.31c-.13-.37-.27-.76-.43-1.12-1.49-3.36-5.36-5.73-10.37-6.34-2.26-.32-7.83-.54-10.83 3.27-.53.69-.94 1.49-1.58 2.32a14.241 14.241 0 0 1-4.22 3.17c-2.72 1.55-5.72 3.69-5.51 6.77a8.86 8.86 0 0 0 1.33 3.72c.77 1.36 1.5 2.66 1.31 4.11a7.36 7.36 0 0 1-1.85 3.42c-.11.12-.21.25-.31.38-.82 1-1.86 2.55-1.48 4.15a5.6 5.6 0 0 0 2.37 2.8l.52.42c.54.45 2.23 2 1.57 3.62-.52 1.09-1.15 1.12-1.51 2.36-.06.233-.06.477 0 .71a17.19 17.19 0 0 0-6.1 5.06c-.21.245-.391.513-.54.8a33.06 33.06 0 0 1-5.81-34.69c8.67-20.64 34.65-27.16 51.77-13 15.85 13.14 15.61 34.98 3.19 48.32h-.02Z"/><path fill="#000" d="M83.954 70.67c-.27 0-.49.16-.49.36 0 .2.22.36.49.36s.49-.16.49-.36c0-.2-.22-.36-.49-.36Z"/></svg>