<svg xmlns="http://www.w3.org/2000/svg" fill="none" viewBox="0 0 191 172"><path fill="#000" d="M109.487 49.11c.47-5.11 4.76-11.19 11.18-14.11a55.54 55.54 0 0 0 2.29 5.35 5.324 5.324 0 0 0 1.86.76c1.87 6.76 1 7.67 1.33 8 .09.1-.42.06 9.22.06a.42.42 0 0 0 .36-.41 61.144 61.144 0 0 1 1-8 2.23 2.23 0 0 0 1.17-.8 35.699 35.699 0 0 0 1.37-4.91c.51.23 1 .45 1.44.69a21.45 21.45 0 0 1 5.71 4.75c1.67 2.13 3.77 5.37 3.93 8.09 0 .07.25.14.29 0 .04-.14 0-.27 0-.37-.11-2.67-2.12-6-3.68-8.15a21.49 21.49 0 0 0-5.92-5 24.746 24.746 0 0 0-5.59-2l-1.27-4.22c2.71-.37 2.6-.43 3.22-.11.379.26.821.411 1.28.44a6.72 6.72 0 0 0 2.84-.7c.42-.2.72-.61 1.1-.71a5.738 5.738 0 0 1 1.92.2 1.909 1.909 0 0 0 1.82-.84c.23-.37.31-.8.6-1.24.1-.15.58-.11.86-.23a3.057 3.057 0 0 0 2.2-3.22c-.13-1.51-1-2.54-1.1-4.29-.1-1.75.29-2.78-.57-4.18-.86-1.4-2.88-2.86-3.44-4.37-.4-1.1 0-2.32-.84-3.25a11.623 11.623 0 0 0-2.15-1.86 17.648 17.648 0 0 0-2.84-.76c-.61-.18-.84-.65-1.25-1.17a4.997 4.997 0 0 0-4.89-1.9c-.88.25-1.42.49-2.48.87a10.55 10.55 0 0 0-4-.21c-1.28.307-2.509.795-3.65 1.45a5.13 5.13 0 0 0-2.49 3.85c0 .3 0 1-.19 1.12-.95.76-2.64.3-3.85 1.11a4.752 4.752 0 0 0-1.92 3.33c0 .36.15.93 0 1.16-.31.62-1.1.79-1.62 1.32a7 7 0 0 0-1.66 2.57 2.777 2.777 0 0 0 .59 2.78c.86 1 1.19 1.43 1 2.85a3.392 3.392 0 0 0 .29 2.74c.409.642.96 1.183 1.61 1.58.54.18.85-.5 1.4-.37.26.07.67 1.23 1.35 1.6 1.1.59 1.89-.08 2.91.14.39.08 1.09.41 1.54.29a4.66 4.66 0 0 1 1.76-.28c.393.1.807.068 1.18-.09.58-.15 1 .32 1.64.24-.27 1.09-.75 3-1 4.1-1.59.352-3.153.813-4.68 1.38a19.83 19.83 0 0 0-10.5 10.59 15.278 15.278 0 0 0-1 4.34c-.03.2.3.18.32 0Zm16.46-16c.08-.44.21-1 .37-1.69 1-4.07 1.17-4.15.82-4.33a4.931 4.931 0 0 1-1.83-1.74 31.873 31.873 0 0 1-2.36-5.67.32.32 0 0 0-.15-.19 7.433 7.433 0 0 1-2.34-2.23 1.467 1.467 0 0 1 .08-1.75c.42-.52.88-.14 1.52.15a.39.39 0 0 0 .51-.25c.27-.82 1.39-5.65 2.87-6.91a7.775 7.775 0 0 1 2.23-1.32c-.05.13-.19.49-.25.61-1.55 1.61-.88 3.14.35 5 .45.521 1.024.92 1.67 1.16 1.4.76 3.25.91 4.42 1.86 1.54 1.26-.2 3.36 2.15 5a2.7 2.7 0 0 0 1.06.47c-1.41 3.9-1.94 5-3.81 5.9a.312.312 0 0 0-.17.4c.15.42 1.82 5.81 1.82 5.81.12.4.62.06 3.69 1.29a39.743 39.743 0 0 1-1.31 5c-.34.65-3 1-3.71 1.13-2.64.35-8 .6-10.16-.93-.26-.5-1.89-4.66-2.11-5.21 3.52-1.5 4.54-1 4.64-1.53v-.03Z"/><path fill="#000" d="M129.267 19.47c.35.57 1.17.41 1.8.19a.14.14 0 0 0 .12-.16c0-.2-.2-.06-.91-.19-.07 0-.45-.11-.39-.16-.082-.3-.122-.61-.12-.92 0-.06-.06-2.42 0-2.48a.154.154 0 0 0-.025-.104.151.151 0 0 0-.195-.048.147.147 0 0 0-.07.082 5.995 5.995 0 0 0-.21 3.79Zm-5.06-.83a.36.36 0 0 0-.11.71.346.346 0 0 0 .33 0 .37.37 0 0 0 .245-.465.371.371 0 0 0-.465-.245Zm1.05-.99c-.55 0-.31.73 0 .73a.368.368 0 0 0 .309-.365.368.368 0 0 0-.309-.365Zm.6 2.23a.387.387 0 0 0-.324-.056.386.386 0 0 0-.246.216.387.387 0 0 0-.07.19.383.383 0 0 0 .37.41.44.44 0 0 0 .27-.76Zm.72-4.55c-.43 0-.49 1 0 1s.45-.98 0-1Zm6.53 1.02c.3 0 .52-1 0-1-.3.06-.44 1 0 1Zm-4.04 6.99a2.067 2.067 0 0 0 2 .26 2.642 2.642 0 0 0 1.52-1.24.155.155 0 0 0 .021-.094.153.153 0 0 0-.126-.133.15.15 0 0 0-.095.017c-.28.17-.69.37-.79.42a3.785 3.785 0 0 1-1.54.5 3.515 3.515 0 0 1-.86 0 .152.152 0 0 0-.115-.006.139.139 0 0 0-.05.03.137.137 0 0 0-.035.046.14.14 0 0 0-.015.057c-.001.02.002.039.008.058a.147.147 0 0 0 .077.085Zm-83.68-5.17a.33.33 0 0 0-.66 0v1a.33.33 0 1 0 .66-.05c.01-.12-.01-.83 0-.95Zm8.28-.1v.91a.33.33 0 1 0 .66.05v-1a.33.33 0 0 0-.66.04Zm-4.51 7.78a1.62 1.62 0 0 0 2.45-1.43.14.14 0 0 0-.27 0 1.53 1.53 0 0 1-.4.5 2 2 0 0 1-1 .58 2.692 2.692 0 0 1-.67.12.132.132 0 0 0-.11-.022.129.129 0 0 0-.098.126.131.131 0 0 0 .047.1.13.13 0 0 0 .05.026Z"/><path fill="#000" d="M52.757 50.52a.13.13 0 1 0 .26 0c-.2-2.5-1.09-7.3-1.58-8.15.22-.47.64-1.5.84-2.11.29.18.6.4.84.24a58.972 58.972 0 0 0 4.32-4.67c6.17 2.36 10.81 6.48 12.33 12.91a.134.134 0 0 0 .243.04.133.133 0 0 0 .017-.1c-1.44-6.48-6-10.75-12.26-13.25.12-.16.24-.31 0-.5a22.404 22.404 0 0 0-2.75-1.59c-.1-.06-.1 0-1 .64-.19-1.05-.88-4.69-1-5.48a7.43 7.43 0 0 0 4.48-3.75 36.626 36.626 0 0 0 1.17-4.75c.87-1.15 1.8-3 1-4.14a6.51 6.51 0 0 0 .4-.86 1 1 0 0 0 0-.86 1.465 1.465 0 0 0-.13-.25c.44-.59.29-1.12 0-1.81a1.13 1.13 0 0 0-.33-.49c.124-.119.232-.253.32-.4a2.24 2.24 0 0 0-.85-2.43 1.629 1.629 0 0 0-.45-.17A2.19 2.19 0 0 0 56.767 6a1.66 1.66 0 0 0-1.11.24A2.28 2.28 0 0 0 52.377 5l-.25.12c-.11-.38-.1-.82-.57-1.09a2 2 0 0 0-2.31.57c-.3-.26-.34-.51-1.43-.6a2.43 2.43 0 0 0-1.69.47c-.13.11-.37.44-.46.51a1.278 1.278 0 0 0-.3-.16 2.89 2.89 0 0 0-1.43.08 2 2 0 0 0-1.27 1.24c-.4.13-.93-.39-2.29 1.23-.263.316-.43.702-.48 1.11a3.67 3.67 0 0 0 0 .44c-.29.27-.64.39-.91.68a2.64 2.64 0 0 0-.41 2.14c0 .1.3.5.16.51-.14.01 0-.05 0-.09-.36.288-.626.678-.76 1.12a2.45 2.45 0 0 0 .3 1.51c.09.14.26.26.39.46a.76.76 0 0 0-.29.58c-.002.257.075.508.22.72-1.06 1.52.21 3 1.82 4 .12 1.168.344 2.322.67 3.45a7.189 7.189 0 0 0 4.32 4.29c-.27 1.44-.62 4.23-.8 5.68-1.06-.75-1-.77-1.15-.71a26.863 26.863 0 0 0-2.93 1.61.34.34 0 0 0-.11.23 18.13 18.13 0 0 0-8.07 5.9 16.37 16.37 0 0 0-3.52 7.54.14.14 0 0 0 .22.074.14.14 0 0 0 .05-.074 16.001 16.001 0 0 1 3.57-7.34 17.841 17.841 0 0 1 8-5.71 61.746 61.746 0 0 0 4.87 5c.26.17.65-.1 1.19-.43.33.821.756 1.6 1.27 2.32a83.461 83.461 0 0 0-.72 8.45.13.13 0 1 0 .26 0c6.89-.42 4.84-.31 5.22-.31Zm2.26-16.94c.38.24 2 1.27 2.35 1.55-.09.11-4 4.26-4.49 4.73a31.128 31.128 0 0 1-2.78-2c.18-.13 4.7-4.08 4.92-4.28Zm4.27-16.23a5.788 5.788 0 0 1-1 2.16c.226-1 .146-2.046-.23-3-.37-.88-.49-.53-.13-.79.25 0 .32-.06.49 0a1.41 1.41 0 0 1 .87 1.63Zm-9 1a1.51 1.51 0 0 0-1.51 0c0-2.83-2-3.77-4.83-3.73a3.11 3.11 0 0 0-2.58 1.38c.59-3.11 1.57-5.47 4.43-6.91a8.89 8.89 0 0 1 5.49-.62c2.35.51 3.73 2 4.75 4.21.261.585.462 1.195.6 1.82.05.21.05.28.07.39a3.15 3.15 0 0 0-1.58-.47c-2.91 0-4.91 1.02-4.83 3.9l-.01.03Zm-3.72 3.06c-2.31 1.08-4.54 0-5-1.41-.71-2.24.16-4.76 2.38-4.87 6.36-.4 4.81 5.29 2.62 6.28Zm4.15-4.32c.51-1.82 2.5-2.17 4.38-2.05 2.24.11 3.08 2.65 2.38 4.87a2.939 2.939 0 0 1-2.1 1.72 4.06 4.06 0 0 1-2.86-.32 3.9 3.9 0 0 1-1.8-4.22Zm-11.78 1.1a1.371 1.371 0 0 1 1-1.82c.52 0 .75.37 1.06.38a5.35 5.35 0 0 0 0 3.41c-.16-.16-1.63-.8-2.06-1.97Zm7.09 9.93a.29.29 0 0 0-.19-.33 6.7 6.7 0 0 1-4.18-4 20.565 20.565 0 0 1-.63-3.4c.68 1.73 3.21 2.87 5.78 1.58a4 4 0 0 0 2-3.25c.21.064.43.094.65.09a31.63 31.63 0 0 0-.49 3.59 6.14 6.14 0 0 0 0 .86.49.49 0 0 0 .14.32c.63.41 1.53 0 1.88 0a.13.13 0 0 0 .13-.14c0-.23-.41-.08-1.16-.17a1.179 1.179 0 0 1-.39-.11c.196-1.455.23-2.927.1-4.39 1.05 0 .39-.48.88.93a4.17 4.17 0 0 0 7.37.82 31.727 31.727 0 0 1-1 3.93 6.68 6.68 0 0 1-1.79 2.23c-1.78 1.42-2.88 1.07-2.77 1.65.16.77 1 4.82 1.19 6a51.367 51.367 0 0 0-4.08 3.37 48.508 48.508 0 0 0-4.36-3.41c.02-.1.56-4.44.92-6.17Zm-.09 11.68c-.17.1.09.34-2.77-2.53l-2.17-2.2c.35-.29 2.09-1.33 2.51-1.58.24.19 5.09 4.22 5.28 4.4a24.753 24.753 0 0 1-2.85 1.91Z"/><path fill="#000" d="M44.867 16.3c-.76-.09-1.25.33-1.19.48.06.15 1.84.16 1.92 0 .08-.16-.38-.44-.73-.48Zm9.17.56h.34a2.76 2.76 0 0 0 .76-.13c.12-.19-.37-.47-.72-.51-.77-.1-1.26.33-1.19.48.257.105.532.16.81.16Zm109.71 96.69a1.078 1.078 0 0 0 .917-.479 1.07 1.07 0 0 0 .083-1.031 1.137 1.137 0 0 0-1.225-.604 1.138 1.138 0 0 0-.925 1.004 1.077 1.077 0 0 0 1.15 1.11Zm-.53-1.29c.11-.8 1.1-.52.9.25a.459.459 0 0 1-.691.215.459.459 0 0 1-.169-.215.732.732 0 0 1-.04-.25Zm.28-3.85a1.078 1.078 0 0 0 .917-.479 1.07 1.07 0 0 0 .083-1.031 1.137 1.137 0 0 0-1.225-.604 1.138 1.138 0 0 0-.925 1.004 1.077 1.077 0 0 0 1.15 1.11Zm-.53-1.3c.11-.78 1.1-.53.9.26a.459.459 0 0 1-.691.215.459.459 0 0 1-.169-.215.697.697 0 0 1-.04-.26Z"/><path fill="#000" d="M149.067 73.73a19.577 19.577 0 0 0 .21 6 3.005 3.005 0 0 0-.08 2.9 5.287 5.287 0 0 0 2.28 2.16c1 3.08 2.12 6.58 4.93 8.49-.22.7-1 3.14-1.2 3.94l-.54-.22c-.12 0 0-.08-1.92 1.4-6.11 1.65-9.45 4.44-12.94 9.25a44.91 44.91 0 0 0-3.56 5.74.15.15 0 0 0 .06.2c.37.19.32-1 3.89-5.66 3.57-4.66 6.64-7.14 12.27-8.73.37.26 6 4.27 6.56 4.47.74.29 1.42-1.18 1.76-2-.09 4.61.13 9.63.41 13.31a.153.153 0 0 0 .145.112.147.147 0 0 0 .092-.032.146.146 0 0 0 .053-.08c.21-4.91-.07-11-.21-12.83-.17-2.07-.31-1.16.83.56.31.46.77 1.06 1.27.84.5-.22 6-4.52 6.2-4.71a21.005 21.005 0 0 1 5.62 2.61 30.917 30.917 0 0 1 7.14 6.91c2.76 3.67 2.63 4.8 3 4.65a.15.15 0 0 0 .08-.19 30.347 30.347 0 0 0-9.83-11.92 21.139 21.139 0 0 0-6-2.79c-2.36-1.65-2-1.54-2.41-1.36-.33-1-.86-2.5-1.48-4a8.87 8.87 0 0 0 2.28-3 16.445 16.445 0 0 0 1.35-5.6 3.92 3.92 0 0 0 1.61-3.19c0-.57 0-.36.1-.52.158-.272.285-.56.38-.86a8.5 8.5 0 0 0 .48-3.7c0-3.75-.78-6.84-4.19-8.5a23.19 23.19 0 0 0-3.64-1.38 18.83 18.83 0 0 0-6.73.06c-4.46 1.15-7.58 3.13-8.27 7.67Zm10.14 29.27c-.19-.11-5.89-3.82-6.34-4.1l1.72-1.56 6 3a10.242 10.242 0 0 1-1.38 2.66Zm8.21-6 1.79 1.48c-.44.3-5.94 4.29-6.12 4.42a10.4 10.4 0 0 1-1.49-2.59c.07 0 3-1.75 4.69-2.67l1.13-.64Zm2.82-16.1a3.29 3.29 0 0 1-1.43 2.8c-.16.14-.14.38-.18.8-.25 2.94-1.13 6.13-3.41 8-.32.25.21.56 1.54 4.44-1.6.85-4.17 2-5.56 2.81-.15.09-.07.09-.26 0-1.5-.79-3.4-1.45-5.33-2.35.13-.45 1.06-3.29 1.33-4.11.16-.48-1.05-.37-2.69-3.18-1.47-2.52-2-5.5-2.3-5.73-.3-.23-2.89-1.38-2.28-3.85a.697.697 0 0 1 .34-.49c.42 0 .77-.12 1-.13.23-.01.09 0 .49.35.64.59 1.09.35 1.2-.24.27-1.39.48-5.11.93-6.44.13-.36-.06-.07 1.22.1 3.1.4 9.76-.48 12.07-.7.5.87.82 5.56 1.13 6.12a.381.381 0 0 0 .46.21 1.19 1.19 0 0 1 1.72.84c.023.246.027.493.01.74v.01Z"/><path fill="#000" d="M165.477 78.45c-.31-.02-.62-.02-.93 0-.4 0-1.34.3-1.26.55.08.25 3.47.16 3.52 0 .14-.25-.84-.51-1.33-.55Zm-9.14.12a5.822 5.822 0 0 0-.93 0c-.4 0-1.34.28-1.26.54.08.26 3.47.17 3.53 0 .13-.24-.84-.5-1.34-.54Zm.43 2.51a.368.368 0 0 0-.365-.31.369.369 0 0 0-.365.31v.81a.362.362 0 0 0 .36.36.362.362 0 0 0 .36-.36c.02-.2.02-.6.01-.81Zm3.16 4.63c.27.73 1.41.43 2.13 0a.15.15 0 0 0 .056-.08.148.148 0 0 0-.07-.172.149.149 0 0 0-.096-.018 2.519 2.519 0 0 1-1.36 0c-.16-2.5 0-1.51-.21-4.29 0-.15-.24-.28-.29 0a12.992 12.992 0 0 0-.16 4.56Zm5.17-4.94a.368.368 0 0 0-.365-.31.369.369 0 0 0-.365.31v.8a.367.367 0 0 0 .365.31.369.369 0 0 0 .365-.31c.01-.1 0-.67 0-.8Zm-3.87 7.65c-.38 0-2-.06-2.07.19-.07.25 1.63.81 2.92.42.18-.06 1-.37 1-.58 0-.21-.08-.09-1.85-.03Zm-74.42-3.75c0-.29-1.2-.37-1.67-.34-.47.03-1.63.3-1.61.54.04.41 3.26.13 3.28-.2Zm-1.24 1.27c-.16.07-.28.13-.28 1.24a.36.36 0 1 0 .72 0v-.76a.36.36 0 0 0-.44-.48Zm5.8 4.58a.15.15 0 0 0 0-.29c-.3 0-.7-.08-1-.15a3.089 3.089 0 0 1-.32-.11c-.08-.28.09-3.75-.1-4.63 0-.2-.25-.32-.32.16s-.16.85-.24 1.7a12.28 12.28 0 0 0 0 3c.28.63 1.28.39 1.98.32Zm3.43-5.78c.32 0 1.32-.14 1.31-.38-.01-.24-1.23-.36-1.59-.36-.36 0-1.62.08-1.61.36.01.28 1.49.39 1.89.38Zm-.67 1.35a.36.36 0 1 0-.71 0c0 .44 0 .76.06 1a.36.36 0 1 0 .71-.07c-.02-.19-.03-.48-.06-.93Zm-3.78 8c0 .29 1.34.34 2.06-.22.36-.28.71-1 .52-1.12-.19-.12-.1 0-.92.55-.58.36-1.68.54-1.66.79Zm-61.89 15.56c-.26-.9-.63-2.05-.93-2.94 1.12-.86 2.07-1.922 2.8-3.13-.15 1.29-.07 1.45.14 1.89-.379.424-.68.912-.89 1.44-.31.87.23 1.51 1.21 1.31.98-.2 1-1.52 1.38-1.92.47 0 .79 0 1.33-.93.332-.841.554-1.722.66-2.62a6.133 6.133 0 0 0 1.62-2.59 4 4 0 0 0 .19-2.38c.18-.242.318-.513.41-.8.45-1.32.69-3.37-.14-4.44-.15-.18-.45-.46-.67-.43.115-.378.192-.767.23-1.16-.13-1.43-.52-2.62-1.85-3.18-.09 0-.63-.13-.88-.21-.16-.61.12-1.31-.95-2.17a2.57 2.57 0 0 0-1.11-.55 1.51 1.51 0 0 0-.75.11 1.7 1.7 0 0 0-.35-.77 3.46 3.46 0 0 0-2.63-.82 6.512 6.512 0 0 0-2.35.53.52.52 0 0 0-.46-.32c-.21 0-.15 0-.2-.18-.31-1-1.09-.93-1.77-1a1.79 1.79 0 0 0-1.5-.52c-.37.097-.73.235-1.07.41a4.945 4.945 0 0 0-.89-.39c-1.32-.17-1.94.51-2.66 1.59-.69 0-.94-.22-1.76.25a5 5 0 0 0-1.51 1.35c-.215.35-.387.727-.51 1.12-.029.23-.029.46 0 .69a2.66 2.66 0 0 0-1.43 1.11c-.88 1.42-.22 3.31.44 3.62a1.7 1.7 0 0 0 .4.13 1.91 1.91 0 0 0-.29 1.25 1.5 1.5 0 0 0 1.49 1.49 4.47 4.47 0 0 0-.1 3 2.74 2.74 0 0 0 .76 4.18 2.316 2.316 0 0 0 1.87 0 8.068 8.068 0 0 0 3.38 5.13c-.12.45-.57 2.26-.66 2.64a31.278 31.278 0 0 0-6.45 1.82c-6.62 2.69-11.13 7.65-11.34 15 .008.03.026.056.05.074a.138.138 0 0 0 .17 0 .136.136 0 0 0 .05-.074c.28-5.65 3.16-9.9 8-12.77 1.29.95 4 2.62 4.46 3.16-.49 1.12-2 3.22-2 3.73 0 .31-.17-.1 6.5 5.67a.131.131 0 0 0 .144.025.133.133 0 0 0 .057-.051.129.129 0 0 0 .019-.074h1.87c.08.24.31.11.26 0l-3.5-12c3.12 2.61 9.64 2.89 12.64.64l-3.28 11.23c0 .15.19.28.27 0h2.12a.133.133 0 0 0 .076.125.131.131 0 0 0 .144-.025c6.3-5.44 6.16-5.06 6.17-5.37 0-.5-1.45-2.6-2-3.73a43.488 43.488 0 0 1 3.62-2.56c3.79 3 5.7 6.83 6.82 11.33.01.034.032.064.063.082a.135.135 0 0 0 .197-.152c-1.72-8.29-6.4-13.89-15.13-15.87Zm-14.67-8.77a2.59 2.59 0 0 1-.4-2.95 3.2 3.2 0 0 0 2 1c.05.79.16 1.576.33 2.35a2.231 2.231 0 0 1-1.93-.4Zm14.48 13.6c-2.4 1.37-8 1.25-10.62-.6a9.618 9.618 0 0 1-1.08-.88l-.75-2.56c.91-.25 1.84-.46 2.75-.62.16 0 .09 0 .46-1.64s.43-1.57.31-1.65c-2.44-1.52-3.37-4.42-3.55-7.29 0-.49 0-.57-.18-.64-.18-.07-1.35-.18-1.91-1a1.7 1.7 0 0 1 .73-.33.14.14 0 0 0 .103-.135.14.14 0 0 0-.103-.135 2.21 2.21 0 0 0-.9.2 2.79 2.79 0 0 1-.12-1.25c.06-.66.31-2 1-2 .145.172.31.326.49.46a.269.269 0 0 0 .2.12c1.22.63 1.79-1.18 2.31-2.23.1-.21.11-.84.19-1.17.37 0 .5.15 1.58-.48.85-.49.93-1.35 1.27-2.09h.74c.39-.025.772-.116 1.13-.27a2 2 0 0 0 .21.87 6.74 6.74 0 0 0 2 2.36c.321.153.656.277 1 .37-.62.51-.36 2.66 1.36 3.31.264.093.535.163.81.21-.1.54-1.15 1.9 1.44 2.89.181.039.365.065.55.08-.05.14-.13.36-.14.42a2.44 2.44 0 0 0 0 1.17c.15.52.59.72.87 1-.14.5-.3.74 0 1.14-1.79 3.83-3.75 4-3.53 4.59.34 1 .79 2.32 1.07 3.32.09.34.33.12 2.58.85l-.73 2.49c-.46.441-.979.818-1.54 1.12Z"/><path fill="#000" d="M18.457 93.55c-.64.08-1.13.5-1.06.65.07.15 1 0 1.13 0 1.31-.12 1.37 0 1.41-.18.04-.18-.52-.58-1.48-.47Zm.57 2.09a.331.331 0 0 0-.66.06v.68a.33.33 0 0 0 .65-.06c.03-.21.03-.46.01-.68Zm5.29 4.36c-.06-.21-.3 0-1-.07-.221-.04-.439-.1-.65-.18a35.867 35.867 0 0 0 0-4.27c0-.14-.22-.22-.27 0a17.918 17.918 0 0 0-.29 4.37c0 .19.1.38.28.43.62.19 1.287.14 1.87-.14a.13.13 0 0 0 .06-.14Zm1.62 2s-.74.53-.76.54l-.26.17c-.28.17-1.14.51-1.14.56 0 .26 1 .46 1.8-.22.32-.26.61-.94.36-1.05Zm-7.8-1.29a.33.33 0 1 0 0 .66.33.33 0 0 0 0-.66Zm148.19 50.92a2.91 2.91 0 0 0-2.07 5.26 3.161 3.161 0 0 0 3.25.16c1.99-1.11 2.16-5.19-1.18-5.42Zm.93 4.92a2.715 2.715 0 0 1-2.63-.24c-1.72-1.08-1-4.12 1.68-4.08 2.68.04 2.96 3.39.95 4.32Z"/><path fill="#000" d="M190.517 164.34c-3.89-50.37-3.39-43.09-3.26-44a.146.146 0 0 0-.002-.055.154.154 0 0 0-.024-.05.139.139 0 0 0-.094-.055c-7-1.08-18.28 1.17-19.22 2.56-.09.13-.08 0 .28 2.9-3.32.49-11.43 2.27-12.36 2.65-.35.14-.38.28-.16 3.79-7.83-1.44-22.89 1.6-23 1.61-1.86-1.68-9.34-3.46-11.84-3.47a6.453 6.453 0 0 0-1 .09l-3.29-4.23c.46-.37 1.31-1 1-1.56-.31-.56-.85-1.67-1.45-2.68 7.88-7.1 12.84-17.77 12.43-31.15-.68-22.19-11.18-34.95-33.53-37.12-44.91-4.29-60.85 47.84-32.18 68.93 12.85 9.43 28.09 11.39 40.9 6.73.35.73 1.22 2.58 1.92 2.76a5.306 5.306 0 0 0 1.89-.62c.23.37 4.76 7.54 7.56 11.87-3.09 1.31-8.67 4.6-7.41 7.73a4.105 4.105 0 0 0 2.35 2.29c1.9.76 3.71.18 5.6-.69-1 1.06-1.4 2.21-1 3.27a4.21 4.21 0 0 0 5.11 2.25c1.6-.45 1.58-.7 1.09-.16-.94 1-1.38 2.14-1 3.18a3.6 3.6 0 0 0 2 2c1.92.77 3.9-.06 5.9-1.11 1.6 2.17 3 4 4.18 5.26.74.82 2.26 3.29 4.88 4 1.62.46 3.66.28 6.2-1.35 3.38-2.18 2.14-6.26-.11-9.6a28.933 28.933 0 0 0 4-2c.71-.38 7.83.57 11.19.54.25 1.91.33 2.59.59 2.71 2 1 11.29-.28 13.62-.69.35 2.84.31 2.75.41 2.86.89.87 5.85 1.08 7.1 1.13 3.522.124 7.049.037 10.56-.26a.156.156 0 0 0 .215-.045.15.15 0 0 0 .022-.117.153.153 0 0 0-.067-.098Zm-127.21-42.45c-28.05-20.62-12.52-71.89 31.69-67.71 21.48 2 32.58 14.167 33.3 36.5 1.09 35.58-37.01 51.83-64.99 31.21Zm42.5 9.56c-.43-.11-1.43-2-1.64-2.38a37.653 37.653 0 0 0 11.5-6.79c.55.94 1.05 1.88 1.34 2.47-2.47 2.36-10.16 6.54-11.2 6.7Zm9.62 20.55c-1.76.73-3.38 1.3-5.09.62a3.495 3.495 0 0 1-2-1.92c-1.11-2.73 5.13-6.25 7.93-7.25 1.8-.66 4.09-1.24 5.88-.54s2 2.13 1 3.6a11.968 11.968 0 0 1-3 2.87c-2.68 1.36-2.03 1.49-4.72 2.62Zm6.28 4.74c-1.59.66-3.05 1.18-4.58.55a3.063 3.063 0 0 1-1.76-1.72c-1-2.45 4.66-5.63 7.17-6.53 1.62-.6 3.7-1.14 5.31-.5 1.61.64 1.79 1.93.91 3.24a12.364 12.364 0 0 1-3.56 3.13 31.046 31.046 0 0 1-3.53 1.82l.04.01Zm4.91 5.2c-1.5.62-2.89 1.12-4.35.52a2.935 2.935 0 0 1-1.66-1.62c-.93-2.33 4.45-5.36 6.81-6.21 1.53-.56 3.51-1.07 5-.47 1.49.6 1.72 1.81.87 3.07-1.28 1.92-4.48 3.77-6.62 4.7l-.05.01Zm20.25-4a29.416 29.416 0 0 1-4.09 2c-.08-.11-7.83-10.15-14.33-18.54l2.39.35a17.611 17.611 0 0 0 6.61 7.51 12.418 12.418 0 0 0 10 1.08.127.127 0 0 0 .054-.021.16.16 0 0 0 .041-.041.14.14 0 0 0 .02-.054.122.122 0 0 0-.002-.057.141.141 0 0 0-.125-.105.143.143 0 0 0-.058.008c-5.38 1.39-9.93-.35-13.37-4.52a18.146 18.146 0 0 1-2.62-4.22.338.338 0 0 0-.25-.2c-7.13-1.06-9.35-1.13-11.84-2.24a5.752 5.752 0 0 1-3.54-3.91 2.41 2.41 0 0 1 .88-2.53 7.221 7.221 0 0 1 4.24-1.53c2.431.187 4.833.646 7.16 1.37 4.72 1.4 4.08 2.05 4.67 2 .37 0 13.56-3.31 23.05-1.57.47 6.81 1.71 19.78 2.49 25.91-3.53-.04-10.44-1.18-11.38-.69Zm12.37 3.13c-.39-1.53-3.21-29.86-3.08-32.28 1.12-.39 8.88-2.29 12.08-2.86l4.19 34.63c-2.26.34-11.2 1.29-13.19.51Z"/><path fill="#000" d="M120.077 91c-.35-11.29-3.92-21.07-14.15-26a34.822 34.822 0 0 0-12.72-3.42c-35.54-3.34-47.29 38-24.84 54.52 22.3 16.33 52.58 3.57 51.71-25.1Zm-.3 0c.28 9-2.67 16.49-7.52 21.87a21.693 21.693 0 0 0-13.92-10.83l-.22-.59c-.26-.61-1.4-.62-2.06-.53-.08 0-.1.07-.23.22-.21-1.18-.26-.54.22-1.15.32-.4.41-.87.76-1.15.35-.28.5-.8.83-1.17a4.291 4.291 0 0 0 .9-2c.14-1 .93-2 .74-3.09-.13-.83-.17-2.08-.23-2.16.12-.74.07-.69.66-1.27 1.13-1.08 2.17-2.17 1.71-3.75a2.663 2.663 0 0 0-.69-1.26c.58-.32.53-1.46.39-2.05-.17-.77-1-.86-.66-1.52a6.735 6.735 0 0 0 1.11-1.86c.22-.84-.15-1-.8-2.31-.47-.92-.45-1.38-1.12-1.88-.67-.5-1.6-.52-2.28-.89-.45-.25-.71-1.45-1.46-1.8-2.25-1-2.8-.42-3.87-.15-1.35.34-1-.79-3-.75-.523.024-1.044.084-1.56.18-1.06.17-1.71 1.15-2.52 1.37-.81.22-1.3-.77-4 1.06-.65.44-.8 1.44-1.12 2-.75 1.39-2.51 2-2.09 4.24.21 1.06.8 1.55 1.09 2.46.07.25-.2.82-.24 1.13a2.92 2.92 0 0 0 .25 1.68c-1.68 1.93-.16 4 2 5.39.085.212.155.429.21.65a.318.318 0 0 0 0 .14c0 1.81-.18 2.87.78 4.46.33.53.73 1.69 1.15 2.29.6.88 1.13.87 1.91 1.92-.18.598-.326 1.206-.44 1.82-.27-.24-.32-.33-.44-.27-.494.185-.959.441-1.38.76-5.44 1.8-11.28 5.27-14.59 10-9.26-12.86-5.64-32.31 8-41.76 8.08-5.6 18.19-6.62 27.64-4.57 4.54 1 4.89 1.76 5.28 1.39 7.76 5.34 10.52 14.32 10.81 23.73Zm-14.17-25.35c-38.88-10.65-57.16 35.11-31.43 53.12-31.19-15.47-15.33-63.91 24.41-55.62a29.79 29.79 0 0 1 7.02 2.5Zm-20.58 36.22c.075-.442.175-.879.3-1.31a8.466 8.466 0 0 0 2.14 1c1.94.84 3.31.55 5.33.1a4.545 4.545 0 0 0 1.18-.67c.389-.151.79-.265 1.2-.34.068.331.118.664.15 1 0 .1-.13.24-.23.41-.85 1-2.26 2.8-3 3.92-.23.37-.47.74-.24 1 .037.039.081.069.13.09-.74 1.16-1 1.4-1.2 1.82-.45-.44-1.44-1.59-1.85-2.07.14-.19.15-.38-.37-1-.65-.76-1.71-1.77-2.44-2.45-.39-.482-.757-.982-1.1-1.5Zm-5.36-16.74c.41-.36.77.07 1.29.14.11.085.23.153.36.2.43.12.68-.3.78-.76.15-.78 0-2 .15-2.54a11.7 11.7 0 0 1 .81-1.76c.07-.13.56-.83.66-.83.26 0-.18 1 .49 1.24.67.24 1.23-.16 1.71-.8s.6-.73 1.16-.42c.56.31.83.55 1.38.43a2.32 2.32 0 0 0 1.07-.72c.31-.28.47-.42 1-.07.318.255.652.489 1 .7.71.27 1.17-.74 1.38-.69.58.13.72 1 1.71.81.26 0 .56-.16.74-.21.24.16.52.47.77.65.25.18.59.12.71.64.03.508.096 1.012.2 1.51.14.34 0 1.35.41 1.93.62.81 1.64.11 2.76-.24a1.684 1.684 0 0 1 .78 1.21c.36 1.33-.63 2.26-1.62 3.18-.76.71-.7.74-.91 1.87-.21 1.13-.51 2.72-1.47 3.4a5.324 5.324 0 0 0-1.11.8c-.3.36-.4.82-.82.84-.58 0-.86-.24-1.68.22-.82.46-1 .86-1.71.8-.71-.06-.8-.26-1.21-.15-.41.11-.44.37-1.23.2a3 3 0 0 0-1.23-.13c-.25 0-.56.17-.7.06-.63-.52-1-1.37-1.81-1.82-.54-.29-1.38-.31-1.84-.61a18.186 18.186 0 0 1-1.83-2.82 7.872 7.872 0 0 0-.4-1.24c-.24-.32-4.52-2.6-1.75-5.02Zm19.19 22.23c-.87-.14 1.07.22-6.24-.86.57-1 2.91-4.33 3.57-5.26.41 0 1.43.05 1.55.4a34.63 34.63 0 0 1 1.09 5.72h.03Zm-10.63-.93c-7 2-4.31 1.19-6.47 1.77-.4-1.32.43-4.11.91-5.42.13-.36 1-.81 1.3-1 .76.84 3.53 3.76 4.23 4.65h.03Zm-1 1 1.06-.32c.73.91 1.526 1.766 2.38 2.56.27.13.46 0 .65-.27.4-.48 1.15-1.67 1.47-2.18l2.32.36a52.729 52.729 0 0 0-2 14.88c-1 .1-2.12.16-3.19.17a48.871 48.871 0 0 0-2.71-15.19l.02-.01Z"/></svg>