<svg xmlns="http://www.w3.org/2000/svg" fill="none" viewBox="0 0 377 377"><path fill="#fff" d="M228.378 88.998a.723.723 0 0 0-.502-.725 54.156 54.156 0 0 0-7.142-.998.516.516 0 0 0-.258.046l-.151.066a.562.562 0 0 0-.339.575.567.567 0 0 0 .446.497c.913.189 1.161.189 5.57.965a5.49 5.49 0 0 1-1.636.719 2.118 2.118 0 0 1-2.179-.798.764.764 0 0 0-1.266.856 3.614 3.614 0 0 0 3.547 1.44 5.374 5.374 0 0 0 3.91-2.643ZM231.401 73.654c.677.04 1.047-.212 1.81.35a.913.913 0 0 0 1.199 0 .887.887 0 0 0-.159-1.335 3.89 3.89 0 0 0-2.759-.66c-1.572-.002-1.088 2.222-.091 1.645ZM152.089 44.74a.633.633 0 0 0 .986-.273c.208-.654-.539-.733-8.712-10.556-.472-.565-1.569.126-.954.754a78.447 78.447 0 0 0 8.68 10.075ZM129.556 60.835a.573.573 0 1 0-.356 1.087s6.786 1.944 7.052 2.025c2.326.693 4.618 1.632 7.004 2.186.769.164.943-1.027.34-1.272a134.245 134.245 0 0 0-14.04-4.026ZM144.907 88.672c.622-.252.377-1.402-.367-1.199-3.09.868-8.453 3.033-13.322 4.089a.566.566 0 0 0 .119 1.118 103.173 103.173 0 0 0 13.57-4.008ZM153 94.133a.567.567 0 0 0-.78-.02c-2.615 2.363-9.065 8.482-11.297 11.17a.665.665 0 1 0 .942.942c.641-.554 8.076-8.13 11.203-11.221a.568.568 0 0 0 0-.801l-.068-.07ZM161.882 41.144c.296.565 1.393.332 1.223-.394-.045-.189-2.797-9.19-2.985-9.338a.568.568 0 0 0-.98-.061.566.566 0 0 0-.089.377 58.987 58.987 0 0 0 2.831 9.416Z"/><path fill="#fff" d="M355.587 97.177a.722.722 0 0 0-.242-.654c-.258-.224-6.088-2.878-12.267-5.734a13.617 13.617 0 0 0-3.523-1.59 5.435 5.435 0 0 0-1.953.333c-8.965 1.48-10.556 1.508-14.79 2.963a.638.638 0 0 0-.403.622c.013.349.022.7.03 1.05-.456 5.466-.392 11.253-.662 17.023a.677.677 0 0 0 .273.809c.643.349 1.32.65 1.989.943a69.813 69.813 0 0 1-29.036 3.666 78.087 78.087 0 0 1-16.945-4.592 148.838 148.838 0 0 1-14.137-5.787 70.127 70.127 0 0 0-22.997-7.048c.092-1.32.942-5.374 1.153-8.362.532.249 1.11.384 1.697.398a5.665 5.665 0 0 0 4.835-3.717 7.1 7.1 0 0 0 .965-3.053 7.105 7.105 0 0 0-.471-3.168 9.795 9.795 0 0 0 1.355-2.639c1.054.77 1.872-1.09 1.734-2.058a4.924 4.924 0 0 1-.054-.786.89.89 0 0 0 .918.12 1.765 1.765 0 0 0 .814-1.425 6.53 6.53 0 0 0 0-1.568c.662-.05.92-.97.943-1.63v-2.64c.179.163.302.38.35.617a.163.163 0 0 0 .049.086.163.163 0 0 0 .256-.043 2.552 2.552 0 0 0 0-2.324c-.339-.68-.695-1.359-1.089-1.985a.84.84 0 0 1-.028-.714l.019-.02c.114.392.352.736.678.981a.163.163 0 0 0 .226-.028 3.05 3.05 0 0 0 .54-2.792 3.065 3.065 0 0 0-1.991-2.03c1.072-.775.809-2.398.415-2.073a2.215 2.215 0 0 1-2.289.167c1.305-.769-.1-3.016-1.96-1.82-.015-.811-.822-1.41-.943-1.062a.783.783 0 0 1-1.368.198.795.795 0 0 1 .562-1.027.798.798 0 0 1 .433.013.166.166 0 0 0 .186-.07.165.165 0 0 0-.018-.198 2.337 2.337 0 0 0-3.354-.054c-.018-1.993-2.405-2.671-2.122-2.055.283.616.286 1.678-.443 1.847a.436.436 0 0 1-.405-.092c-.285-.266.054-1.088.047-1.77a1.285 1.285 0 0 0-.9-.932 1.275 1.275 0 0 0-1.251.332c-.154.285-.326.56-.516.822-.259.238-.647-.071-.398-.224.475-.279.441-1.499-.438-1.885-1.197-.422-2.073.326-2.767 1.335a2.943 2.943 0 0 0-.354-1.071c-.596-.943-2.019-.445-1.638-.117a.983.983 0 0 1 .207 1.227.833.833 0 0 1-1.131.289.708.708 0 0 1 0-1.097.17.17 0 0 0 .045-.057.171.171 0 0 0 .016-.07.171.171 0 0 0-.016-.071.17.17 0 0 0-.045-.057 1.883 1.883 0 0 0-2.377 0 5.057 5.057 0 0 0-1.201 1.214v-.875a.532.532 0 0 0-.015-.403c-.235-.528-3.006-.21-3.411 2.18a2.619 2.619 0 0 0-2.451-.416.16.16 0 0 0-.11.128.16.16 0 0 0 .063.157 1.562 1.562 0 0 1 .351 2.089 1.278 1.278 0 0 0-1.412-.675 1.676 1.676 0 0 0-1.226 1.593c.001.5.146.988.417 1.408a2.337 2.337 0 0 0-2.567 1.71.163.163 0 0 0 .01.11.164.164 0 0 0 .08.078 2.57 2.57 0 0 1 1.493 2.714.553.553 0 0 1-.565-.707.165.165 0 0 0-.259-.173 2.169 2.169 0 0 0 1.163 3.836 33.683 33.683 0 0 0-4.049 7.414l-1.319-.287a2.7 2.7 0 0 0-3.205 2.055l-.674 3.09a2.69 2.69 0 0 0 2.054 3.204l.856.188c-.064.389-.157.764-.213 1.156-1.027 7.193 1.602 15.487 8.754 17.002a46.945 46.945 0 0 0-18.349 2.639 59.122 59.122 0 0 0-14.337 7.035 96.556 96.556 0 0 1 5.169-9.404c2.772-1.527 4.469-6.673 2.12-8.524l1.342-4.645c.602.1 2.402.413 2.728.477 2.162.422 4.616.905 6.524-1.212a11.322 11.322 0 0 0 1.804-4.712 5.139 5.139 0 0 0-1.199-5.408 6.996 6.996 0 0 0-3.272-1.476c-12.253-3.529-22.217-8.317-31.48-17.331-2.496-11.43-10.744-13.41-17.136-4.677a36.196 36.196 0 0 0-5.906 14.971c-2.147 12.488 1.237 23.142 7.706 24.254 3.251.566 6.198-1.45 8.382-3.94a59.172 59.172 0 0 1 26.411-1.717l-.354 1.24a5.369 5.369 0 0 0-6.181 5.597 160.656 160.656 0 0 0-13.651 12.209 65.776 65.776 0 0 0-10.541 13.207c-2.451 4.413-4.99 10.904-3.205 16.752a11.235 11.235 0 0 0 10.766 8.026 50.483 50.483 0 0 0 9.781-1.052 24.272 24.272 0 0 0 7.481-2.735 181.709 181.709 0 0 0-3.174 25.896c-.047 2.172-.697 4.713.926 6.388a15.355 15.355 0 0 0 3.472 2.379c.806.468 1.532.86 2.215 1.207-3.016 29.059-.641 94.738 7.589 127.803.327.198.671.368 1.027.507.012.889-.069 1.776-.241 2.648-.279.528-1.32.843-1.934 1.176 0 0-5.118 2.574-5.356 2.679-2.612 1.163-4.367 2.173-4.439 3.327-.066 1.054 1.25 1.638 2.373 1.555 5.356.279 12.125-1.623 17.193-3.359 1.024-.326 2.572-.82 2.572-2.509a13.893 13.893 0 0 0-.311-2.232c-.566-3.641-.479-3.313-.63-3.521.087-.045.188-.07.268-.119a3.987 3.987 0 0 0 1.263-3.266c2.133-32.469 5.706-66.137 11.038-98.209a23.93 23.93 0 0 1 5.408.208c.108 38.642-3.229 94.338-3.302 101.531.46.202 1.233.468 1.708.626-.061.588-.259 2.049-.283 2.639a5.831 5.831 0 0 0 .036 2.922c.486 1.059 1.805 1.463 2.769 1.757a100.67 100.67 0 0 0 13.788 3.726 7.24 7.24 0 0 0 2.406.391 1.2 1.2 0 0 0 1.095-.884 1.867 1.867 0 0 0-.771-1.735 70.195 70.195 0 0 0-8.319-5.626 2.657 2.657 0 0 1-1.193-2.949 7.379 7.379 0 0 0 1.043-.275c.188-.062 25.408-84.338 21.677-125.626a52.929 52.929 0 0 0 7.09-4.565.871.871 0 0 0 .311-.856c.322-12.697-.268-24.535-1.079-37.391a83.97 83.97 0 0 0 54.686-6.324 36.223 36.223 0 0 0 10.762-7.698.778.778 0 0 0 .094-.281 6.23 6.23 0 0 0 1.238-.475 7.845 7.845 0 0 0 1.68-1.131c4.196 3.152 4.827 4.047 5.544 3.591 2.207-1.041 12.729-5.563 12.919-5.636a3.271 3.271 0 0 0 2.091-1.597c.143-.461.216-.942.217-1.425 1.204-9.877 1.962-16.194 1.953-16.283ZM219.546 70.934v.03l.021.11a.564.564 0 0 0 .554.456h1.131c.284.034.555.136.79.298a.832.832 0 0 0 1.157-.123.858.858 0 0 0-.103-1.11 2.972 2.972 0 0 0-3.222-.32 33.722 33.722 0 0 1 3.378-5.467c1.988.02 3.968.251 5.908.69a42.773 42.773 0 0 1 8.795 2.935c3.958 1.706 4.701 2.434 3.785 7.81a30.596 30.596 0 0 1-1.165 4.627l-2.959-.805.188-.906a2.829 2.829 0 0 0-2.173-3.36l-6.558-1.406a2.827 2.827 0 0 0-3.327 2.074 5.478 5.478 0 0 0-2.451-.88 2.696 2.696 0 0 0-2.105-2.518l-2.36-.515c.232-.547.465-1.086.716-1.62Zm16.42 7.835c-.069.045-.403 2.887-.982 3.262a.939.939 0 0 1-.71.13l-6.56-1.406a.938.938 0 0 1-.732-.753.953.953 0 0 1 .006-.368l.566-2.668a.938.938 0 0 1 .925-.754c.189 0 .038-.02 6.756 1.427a.945.945 0 0 1 .739.758c.022.123.02.25-.008.371Zm-17.82-4.434 2.648.579a.81.81 0 0 1 .618.963c-.754 3.465-.66 3.36-1.029 3.598-.369.238-.377.16-3.444-.51a33.31 33.31 0 0 1 1.207-4.63Zm-3.608 4.104a.811.811 0 0 1-.619-.964l.677-3.09a.814.814 0 0 1 .79-.634c.416.054.828.138 1.233.25a41.178 41.178 0 0 0-1.286 4.613l-.795-.175Zm8.424 23.108a.872.872 0 0 0 1.706.019c.267-1.156.544-2.178.797-3.393a.867.867 0 0 0-.745-1.114 9.245 9.245 0 0 1-7.225-5.665 18.524 18.524 0 0 1-.957-10.595l2.639.565c-.163.249-.353.47-.498.737a2.486 2.486 0 0 0 .211 2.48 5.845 5.845 0 0 0 4.669 1.852.75.75 0 0 0 .664-.618.665.665 0 0 0-.603-.705 10.115 10.115 0 0 1-3.12-.88 1.248 1.248 0 0 1-.667-.828c-.01-1.39 1.206-2.127 4.874-5.864.218.208.445.404.683.59l-.236 1.095a2.828 2.828 0 0 0 2.173 3.359l6.56 1.406a2.826 2.826 0 0 0 2.996-1.273 2.9 2.9 0 0 0 .42-1.162l2.746.793c-1.8 4.664-3.163 6.207-1.885 7.553a1.405 1.405 0 0 0 1.64-.01c1.797-1.588 1.768-6.559 5.112-8.295 2.262-1.17 3.273-.377 3.278 1.955a9.013 9.013 0 0 1-1.131 3.64c-.878 1.866-3.125 3.378-4.754 2.04a.752.752 0 0 0-1.21.097.652.652 0 0 0-.271.419c-.202.861-1.71 10.332-1.682 11.21.157 5.314-6.759 6.305-9.977 5.689-4.752-.306-7.287-3.942-6.207-5.097Zm-29.354-2.673-1.457-.488 1.162-4.074c.377-.016.754-.01 1.131.019a4.44 4.44 0 0 0 0 1.872l-.836 2.67Zm3.812-3.47a5.797 5.797 0 0 1-1.261 1.696 3.703 3.703 0 0 1 .33-3.627c.467-.942-.251-1.144-.839-.897-.728.405-1.359-1.13-.132-1.417.682-.268 2.056-.14 2.36.51a5.955 5.955 0 0 1-.458 3.735Zm-.566-7.374a5.139 5.139 0 0 0-1.355-1.198l.468-1.641c.565.079 1.097.164 1.638.247l-.751 2.591Zm-37.253.716c-8.222-1.416-9.483-24.128-.631-36.236 2.473-3.381 5.187-5.012 7.653-4.588 4.769.822 7.525 9.263 6.556 19.105a5.572 5.572 0 0 0-5.449 4.304 5.577 5.577 0 0 0 2.974 6.274c-2.75 7.103-7.156 11.821-11.107 11.14h.004Zm13.348-19.836a39.44 39.44 0 0 1-1.602 6.867 3.68 3.68 0 0 1-1.768-4.03 3.675 3.675 0 0 1 3.366-2.837h.004Zm-3.891 15.996a40.76 40.76 0 0 0 5.947-26.341 49.148 49.148 0 0 0 12.008 8.886 86.008 86.008 0 0 0 16.518 6.854c1.434.29 2.838.715 4.192 1.268a3.405 3.405 0 0 1 1.621 3.846c-.26 1.13-.586 2.177-.942 3.357-1.131 3.697-4.89 2.19-8.599 1.55-14.4-2.462-22.826-1.695-30.749.58h.004Zm20.775 3.689a4.357 4.357 0 0 1 6.054-.247c.971.754.423 1.105-.62.658a10.124 10.124 0 0 0-3.74-.801.755.755 0 0 0-.772.712.807.807 0 0 0 .516.81 8.426 8.426 0 0 1 3.278.566c.309.136.402.566-.271.44a7.314 7.314 0 0 0-3.263-.253c-.754-.028-.856 1.408-.019 1.508.667.039 1.329.137 1.979.294.816.172 1.046.628.072.943a3.653 3.653 0 0 0-2.556 1.23.846.846 0 0 0 .331 1.067c.2.121.238-.188 0 .662a5.816 5.816 0 0 1-.989-7.589Zm-1.555 81.656a3.21 3.21 0 0 1-1.414-1.285 3.226 3.226 0 0 1-.436-1.861c0-2.501.547-9.66.63-10.584a144.355 144.355 0 0 1 5.425-29.076 79.557 79.557 0 0 1 6.157-14.954.836.836 0 0 0-.054-.944.82.82 0 0 0-.571-.315.834.834 0 0 0-.827.46 90.338 90.338 0 0 0-8.586 24.33 31.358 31.358 0 0 1-14.861 4.186 14.3 14.3 0 0 1-7.554-1.022 9.549 9.549 0 0 1-4.548-5.892c-2.709-9.525 6.237-21.072 13.219-28.1 4.762-4.793 9.116-8.642 12.788-11.95.1.728.31 1.436.622 2.101a6.556 6.556 0 0 0 2.074 2.528 1.974 1.974 0 0 0 1.349 2.435c.53.142.877.257 1.529.408a68.628 68.628 0 0 0-5.591 11.149c-.403.943-.825 1.885-1.223 2.841a42.365 42.365 0 0 1-10.217 15.012c-.743.592-.028 1.755.982 1.193 4.956-3.839 7.917-9.481 10.4-15.038a98.063 98.063 0 0 1 1.938-4.713c4.759-2.773 13.383-10.416 33.062-11.168a38.722 38.722 0 0 0-8.589 12.179 125.3 125.3 0 0 0-5.804 14.61 136.632 136.632 0 0 0-5.844 49.953 59 59 0 0 1-14.056-6.492v.009Zm20.324 138.065a5.988 5.988 0 0 1-2.324.892 51.892 51.892 0 0 1-12.89 2.98c-1.638.13-4.026.247-2.507-.377.396-.164-.681.377 7.553-3.855a15.623 15.623 0 0 0 2.484-1.319c1.201-.954.709-2.766.596-3.882 2.142.255 4.309.232 6.445-.069.109 1.301.286 2.595.53 3.877.111.575.296 1.552.113 1.744v.009Zm27.023-.788c4.371 2.913 3.6 2.147 7.789 5.105a106.293 106.293 0 0 1-15.881-4.266 1.107 1.107 0 0 1-.809-1.025c.157-1.367.21-2.744.158-4.119a18.27 18.27 0 0 0 6.741.277 3.96 3.96 0 0 0 2.002 4.028Zm4.336-131.454c-12.524 1.28-21.156 1.885-36.226-3.651a125.722 125.722 0 0 1-.11-4.675 78.012 78.012 0 0 0 36.713 4.07 971.022 971.022 0 0 1-.377 4.256Zm67.956-45.308a81.1 81.1 0 0 1-43.621 1.976c-.347-5.171-.78-10.264-1.497-15.414-.107-.754-1.295-.565-1.233.149 2.451 28.35 1.985 34.603 2.345 54.043-9.146 6.85-20.797 9.889-22.767 9.864a410.682 410.682 0 0 0 2.055-58.846 120.52 120.52 0 0 0-2.45-22.034 90.809 90.809 0 0 1 17.547 4.749c2.899 1.18 5.744 2.727 8.711 3.958 2.938 1.224 6.045 2.389 9.148 3.616a88.406 88.406 0 0 0 17.579 5.089 70.171 70.171 0 0 0 29.321-3.031 7.019 7.019 0 0 0 1.667 4.123 4.5 4.5 0 0 0 2.606 1.643c-5.519 5.252-13.191 8.151-19.409 10.115h-.002Zm20.546-11.687a.57.57 0 0 0-.171.153 3.83 3.83 0 0 1-2.974-1.869 3.835 3.835 0 0 1-.206-3.505 5.764 5.764 0 0 1 1.155-1.838c.243-.342.561-.624.93-.824a7.019 7.019 0 0 1-.666 2.343c-.398.954.377 1.487.984 1.205a32.577 32.577 0 0 1 4.147 2.872 8.631 8.631 0 0 1-3.201 1.469l.002-.006Zm8.728.869a70.884 70.884 0 0 0-9.048-6.235c.501-1.329 1.055-3.348-.26-3.872-1.001-.407-1.802.415-2.232.831a7.8 7.8 0 0 0-.894 1.043c-.068-.036-1.538-.807-1.562-.836-.036-6.65.478-11.298.377-16.682.017-.188-.228-.043 3.204 1.68 12.096 6.066 10.379 5.574 11.156 5.843a94.22 94.22 0 0 0-.743 18.234l.002-.006Zm-12.008-26.735c3.595-.78 4.426-.942 10.083-1.813a29.52 29.52 0 0 1 3.77-.696c1.433.28 2.796.844 4.006 1.661 0 0 8.128 3.87 9.715 4.582-4.957 1.143-9.664 2.132-14.117 3.471-.695-.513-8.878-5.11-13.457-7.205Zm26.88 20.326c-.075.432-.28.83-.588 1.142-.188.1-9.304 4.027-12.754 5.554a136.01 136.01 0 0 1 .598-18.662c5.046-.92 10.111-2.279 14.633-3.393 0-.006-1.645 13.949-1.889 15.359ZM33.018 51.45a.849.849 0 0 0 .834.678c.96 0 21.37-4.438 54.568-7.83a.868.868 0 0 0 .786-.862c-.397-6.437-.78-12.846-1.168-19.268 3.958 1.404 6.757 2.192 9.704 3.32a132.853 132.853 0 0 1 26.045 13.25c-.223-.07-.439-.161-.664-.22a.721.721 0 0 0-.861.528.702.702 0 0 0 .586.803c.492.241 1 .447 1.521.616 3.365 1.288 4.443 1.727 4.841 1.874a.82.82 0 0 0 1.05-1.154c-1.241-2-2.74-3.827-4.458-5.436a.836.836 0 0 0-1.392.637.835.835 0 0 0 .248.579c.141.137.269.288.409.428-2.828-1.844-10.49-6.202-15.574-8.63a130.48 130.48 0 0 0-21.548-8.105c-.26-4.315-.53-8.65-.786-12.954a.78.78 0 0 0-.77-.782 332.997 332.997 0 0 0-56.74 3.77c-.742-.234-1.713.618-1.13 1.259 2.409 12.275 2.356 25.084 4.5 37.498Zm52.477-40.986c.183.908.238 1.838.164 2.761 1.293 22.379 1.625 29.43 1.82 29.487-.427.249-19.98 1.497-52.943 7.557-1.989-11.97-1.959-24.478-4.257-36.297a379.139 379.139 0 0 1 41.23-3.354c15.524-.3 13.483-.213 13.986-.154Z"/><path fill="#fff" d="M49.69 20.967c1.885 0 16.92-.848 18.217-1.22.52-.149.771-1.27-.473-1.368-1.244-.098-4.271.307-11.361.74-2.117.13-4.307.263-6.45.526-.71.087-.668 1.322.067 1.322ZM59.137 26.578c1.777-.173 13.421-1.283 17.37-1.717a.783.783 0 0 0-.05-1.564c-3.906.36-21.094 2.073-22.768 2.22-4.167.353-8.105.686-12.134 1.403-.674.118-.606 1.26.106 1.251 5.465-.054 11.018-.953 17.476-1.593ZM71.227 28.944c-1.88.107-3.75.333-5.6.679-12.387 1.632-13.252 1.613-16.274 2.273-.531.115-.976 1.36.679 1.276 1.474-.075 5.295-.66 16.105-2.12a38.62 38.62 0 0 0 5.12-.719.696.696 0 1 0-.03-1.389ZM77.992 34.652c-9.613.86-24.612 2.094-34.442 4.017-.68.134-.754 1.351.086 1.246 7.018-.822 16.879-2.483 34.396-3.742a.761.761 0 0 0-.04-1.521ZM40.753 195.874c-7.654 2.249-11.121 10.894-6.7 18.867 4.523 10.665 19.75 8.628 23.528-2.051 3.33-9.413-4.424-20.871-16.828-16.816Zm14.164 6.368a13.433 13.433 0 0 1 .23 11.498c-4.107 7.207-14.874 8.645-18.708 1.559a15.033 15.033 0 0 1-2.5-7.84c-.072-10.884 16.232-14.765 20.978-5.217ZM129.877 138.506l-.664.566a.943.943 0 1 0 1.233 1.426l4.198-3.624a.947.947 0 0 0 .277-1.019.943.943 0 0 0-.842-.636l-5.814-.287a.93.93 0 0 0-.988.895.942.942 0 0 0 .894.988l1.007.051c-32.402 10.858-59.687 31.932-75.278 52.823a.78.78 0 0 0 .265 1.039c.112.07.24.11.372.117a.697.697 0 0 0 .526-.253c9.005-10.397 14.673-16.872 26.63-26.26a162.12 162.12 0 0 1 48.184-25.826ZM96.58 246.907a34.039 34.039 0 0 0 7.433 2.95.778.778 0 0 0 .92-.771.788.788 0 0 0-.643-.766 164.604 164.604 0 0 1-39.178-23.274l1.814.802c1.734.716 2.086-1.32.655-1.674a56.66 56.66 0 0 1-5.508-2.244.848.848 0 0 0-.906.122.856.856 0 0 0-.272.874 16.782 16.782 0 0 0 3.14 5.713c.708.803 1.807-.377 1.356-.974-.26-.347-.488-.713-.724-1.075a87.662 87.662 0 0 0 13.031 9.401 217.627 217.627 0 0 0 18.882 10.916ZM127.705 249.063c4.275.625 8.602.815 12.914.566 13.352 0 13.423.032 13.614-.021a.852.852 0 0 0 .512-.405.83.83 0 0 0 .101-.317.828.828 0 0 0-.029-.332.816.816 0 0 0-.737-.599c-20.503 0-20.169.166-26.271-.285a.69.69 0 0 0-.358 1.282.58.58 0 0 0 .254.111ZM160.98 257.238c-3.65-.128-7.363-.162-10.954-.188-3.159-.032-25.87-.786-29.902-.848a.565.565 0 0 0-.565.565v.174a.563.563 0 0 0 .516.565c8.294.72 32.988 1.489 40.893 1.308a.785.785 0 0 0 .021-1.566l-.009-.01ZM155.758 265.891c-9.22-.89-28.726-.93-29.855-.459a.722.722 0 0 0-.434.66.718.718 0 0 0 .434.66c.666.277 11.631-.141 22.288.26 2.4.091 5.02.42 7.493.392a.756.756 0 0 0 .598-1.266.752.752 0 0 0-.524-.247Z"/><path fill="#fff" d="M170.216 240.166c-18.712-2.769-37.939-2.692-56.525-3.142a.965.965 0 0 0-.905.642.972.972 0 0 0 .292 1.071 306.52 306.52 0 0 0-1.476 37.342.89.89 0 0 0 .863.893c19.244.728 38.513.517 57.777.807a.97.97 0 0 0 .958-.963 420.93 420.93 0 0 1-.217-35.706.953.953 0 0 0-.767-.944Zm-.959 35.711c-18.473-.188-37.25-.411-55.847-.675-.255-12.569.486-25.196 1.236-36.22 17.857.422 36.381.394 54.369 2.948-.396 11.552-.307 22.963.243 33.947h-.001ZM58.403 341.513a.855.855 0 0 0 .554-1.508c-4.84-4.336-9.99-7.551-17.73-17.442a86.442 86.442 0 0 1-16.077-71.096 84.012 84.012 0 0 1 8.643-23.271l.101 1.529a.942.942 0 0 0 1.006.879.94.94 0 0 0 .832-.64.943.943 0 0 0 .047-.365l-.328-4.856a.946.946 0 0 0-.542-.791.95.95 0 0 0-.954.093l-4.198 3.067a.953.953 0 0 0-.393.619.94.94 0 0 0 1.17 1.067.953.953 0 0 0 .335-.164l1.242-.909a70.569 70.569 0 0 0-8.017 20.243 88.585 88.585 0 0 0 33.798 93.366.846.846 0 0 0 .511.179ZM96.652 319.508c-.153-.487-.754-.988-1.576-.238-4.084 3.77-35.698 36.053-37.293 37.873a.762.762 0 0 0-.136.637.745.745 0 0 0 .41.506c.565.269.725-.151 1.003-.445.297.273-3.116-.436 54.94 10.305a.941.941 0 0 0 .984-1.25c-6.396-15.702-12.213-31.628-18.332-47.388Zm-1.21 1.73 17.136 44.539-51.854-9.48c3.123-2.963 32.773-33.074 34.718-35.065v.006ZM237.061 346.985a69.216 69.216 0 0 1-17.491 6.117 396.85 396.85 0 0 1-78.125 8.548 75.614 75.614 0 0 1 3.888-1.885.661.661 0 0 0 .343-.869.592.592 0 0 0-.869-.35 33.925 33.925 0 0 0-6.861 3.161c-1.052.277-1.189 1.453-.356 1.794l7.251 2.702a.85.85 0 0 0 1.047-.538.849.849 0 0 0-.498-1.066l-3.12-1.162a387.931 387.931 0 0 0 76.02-8.382 61.379 61.379 0 0 0 19.416-6.975c.686-.375-.008-1.429-.645-1.095ZM284.873 321.545a.984.984 0 0 0-1.207-.68c-12.414 3.119-25.66 5.979-42.842 9.263a.883.883 0 0 0-.739 1.351c.147 3.086 4.628 24.253 5.225 27.265a.942.942 0 0 0 .905.697c.189 0-2.345.566 45.721-10.544a1.03 1.03 0 0 0 .675-1.188 234.225 234.225 0 0 0-7.738-26.164Zm-1.571 1.465a235.894 235.894 0 0 1 7.154 24.237 9486.827 9486.827 0 0 0-43.508 10.162c-1.657-8.235-3.14-17.036-5.278-25.462 14.807-2.438 29.295-5.861 41.632-8.937Z"/><path fill="#fff" d="M257.163 337.947c1.037 0 7.291-1.493 9.188-1.885 1.696-.351 3.434-.713 5.116-1.192 1.059-.126.754-1.824-.351-1.66-2.797.49-5.525 1.319-7.042 1.634a72.15 72.15 0 0 0-7.084 1.781.775.775 0 0 0-.473.649.74.74 0 0 0 .646.673ZM254.918 343.306c1.555 0 1.468-.125 22.46-5.054 1.21 0 .929-2.023-.306-1.747-3.106.689-20.401 4.727-22.393 5.56a.665.665 0 0 0-.337.708.662.662 0 0 0 .576.533ZM273.259 342.78c-14.569 3.429-14.718 3.347-14.395 4.471.247.867 1.001.526 14.703-2.748 1.242 0 .889-1.999-.308-1.723ZM219.791 75.555c-.82-.04-.828 1.06-.99 1.8-.162.739.251 1.926 1.116.863.865-1.063.601-2.63-.126-2.663ZM230.556 77.728c-.82-.04-.829 1.063-.991 1.802-.162.739.252 1.927 1.118.863.865-1.063.607-2.63-.127-2.665Z"/></svg>